<svg width="142" height="159" viewBox="0 0 142 159" fill="none" xmlns="http://www.w3.org/2000/svg">
<path d="M139.676 57.7726C139.339 58.5073 136.707 58.998 135.023 59.0266C133.339 59.0577 132.329 59.2109 131.716 59.7924C131.104 60.374 129.573 59.6418 129.022 60.2831C128.472 60.9244 126.297 61.4773 125.594 60.0079C125.298 59.3874 124.904 59.0447 124.533 58.8267C124.021 58.5281 123.549 58.4788 123.424 58.3541C123.212 58.1413 124.037 57.5286 124.618 57.4065C125.2 57.2845 124.924 56.6095 124.434 56.1811C124.354 56.111 124.26 56.0228 124.159 55.9293C123.655 55.4568 122.926 54.6806 121.953 53.4552C120.788 51.9831 119.412 51.1887 118.675 51.1887C117.938 51.1887 117.818 49.9321 117.359 49.8724C116.9 49.8127 115.859 48.0032 115.828 46.8401C115.81 46.1859 115.267 45.2746 114.665 44.5373C114.198 43.9661 113.7 43.4962 113.378 43.3482C112.643 43.0133 112.153 41.7256 112.153 40.103C112.153 38.4804 111.756 37.1927 111.694 36.6734C111.631 36.1516 110.837 35.0482 109.89 34.529C109.218 34.1629 108.844 33.61 108.732 32.9739C108.686 32.7091 108.68 32.4287 108.724 32.1405C108.878 31.1592 108.203 31.2215 107.775 29.8429C107.346 28.4643 105.631 26.4134 105.571 25.6163C105.509 24.8219 104.559 24.3624 104.59 23.503C104.621 22.6463 104.131 22.5554 103.181 21.2054C102.231 19.858 101.956 17.5007 102.231 17.4072C102.506 17.3163 103.303 19.3985 103.609 20.0709C103.915 20.7459 104.956 22.7969 105.693 22.7969C106.43 22.7969 106.705 19.7022 106.949 19.858C106.973 19.871 106.986 19.9047 107.001 19.9463L107.082 19.3855L107.385 18.5521L105.898 14.9045C105.792 15.0706 105.709 15.1875 105.665 15.2316C105.418 15.4782 104.408 14.8655 103.459 15.1096C102.509 15.3562 101.774 15.0187 100.855 14.5592C99.9367 14.0997 96.9365 14.6812 96.5394 15.2628C96.1424 15.8443 95.1302 15.8443 94.2114 15.4782C93.2953 15.1096 92.0989 14.5592 90.4171 14.406C88.8443 14.2632 87.5752 14.0374 87.2923 13.6583C87.2716 13.6324 87.243 13.6064 87.2326 13.5778C87.0795 13.1495 86.2516 13.1183 84.4453 12.8431C82.6389 12.5679 83.3111 11.3425 81.2919 11.2205C79.2702 11.0959 76.7008 12.7211 76.6697 13.5778C76.6385 14.4372 77.617 15.3848 76.9448 16.2727C76.2726 17.1606 74.8036 17.2514 73.7603 16.3038C72.7196 15.3562 71.1883 14.9252 69.9348 14.9252C68.6813 14.9252 67.7911 14.1282 67.8819 13.4558C67.9753 12.7834 67.5783 12.4745 66.5375 12.2616C65.4968 12.0461 64.6092 11.1894 62.7717 11.4957C61.7881 11.6593 60.955 11.3659 60.3814 10.9972C59.8857 10.6779 59.5847 10.3015 59.5847 10.1171C59.5847 9.71992 59.0345 9.04491 58.7282 9.41356C58.422 9.78222 57.2593 9.47588 57.1035 8.71001C56.9504 7.94414 57.8692 7.97528 58.7282 7.27171C59.5847 6.56555 59.7066 5.21814 58.7879 4.48342C57.8692 3.7487 58.5128 3.35148 59.1564 2.67647C59.8001 2.00406 59.2187 1.63542 58.8813 1.94177C58.5439 2.24812 57.9937 2.34157 57.9029 1.60425C57.8121 0.869531 55.8215 0.74752 55.0558 1.45108C54.7859 1.69772 54.3759 1.77301 53.9424 1.77041C53.1327 1.76522 52.2321 1.46926 51.9933 1.39138C51.6274 1.26936 50.5555 1.5731 49.8807 1.60425C49.2086 1.6354 47.5528 2.70764 47.0025 2.18581C46.4523 1.66657 40.8179 2.58561 39.2244 2.64532C37.6309 2.70763 36.9587 4.36141 36.0088 4.36141C35.0589 4.36141 33.5588 5.15583 32.7646 6.04373C32.5388 6.29556 32.2715 6.38901 31.9834 6.39161C31.2438 6.40459 30.351 5.8516 29.5802 5.82824C28.5083 5.79709 26.8551 6.35008 26.0609 5.46219C25.2642 4.57429 24.7139 4.29909 24.1326 4.57428C23.5512 4.84948 22.4794 7.91297 21.8669 8.80087C21.2544 9.69136 19.5415 10.3041 18.7135 10.3041C17.8856 10.3041 17.7948 11.558 17.1538 12.0798C16.5101 12.5991 16.7567 13.4273 15.9885 14.04C15.2228 14.6527 15.5914 16.5219 15.9885 17.1969C16.3855 17.8693 14.5792 19.9826 13.5411 20.5979C12.5003 21.2106 12.163 22.3737 10.5097 22.6489C9.8661 22.7553 9.38596 23.0331 9.00964 23.3836C8.4205 23.9366 8.10128 24.6843 7.87548 25.284C7.50695 26.2628 5.21269 27.7036 5.11926 29.0822C5.02582 30.4608 2.88208 32.6052 1.47541 35.5441C1.08871 36.3541 0.912236 36.985 0.86552 37.4939C0.746135 38.8283 1.56106 39.3008 2.02562 39.833C2.66926 40.5677 1.53511 41.8528 2.485 43.1691C3.43489 44.4854 2.27219 46.5078 1.81282 47.2425C1.56367 47.6423 1.53772 48.3355 1.45986 49.0443C1.39498 49.6362 1.29377 50.2437 0.984926 50.7032C0.312738 51.7157 1.26002 53.1852 1.75053 53.6447C1.85175 53.7407 1.88289 53.8757 1.87251 54.0367C1.85693 54.3768 1.66487 54.8337 1.60518 55.2855C1.56106 55.6308 1.58962 55.9683 1.84136 56.2512C1.91922 56.3395 1.98671 56.42 2.049 56.4979C2.57326 57.1521 2.64334 57.4792 3.71001 57.7804C4.90386 58.1153 3.61916 58.7306 4.59759 59.3407C4.68843 59.3978 4.76111 59.4575 4.83378 59.5146C5.5423 60.0832 5.48 60.7193 6.3131 61.3294C7.08131 61.8927 8.05715 62.656 8.64369 63.8736C8.75788 64.1125 8.8643 64.3617 8.94476 64.6369C9.43268 66.3218 9.89205 66.6593 10.598 67.2383C10.9172 67.5031 11.5375 67.8951 12.2538 68.3494C13.118 68.8946 14.125 69.5281 14.9451 70.1486C16.4452 71.2805 18.711 72.7837 19.7828 73.1809C19.9256 73.2355 20.0969 73.2562 20.2863 73.2588C21.5321 73.2848 23.7666 72.3761 26.3957 71.9244C28.0385 71.6414 29.4296 71.8725 30.4158 72.1606C31.2515 72.4021 31.7991 72.6799 31.9678 72.7214C32.3364 72.8149 34.9369 71.6206 35.9802 71.0988C36.8133 70.6834 37.7373 70.4212 38.3757 70.0837C38.534 69.998 38.6794 69.9123 38.7961 69.8111C39.0712 69.58 39.5047 69.4424 39.9536 69.3568C40.4571 69.2581 40.984 69.2321 41.3396 69.2321C41.9988 69.2321 42.3959 68.3598 42.754 68.783C42.7618 68.7908 42.7722 68.7934 42.78 68.8038C43.1485 69.2945 44.8926 69.3853 45.871 69.6008C46.852 69.8163 47.8616 71.1923 47.833 71.7141C47.8019 72.2359 48.4767 73.2458 48.9361 73.4899C49.3954 73.7365 50.527 73.0304 51.0486 73.0304C51.5703 73.0304 53.4363 73.0615 53.8049 72.724C53.9113 72.6253 54.0229 72.6383 54.1371 72.7084C54.4096 72.8772 54.6977 73.425 55.0013 73.8585C55.4295 74.4712 56.2549 74.0117 56.5922 74.196C56.9296 74.3804 57.2956 75.8186 57.1736 76.2185C57.0568 76.6027 56.5482 77.5737 56.7843 78.0566C56.7921 78.0747 56.7947 78.1007 56.8077 78.1163C57.1139 78.5758 56.9608 79.2482 56.3172 79.4637C55.6735 79.6792 55.7047 80.2607 56.2237 80.2893C56.543 80.31 56.4703 80.5723 56.3016 80.8345C56.1978 80.998 56.055 81.1642 55.9486 81.2706C55.6735 81.5458 56.5923 81.9145 56.7454 82.3117C56.8985 82.7089 55.5801 82.5869 55.6112 83.171C55.6424 83.7526 55.1519 84.2121 54.7859 84.4873C54.4174 84.7625 55.7644 85.9282 55.7955 86.3254C55.8266 86.7226 56.1329 87.0913 57.2956 88.2258C58.4064 89.3084 57.8744 89.5836 59.3433 90.7778C59.4134 90.835 59.4809 90.8921 59.5613 90.9518C60.4178 91.6164 60.9654 92.3745 61.3365 93.1378C61.7206 93.9296 61.9178 94.7214 62.0736 95.4224C62.0865 95.4873 62.1073 95.56 62.1255 95.6327C62.5018 97.045 63.6749 99.4049 63.9396 99.9579C64.2147 100.539 63.6022 101.059 63.6022 102.134C63.6022 103.208 64.7649 105.166 64.8869 106.482C65.0115 107.798 64.1524 108.627 63.4179 109.483C62.6835 110.34 61.9204 112.269 61.9204 113.463C61.9204 114.658 60.8174 115.823 60.846 116.374C60.8771 116.927 60.6955 118.549 60.5709 119.159C60.5657 119.185 60.5709 119.214 60.5683 119.24C60.5008 119.873 61.0588 121.036 61.7336 121.948C62.4395 122.898 63.2934 124.674 63.7554 126.174C64.2147 127.675 65.5331 129.357 65.868 130.492C66.2053 131.624 65.624 133.249 65.9614 133.983C66.2988 134.718 66.5116 135.972 66.6958 137.231C66.8775 138.488 66.971 141.152 68.1025 142.252C68.5333 142.673 68.9771 143.254 69.3898 143.906C70.062 144.968 70.6459 146.206 70.9522 147.214C71.4401 148.836 72.634 150.368 72.9402 151.316C73.2465 152.266 73.5838 153.154 72.9402 153.245C72.2966 153.338 72.2966 153.888 72.9713 154.929C73.6461 155.971 73.0648 156.583 73.6461 156.705C74.2275 156.827 74.0432 157.193 74.5026 157.227C74.9619 157.258 75.2993 157.715 75.6056 158.115C75.9118 158.515 76.6178 158.515 76.9526 158.024C77.29 157.533 78.3307 157.38 79.4025 157.38C80.4744 157.38 80.259 156.921 81.2997 156.614C82.3404 156.308 83.5966 156.277 84.4842 156.586C85.3718 156.89 86.044 156.614 86.4748 156.342C86.903 156.067 87.7283 156.77 87.7906 156.067C87.8529 155.36 88.7094 155.485 89.5035 155.485C90.2977 155.485 92.2286 154.228 93.7599 152.79C95.2911 151.352 97.8319 148.195 98.691 146.757C99.5474 145.316 100.957 144.09 101.66 143.449C102.187 142.969 102.491 141.274 102.636 140.038C102.683 139.62 102.714 139.256 102.732 139.007C102.792 138.028 102.119 138.823 101.904 138.213C101.689 137.6 103.404 136.468 105.148 135.824C106.895 135.18 107.567 134.814 107.751 134.202C107.933 133.589 107.72 131.875 107.967 131.198C108.211 130.525 107.814 130.128 107.601 128.596C107.385 127.065 106.832 126.818 106.589 125.961C106.342 125.105 106.404 124.432 106.923 124.398C107.445 124.367 107.445 124.123 107.873 123.298C108.301 122.472 108.792 122.807 109.62 122.194C110.445 121.582 110.476 120.816 111.792 119.806C113.108 118.796 114.548 118.827 115.833 118.058C117.12 117.293 119.324 114.291 119.108 113.741C118.896 113.191 118.467 110.709 118.587 109.699C118.709 108.686 118.402 106.023 118.402 104.737C118.402 104.709 118.397 104.686 118.397 104.66C118.338 103.481 116.993 104.005 116.933 102.777C116.871 101.521 116.137 101.521 116.168 100.664C116.199 99.8073 116.261 99.0415 115.955 98.948C115.649 98.8545 115.833 98.1198 116.321 97.3851C116.811 96.6504 115.436 96.5569 115.221 95.6405C115.13 95.2485 115.568 93.9296 116.132 92.4913C116.895 90.5494 117.896 88.3894 118.158 87.9843C118.618 87.2808 119.077 87.4028 119.474 86.9121C119.871 86.4214 119.993 87.1588 120.606 86.1774C120.653 86.1021 120.715 86.0164 120.785 85.9256C121.595 84.843 123.775 82.7582 125.384 81.0629C127.131 79.2248 128.018 78.7965 128.997 78.3058C129.978 77.8151 132.456 75.3955 134.14 73.251C135.202 71.901 136.375 70.403 136.528 69.4243C136.679 68.4429 137.66 67.1578 138.394 66.2076C139.129 65.2574 140.354 62.8377 140.322 62.103C140.291 61.3683 140.935 59.8054 141.028 58.4892C141.119 57.1729 140.016 57.0483 139.681 57.7856L139.676 57.7726Z" fill="#ECF3FE"/>
<path d="M136.891 107.975C136.706 107.293 136.546 107.705 136.386 108.116C136.311 108.311 136.235 108.506 136.156 108.585C135.91 108.829 135.79 109.566 135.85 110.057C135.912 110.548 135.116 111.038 134.628 110.976C134.137 110.914 133.341 111.22 133.587 111.895C133.71 112.236 133.616 112.373 133.531 112.496C133.448 112.616 133.374 112.723 133.525 112.996C133.828 113.549 132.853 114.224 131.994 114.284C131.601 114.312 131.157 114.65 130.702 114.995C130.165 115.402 129.614 115.82 129.118 115.753C128.647 115.69 128.176 115.853 127.722 116.01C127.29 116.159 126.872 116.303 126.484 116.244C126.047 116.175 126.015 116.68 125.975 117.332C125.941 117.868 125.901 118.503 125.625 119.001C125.013 120.102 125.319 121.389 125.869 122.734C126.419 124.082 126.85 125.185 125.379 126.961C123.91 128.739 124.032 130.699 124.582 131.922C124.804 132.416 124.936 133.01 125.068 133.6C125.262 134.471 125.453 135.331 125.929 135.842C126.725 136.699 128.929 137.434 129.601 136.761C129.914 136.448 130.234 136.446 130.564 136.444C130.944 136.442 131.336 136.439 131.745 135.964C132.255 135.369 133.001 132.912 133.759 130.419C134.092 129.323 134.427 128.221 134.745 127.267C135.785 124.144 137.135 120.037 137.01 119.183C136.956 118.799 137.096 118.478 137.235 118.157C137.409 117.759 137.581 117.363 137.379 116.854C137.01 115.935 137.501 114.834 137.929 115.569C138.357 116.303 138.969 116.303 139.154 115.325C139.25 114.803 139.037 114.126 138.806 113.395C138.603 112.75 138.386 112.064 138.357 111.404C138.316 110.482 137.779 109.587 137.361 108.89C137.14 108.521 136.952 108.207 136.888 107.975H136.891Z" fill="#ECF3FE"/>
<path d="M136.891 107.975C136.706 107.293 136.546 107.705 136.386 108.116C136.311 108.311 136.235 108.506 136.156 108.585C135.91 108.829 135.79 109.566 135.85 110.057C135.912 110.548 135.116 111.038 134.628 110.976C134.137 110.914 133.341 111.22 133.587 111.895C133.71 112.236 133.616 112.373 133.531 112.496C133.448 112.616 133.374 112.723 133.525 112.996C133.828 113.549 132.853 114.224 131.994 114.284C131.601 114.312 131.157 114.65 130.702 114.995C130.165 115.402 129.614 115.82 129.118 115.753C128.647 115.69 128.176 115.853 127.722 116.01C127.29 116.159 126.872 116.303 126.484 116.244C126.047 116.175 126.015 116.68 125.975 117.332C125.941 117.868 125.901 118.503 125.625 119.001C125.013 120.102 125.319 121.389 125.869 122.734C126.419 124.082 126.85 125.185 125.379 126.961C123.91 128.739 124.032 130.699 124.582 131.922C124.804 132.416 124.936 133.01 125.068 133.6C125.262 134.471 125.453 135.331 125.929 135.842C126.725 136.699 128.929 137.434 129.601 136.761C129.914 136.448 130.234 136.446 130.564 136.444C130.944 136.442 131.336 136.439 131.745 135.964C132.255 135.369 133.001 132.912 133.759 130.419C134.092 129.323 134.427 128.221 134.745 127.267C135.785 124.144 137.135 120.037 137.01 119.183C136.956 118.799 137.096 118.478 137.235 118.157C137.409 117.759 137.581 117.363 137.379 116.854C137.01 115.935 137.501 114.834 137.929 115.569C138.357 116.303 138.969 116.303 139.154 115.325C139.25 114.803 139.037 114.126 138.806 113.395C138.603 112.75 138.386 112.064 138.357 111.404C138.316 110.482 137.779 109.587 137.361 108.89C137.14 108.521 136.952 108.207 136.888 107.975H136.891Z" stroke="#C2CFE0"/>
</svg>
