<svg width="141" height="107" viewBox="0 0 141 107" fill="none" xmlns="http://www.w3.org/2000/svg">
<path d="M77.8401 13.5203C79.4932 13.5203 82.1273 11.8663 82.1273 11.3756C82.1273 11.1818 82.2895 10.931 82.4595 10.6681C82.7201 10.2653 82.9989 9.8342 82.7398 9.53722C82.3116 9.04647 81.3928 9.7813 81.3928 10.3344C81.3928 10.8201 80.6383 11.1155 79.4174 11.5936C79.2481 11.6599 79.0698 11.7297 78.8833 11.804C78.1295 12.1062 77.0708 11.9398 76.1794 11.7997C75.2634 11.6558 74.5241 11.5396 74.4741 11.9884C74.4144 12.5388 76.1895 13.5203 77.8427 13.5203H77.8401Z" fill="#ECF3FE"/>
<path d="M77.8401 13.5203C79.4932 13.5203 82.1273 11.8663 82.1273 11.3756C82.1273 11.1818 82.2895 10.931 82.4595 10.6681C82.7201 10.2653 82.9989 9.8342 82.7398 9.53722C82.3116 9.04647 81.3928 9.7813 81.3928 10.3344C81.3928 10.8201 80.6383 11.1155 79.4174 11.5936C79.2481 11.6599 79.0698 11.7297 78.8833 11.804C78.1295 12.1062 77.0708 11.9398 76.1794 11.7997C75.2634 11.6558 74.5241 11.5396 74.4741 11.9884C74.4144 12.5388 76.1895 13.5203 77.8427 13.5203H77.8401Z" stroke="#C2CFE0"/>
<path d="M82.8586 8.12445C83.51 8.74314 83.6286 9.31262 83.7053 9.68131C83.7728 10.0058 83.808 10.1748 84.1458 10.0849C85.3084 9.77847 84.452 8.61521 83.4736 8.00242C82.4952 7.38964 81.6362 6.9612 82.8586 8.12445Z" fill="#ECF3FE"/>
<path d="M82.8586 8.12445C83.51 8.74314 83.6286 9.31262 83.7053 9.68131C83.7728 10.0058 83.808 10.1748 84.1458 10.0849C85.3084 9.77847 84.452 8.61521 83.4736 8.00242C82.4952 7.38964 81.6362 6.9612 82.8586 8.12445Z" stroke="#C2CFE0"/>
<path d="M98.5661 18.049C99.0722 17.727 95.7244 15.8912 95.6725 16.4858C95.6283 17.0363 98.0627 18.3709 98.5661 18.049Z" fill="#ECF3FE"/>
<path d="M98.5661 18.049C99.0722 17.727 95.7244 15.8912 95.6725 16.4858C95.6283 17.0363 98.0627 18.3709 98.5661 18.049Z" stroke="#C2CFE0"/>
<path d="M98.2005 20.0248C98.3847 20.944 99.7602 21.4945 100.313 21.1725C100.863 20.8505 98.011 19.0745 98.2005 20.0248Z" fill="#ECF3FE"/>
<path d="M98.2005 20.0248C98.3847 20.944 99.7602 21.4945 100.313 21.1725C100.863 20.8505 98.011 19.0745 98.2005 20.0248Z" stroke="#C2CFE0"/>
<path d="M87.7615 11.8C87.637 12.353 89.6015 15.269 90.3334 14.8042C91.6803 13.9473 87.8835 11.2495 87.7615 11.8Z" fill="#ECF3FE"/>
<path d="M87.7615 11.8C87.637 12.353 89.6015 15.269 90.3334 14.8042C91.6803 13.9473 87.8835 11.2495 87.7615 11.8Z" stroke="#C2CFE0"/>
<path d="M100.36 17.9583C99.9011 18.9684 101.739 20.7158 102.014 20.76C102.289 20.8067 100.716 17.1793 100.36 17.9583Z" fill="#ECF3FE"/>
<path d="M100.36 17.9583C99.9011 18.9684 101.739 20.7158 102.014 20.76C102.289 20.8067 100.716 17.1793 100.36 17.9583Z" stroke="#C2CFE0"/>
<path d="M91.6788 14.3718C91.6321 14.6029 93.1036 16.0258 93.4254 15.7973C93.7472 15.5688 91.7645 13.9563 91.6788 14.3718Z" fill="#ECF3FE"/>
<path d="M91.6788 14.3718C91.6321 14.6029 93.1036 16.0258 93.4254 15.7973C93.7472 15.5688 91.7645 13.9563 91.6788 14.3718Z" stroke="#C2CFE0"/>
<path d="M101.968 22.0421C102.058 22.2706 103.255 23.3742 103.852 22.9613C104.449 22.5485 101.812 21.6501 101.968 22.0421Z" fill="#ECF3FE"/>
<path d="M101.968 22.0421C102.058 22.2706 103.255 23.3742 103.852 22.9613C104.449 22.5485 101.812 21.6501 101.968 22.0421Z" stroke="#C2CFE0"/>
<path d="M49.3351 78.7376C49.8412 79.1971 51.5385 79.0595 51.8135 78.4156C52.0886 77.7716 48.881 78.3247 49.3351 78.7376Z" fill="#ECF3FE"/>
<path d="M49.3351 78.7376C49.8412 79.1971 51.5385 79.0595 51.8135 78.4156C52.0886 77.7716 48.881 78.3247 49.3351 78.7376Z" stroke="#C2CFE0"/>
<path d="M85.0193 60.3166C85.3878 60.0414 84.8376 58.572 84.5132 58.8004C84.1914 59.0289 84.1914 56.5028 84.4224 55.3553C84.6508 54.2052 84.5132 54.3428 83.9163 54.9425C83.3193 55.5396 82.6757 53.795 82.5382 53.3355C82.4006 52.8759 81.7102 51.5882 80.9316 51.7726C80.1504 51.9569 80.6566 50.6692 79.9221 50.8094C79.1876 50.947 79.05 49.7527 79.1876 48.6493C79.3251 47.546 78.6815 48.4209 78.3623 47.9614C78.0405 47.5019 77.6745 47.8679 77.1684 48.0522C76.6623 48.2366 76.5248 47.0891 76.6623 46.6295C76.7999 46.17 76.5715 45.617 75.8812 45.1133C75.1934 44.6071 75.1467 44.1943 75.1934 43.5972C75.2401 43.0001 71.2901 40.9802 70.4181 40.7959C69.546 40.6116 70.2804 39.6925 69.9119 39.3706C69.546 39.0487 69.4058 37.8544 69.4058 36.8445C69.4058 35.8346 68.1211 35.5101 68.1653 34.6845C68.212 33.8563 67.7993 33.0749 67.8902 32.1558C67.981 31.2368 66.5562 31.0083 66.5121 30.5021C66.4654 29.9958 65.6841 30.4553 64.9055 30.5488C64.1243 30.6397 64.1711 29.5363 64.2619 28.4822C64.3527 27.4256 63.9401 25.681 63.2964 25.1747C62.6554 24.6685 62.6087 22.9238 62.2869 22.646C61.9651 22.3708 60.9087 23.5651 60.9555 24.1622C61.0022 24.7593 60.8646 25.4499 60.452 25.816C60.0367 26.182 60.7271 27.6073 60.1743 28.1136C59.6241 28.6198 60.1302 30.6397 59.99 31.7872C59.8525 32.9347 59.8966 34.1756 59.3464 34.9571C58.7962 35.7385 58.7027 36.9795 57.5997 37.3923C56.4993 37.8051 55.0278 36.9328 55.0745 36.3357C55.1212 35.7386 53.8806 35.3699 53.237 35.4634C52.5933 35.5542 52.2274 34.6352 51.2152 33.8537C50.203 33.0723 49.4245 34.0381 49.1026 33.119C48.7808 32.2026 48.459 32.065 47.7245 31.5587C46.9926 31.0524 47.2184 31.0524 47.9088 30.5488C48.5991 30.0425 48.4616 29.3987 48.0931 28.8016C47.7246 28.2044 48.5057 28.342 49.4245 27.8358C50.3432 27.3321 49.4244 26.735 50.1122 26.4572C50.8 26.182 50.3874 25.5849 49.6529 25.4473C48.9184 25.3097 49.1468 26.182 48.8717 26.2729C48.5966 26.3663 48.3215 25.1254 48.0905 25.1721C47.8595 25.2162 46.9901 26.4131 46.5307 25.816C46.0713 25.2188 43.4994 24.7126 42.4872 24.575C41.4776 24.4374 41.1558 23.1523 40.5589 23.3807C39.9619 23.6118 40.6497 24.0246 41.3401 24.7593C42.0278 25.494 39.0432 25.9977 38.1712 25.7251C37.2992 25.4499 38.3087 26.3689 37.5743 26.3222C36.8398 26.2755 36.7022 27.5606 36.1053 28.2044C35.5083 28.8483 35.921 29.3078 35.2774 29.7206C34.6337 30.1334 34.5896 30.5929 35.3708 31.4678C36.152 32.3402 35.0049 32.3869 34.3145 31.6989C33.6268 31.0083 32.9364 31.0083 32.9831 31.7898C33.0272 32.5712 32.1552 32.2052 32.2953 31.3302C32.4329 30.4579 31.3299 30.8707 31.1482 30.3645C30.964 29.8582 29.9985 29.0326 29.4016 29.0768C28.8073 29.1235 28.8072 29.7673 28.2077 29.7673C27.6082 29.7673 27.4732 30.0893 27.5641 30.7305C27.6575 31.3744 26.6454 30.6864 25.9576 30.7773C25.2698 30.8681 25.9576 31.6496 25.5916 31.6963C25.2257 31.7404 25.2257 32.3843 24.6262 32.3843C24.0266 32.3843 24.1201 33.7161 24.2135 34.4067C24.3044 35.0947 23.2948 34.0848 22.6979 34.2691C22.1009 34.4509 22.8354 35.0506 23.0197 35.8294C23.2039 36.6109 22.6979 36.5641 22.376 36.8861C22.0542 37.208 21.5481 36.0138 21.5481 35.3258C21.5481 34.6378 20.7669 35.279 19.9416 36.1514C19.1163 37.0237 20.2167 38.3581 19.8508 38.5866C19.4849 38.815 17.829 40.3779 16.8662 41.528C15.9033 42.6756 13.8348 41.9876 13.1938 42.5406C12.5501 43.0909 11.8624 42.6781 11.2188 43.1844C10.5751 43.6907 9.38124 44.6538 9.24628 44.0567C9.10873 43.4596 7.45556 43.9191 6.7652 44.6539C6.07744 45.3886 4.97439 46.0324 4.1932 46.0791C3.41201 46.1233 3.41201 47.3175 3.09279 47.5953C2.77097 47.8705 2.86183 46.6295 2.86183 46.3102C2.86183 45.9909 2.12734 46.8606 1.80552 47.8264C1.4837 48.7896 2.58674 49.1582 1.89898 50.1681C1.20862 51.1806 0.564941 52.188 1.533 53.4757C2.49586 54.7634 3.04609 55.589 2.72687 56.2328C2.40505 56.8767 1.71728 54.9477 1.4863 55.1761C1.25791 55.4072 2.35834 56.2328 2.08323 56.6456C1.80813 57.0584 0.819273 55.0827 0.614242 55.5448C0.429975 55.9576 2.68015 59.0808 2.72687 60.2309C2.77359 61.3784 4.56435 62.4818 4.47352 64.1356C4.38008 65.7893 6.03332 68.4556 6.31102 68.8658C6.58613 69.2786 5.66738 70.382 5.85165 71.623C6.03591 72.8639 5.43896 73.3234 4.65777 73.3234C3.87658 73.3234 4.33598 74.6112 5.20801 74.702C6.08004 74.7955 5.76077 75.3926 6.72364 76.0365C7.6891 76.6803 9.98338 76.4493 10.7646 76.4493C11.5458 76.4493 11.7741 75.255 12.8304 75.2109C13.8867 75.1641 13.7933 74.8422 14.2994 74.1984C14.8055 73.5545 17.1932 73.7388 19.6276 73.8764C22.062 74.014 23.1183 73.2793 23.4842 72.2668C23.7983 71.4049 25.5501 71.3478 26.2404 70.7065C26.9282 70.0627 27.5277 70.0185 29.3185 70.1094C31.1093 70.2028 32.7625 69.2371 33.9122 68.7775C35.0594 68.318 37.1746 68.5023 38.275 68.2271C39.378 67.9494 39.5597 69.6057 40.8002 69.4655C42.0408 69.3279 42.591 69.8342 43.2346 69.7875C43.8756 69.7433 43.7848 70.247 44.4285 70.3846C45.0721 70.5222 44.9787 71.0752 44.566 71.6723C44.1508 72.2694 45.5289 72.2227 46.4035 73.4169C47.2756 74.6111 46.4502 74.7955 46.9096 75.7145C47.369 76.6336 47.6908 76.4025 48.6096 75.1174C49.5283 73.8323 50.5379 74.6579 50.6754 73.5545C50.813 72.4511 51.7784 71.166 52.4221 71.7164C53.0657 72.2668 51.9627 72.542 51.55 74.6579C51.1374 76.7712 50.4029 75.6678 50.2654 76.2649C50.1278 76.862 52.1937 77.184 52.1937 76.0806C52.1937 74.9772 52.5622 74.4736 53.3408 75.4835C54.122 76.496 52.8814 77.3216 53.0657 77.7811C53.25 78.2406 54.122 77.6435 54.5814 77.6902C55.3989 77.7707 56.5097 79.5725 56.3255 80.5382C56.1438 81.5014 55.8661 82.4205 57.4285 83.2019C58.9883 83.9834 58.3939 84.121 59.541 84.121C60.6882 84.121 63.0785 85.04 63.7195 85.5904C64.3632 86.1408 66.0163 85.1776 66.3356 84.0742C66.6574 82.9735 67.8512 84.0275 67.2076 84.3962C66.564 84.7648 67.5294 85.6371 67.5761 85.04C67.6202 84.4429 67.898 83.9366 68.1264 84.6272C68.3548 85.3152 69.1827 85.3152 69.5045 85.8656C69.8263 86.416 70.1922 86.8314 70.1922 86.3718C70.1922 85.9123 70.3739 85.4995 71.111 85.2243C71.8455 84.9491 72.3048 84.4429 73.086 83.799C73.8672 83.1552 77.0828 83.0176 77.4046 83.0176C77.7265 83.0176 77.9107 80.2604 78.0924 78.8377C78.2766 77.4124 79.4705 77.184 79.6522 75.6678C79.8364 74.1516 81.4429 71.3478 81.8582 71.2128C82.2734 71.0752 83.052 70.6624 83.0988 69.7875C83.1455 68.9151 84.2018 67.9494 84.2018 66.8927C84.2018 65.8361 84.7987 64.5951 84.7078 64.2732C84.617 63.9512 84.2485 62.9387 84.9389 62.2066C85.6266 61.4719 84.6611 60.5996 85.0297 60.3218L85.0193 60.3166Z" fill="#ECF3FE"/>
<path d="M36.3392 24.9841C36.7986 25.3502 39.0953 24.8932 39.0045 24.3402C38.9111 23.7897 35.6437 24.4258 36.3392 24.9841Z" fill="#ECF3FE"/>
<path d="M36.3392 24.9841C36.7986 25.3502 39.0953 24.8932 39.0045 24.3402C38.9111 23.7897 35.6437 24.4258 36.3392 24.9841Z" stroke="#C2CFE0"/>
<path d="M70.0928 91.51C69.3525 91.5921 68.3912 91.174 67.6438 90.8488C67.1388 90.6292 66.7314 90.452 66.5556 90.5001C66.3383 90.5592 66.6042 91.1771 66.9274 91.9285C67.3571 92.9273 67.8883 94.1618 67.521 94.6329C66.88 95.461 69.4025 97.7118 70.2771 97.8494C70.758 97.9252 70.8758 97.6521 70.9848 97.3993C71.0735 97.1937 71.1564 97.0015 71.4241 97.0213C71.8547 97.055 71.8558 96.7294 71.8571 96.3729C71.8576 96.2351 71.8582 96.0927 71.8835 95.9647C71.927 95.7445 72.0868 95.8516 72.2971 95.9926C72.5256 96.1458 72.8138 96.339 73.0773 96.1957C73.3074 96.0706 73.2998 95.594 73.2921 95.1114C73.2829 94.5326 73.2736 93.945 73.6741 93.945C74.4086 93.945 73.8117 91.5567 73.5807 90.7753C73.4417 90.2994 72.6374 90.6237 71.7496 90.9817C71.1797 91.2115 70.5753 91.4552 70.0902 91.51H70.0928Z" fill="#ECF3FE"/>
<path d="M70.0928 91.51C69.3525 91.5921 68.3912 91.174 67.6438 90.8488C67.1388 90.6292 66.7314 90.452 66.5556 90.5001C66.3383 90.5592 66.6042 91.1771 66.9274 91.9285C67.3571 92.9273 67.8883 94.1618 67.521 94.6329C66.88 95.461 69.4025 97.7118 70.2771 97.8494C70.758 97.9252 70.8758 97.6521 70.9848 97.3993C71.0735 97.1937 71.1564 97.0015 71.4241 97.0213C71.8547 97.055 71.8558 96.7294 71.8571 96.3729C71.8576 96.2351 71.8582 96.0927 71.8835 95.9647C71.927 95.7445 72.0868 95.8516 72.2971 95.9926C72.5256 96.1458 72.8138 96.339 73.0773 96.1957C73.3074 96.0706 73.2998 95.594 73.2921 95.1114C73.2829 94.5326 73.2736 93.945 73.6741 93.945C74.4086 93.945 73.8117 91.5567 73.5807 90.7753C73.4417 90.2994 72.6374 90.6237 71.7496 90.9817C71.1797 91.2115 70.5753 91.4552 70.0902 91.51H70.0928Z" stroke="#C2CFE0"/>
<path d="M114.552 106.947C114.874 107.038 115.93 106.763 115.333 106.028C114.736 105.293 113.794 106.729 114.552 106.947Z" fill="#ECF3FE"/>
<path d="M114.552 106.947C114.874 107.038 115.93 106.763 115.333 106.028C114.736 105.293 113.794 106.729 114.552 106.947Z" stroke="#C2CFE0"/>
<path d="M135.309 83.703C135.054 84.1293 134.638 83.9566 134.174 83.7635C133.89 83.6449 133.586 83.5187 133.29 83.5187C132.512 83.5187 132.05 82.9683 132.05 82.2777C132.05 81.5871 131.865 80.5772 131.131 80.624C130.718 80.6502 130.842 80.8938 130.98 81.1671C131.088 81.3801 131.205 81.6112 131.084 81.7715C130.931 81.9766 130.806 81.8256 130.662 81.6513C130.547 81.5124 130.42 81.3587 130.256 81.3587C129.888 81.3587 129.475 80.8525 129.475 79.9334C129.475 79.4899 129.293 79.2822 129.105 79.0672C128.903 78.8367 128.694 78.5979 128.694 78.0512C128.694 76.9945 127.041 76.1689 126.122 76.1689C125.204 76.1689 126.307 77.8227 126.766 78.3731C126.946 78.5894 127.212 78.7989 127.466 78.9986C127.857 79.307 128.219 79.592 128.191 79.8425C128.144 80.2553 128.878 81.3119 129.431 81.4963C129.745 81.6015 129.596 82.1704 129.41 82.8789C129.27 83.4114 129.109 84.0228 129.109 84.5753C129.109 85.3811 128.714 85.5922 128.25 85.8402C127.972 85.9886 127.67 86.1502 127.412 86.4602C126.939 87.0279 127.941 87.5968 128.943 88.1653C129.397 88.4235 129.852 88.6816 130.168 88.9395C130.805 89.4608 130.297 90.4592 129.9 91.2389C129.666 91.6982 129.471 92.0816 129.571 92.2471C129.709 92.4755 130.397 92.7975 131.455 92.5223C132.086 92.3581 132.519 91.4742 132.922 90.651C133.195 90.0943 133.455 89.5654 133.752 89.3056C134.184 88.9287 134.203 88.4235 134.22 87.9683C134.233 87.649 134.244 87.3543 134.396 87.1456C134.733 86.6788 135.19 86.6821 135.655 86.6855C135.695 86.6858 135.734 86.686 135.774 86.686C136.012 86.686 136.077 86.4113 136.146 86.1204C136.224 85.793 136.306 85.4451 136.646 85.4451C137.036 85.4451 137.07 85.1221 137.121 84.6516C137.153 84.3489 137.192 83.9851 137.336 83.607C137.702 82.6412 135.727 83.0099 135.314 83.6979L135.309 83.703Z" fill="#ECF3FE"/>
<path d="M135.309 83.703C135.054 84.1293 134.638 83.9566 134.174 83.7635C133.89 83.6449 133.586 83.5187 133.29 83.5187C132.512 83.5187 132.05 82.9683 132.05 82.2777C132.05 81.5871 131.865 80.5772 131.131 80.624C130.718 80.6502 130.842 80.8938 130.98 81.1671C131.088 81.3801 131.205 81.6112 131.084 81.7715C130.931 81.9766 130.806 81.8256 130.662 81.6513C130.547 81.5124 130.42 81.3587 130.256 81.3587C129.888 81.3587 129.475 80.8525 129.475 79.9334C129.475 79.4899 129.293 79.2822 129.105 79.0672C128.903 78.8367 128.694 78.5979 128.694 78.0512C128.694 76.9945 127.041 76.1689 126.122 76.1689C125.204 76.1689 126.307 77.8227 126.766 78.3731C126.946 78.5894 127.212 78.7989 127.466 78.9986C127.857 79.307 128.219 79.592 128.191 79.8425C128.144 80.2553 128.878 81.3119 129.431 81.4963C129.745 81.6015 129.596 82.1704 129.41 82.8789C129.27 83.4114 129.109 84.0228 129.109 84.5753C129.109 85.3811 128.714 85.5922 128.25 85.8402C127.972 85.9886 127.67 86.1502 127.412 86.4602C126.939 87.0279 127.941 87.5968 128.943 88.1653C129.397 88.4235 129.852 88.6816 130.168 88.9395C130.805 89.4608 130.297 90.4592 129.9 91.2389C129.666 91.6982 129.471 92.0816 129.571 92.2471C129.709 92.4755 130.397 92.7975 131.455 92.5223C132.086 92.3581 132.519 91.4742 132.922 90.651C133.195 90.0943 133.455 89.5654 133.752 89.3056C134.184 88.9287 134.203 88.4235 134.22 87.9683C134.233 87.649 134.244 87.3543 134.396 87.1456C134.733 86.6788 135.19 86.6821 135.655 86.6855C135.695 86.6858 135.734 86.686 135.774 86.686C136.012 86.686 136.077 86.4113 136.146 86.1204C136.224 85.793 136.306 85.4451 136.646 85.4451C137.036 85.4451 137.07 85.1221 137.121 84.6516C137.153 84.3489 137.192 83.9851 137.336 83.607C137.702 82.6412 135.727 83.0099 135.314 83.6979L135.309 83.703Z" stroke="#C2CFE0"/>
<path d="M127.819 91.0989C127.375 90.7802 127.084 90.9922 126.717 91.2594C126.555 91.3776 126.378 91.5065 126.166 91.6051C125.857 91.7491 125.595 91.4611 125.322 91.1605C124.984 90.7888 124.628 90.3977 124.144 90.7795C123.718 91.1157 123.687 91.3532 123.654 91.6049C123.619 91.8684 123.582 92.1473 123.088 92.5709C122.559 93.0244 122.445 93.3114 122.26 93.7728C122.108 94.1539 121.908 94.6541 121.388 95.4656C120.729 96.4952 119.144 97.2666 117.802 97.9198C116.809 98.4032 115.948 98.822 115.694 99.2327C115.415 99.6852 114.833 100.097 114.288 100.483C113.67 100.92 113.101 101.323 113.076 101.712C113.06 101.983 112.885 102.227 112.706 102.475C112.402 102.899 112.086 103.339 112.526 103.963C112.822 104.383 113.171 104.417 113.523 104.452C113.827 104.482 114.133 104.512 114.41 104.789C114.719 105.098 115.029 105.112 115.294 105.123C115.539 105.134 115.746 105.143 115.879 105.386C116.154 105.892 118.173 105.892 119.688 104.513C120.61 103.675 120.7 103.108 120.763 102.71C120.803 102.453 120.833 102.267 121.066 102.122C121.451 101.886 121.626 101.345 121.8 100.804C121.896 100.506 121.992 100.208 122.123 99.9622C122.145 99.9204 122.167 99.8783 122.189 99.8363C122.528 99.1873 122.867 98.5369 124.419 98.5369C125.577 98.5369 125.496 98.3791 125.312 98.0172C125.233 97.8621 125.135 97.6697 125.107 97.4361C125.064 97.0628 125.376 96.8364 125.715 96.5914C126.085 96.3235 126.485 96.0334 126.485 95.5046C126.485 95.0194 126.949 94.5562 127.387 94.1194C127.863 93.6447 128.308 93.2011 128.092 92.7942C127.897 92.4256 127.967 92.1292 128.029 91.8705C128.098 91.5806 128.155 91.3379 127.817 91.0937L127.819 91.0989Z" fill="#ECF3FE"/>
<path d="M127.819 91.0989C127.375 90.7802 127.084 90.9922 126.717 91.2594C126.555 91.3776 126.378 91.5065 126.166 91.6051C125.857 91.7491 125.595 91.4611 125.322 91.1605C124.984 90.7888 124.628 90.3977 124.144 90.7795C123.718 91.1157 123.687 91.3532 123.654 91.6049C123.619 91.8684 123.582 92.1473 123.088 92.5709C122.559 93.0244 122.445 93.3114 122.26 93.7728C122.108 94.1539 121.908 94.6541 121.388 95.4656C120.729 96.4952 119.144 97.2666 117.802 97.9198C116.809 98.4032 115.948 98.822 115.694 99.2327C115.415 99.6852 114.833 100.097 114.288 100.483C113.67 100.92 113.101 101.323 113.076 101.712C113.06 101.983 112.885 102.227 112.706 102.475C112.402 102.899 112.086 103.339 112.526 103.963C112.822 104.383 113.171 104.417 113.523 104.452C113.827 104.482 114.133 104.512 114.41 104.789C114.719 105.098 115.029 105.112 115.294 105.123C115.539 105.134 115.746 105.143 115.879 105.386C116.154 105.892 118.173 105.892 119.688 104.513C120.61 103.675 120.7 103.108 120.763 102.71C120.803 102.453 120.833 102.267 121.066 102.122C121.451 101.886 121.626 101.345 121.8 100.804C121.896 100.506 121.992 100.208 122.123 99.9622C122.145 99.9204 122.167 99.8783 122.189 99.8363C122.528 99.1873 122.867 98.5369 124.419 98.5369C125.577 98.5369 125.496 98.3791 125.312 98.0172C125.233 97.8621 125.135 97.6697 125.107 97.4361C125.064 97.0628 125.376 96.8364 125.715 96.5914C126.085 96.3235 126.485 96.0334 126.485 95.5046C126.485 95.0194 126.949 94.5562 127.387 94.1194C127.863 93.6447 128.308 93.2011 128.092 92.7942C127.897 92.4256 127.967 92.1292 128.029 91.8705C128.098 91.5806 128.155 91.3379 127.817 91.0937L127.819 91.0989Z" stroke="#C2CFE0"/>
<path d="M135.173 38.6304C135.954 39.3652 137.514 39.3185 137.561 37.9865C137.607 36.6518 134.478 37.9735 135.173 38.6304Z" fill="#ECF3FE"/>
<path d="M135.173 38.6304C135.954 39.3652 137.514 39.3185 137.561 37.9865C137.607 36.6518 134.478 37.9735 135.173 38.6304Z" stroke="#C2CFE0"/>
<path d="M138.02 36.1944C138.526 36.3788 140.179 35.8283 140.179 35.0468C140.179 34.2652 137.257 35.9192 138.02 36.1944Z" fill="#ECF3FE"/>
<path d="M138.02 36.1944C138.526 36.3788 140.179 35.8283 140.179 35.0468C140.179 34.2652 137.257 35.9192 138.02 36.1944Z" stroke="#C2CFE0"/>
<path d="M113.416 47.7734C114.15 47.2852 107.289 42.8451 107.416 43.6085C107.538 44.3433 112.681 48.2641 113.416 47.7734Z" fill="#ECF3FE"/>
<path d="M113.416 47.7734C114.15 47.2852 107.289 42.8451 107.416 43.6085C107.538 44.3433 112.681 48.2641 113.416 47.7734Z" stroke="#C2CFE0"/>
<path d="M39.1379 3.28614C39.756 3.28614 39.8946 3.65495 40.0966 4.19252C40.1549 4.34782 40.2185 4.51721 40.3006 4.69587C40.5954 5.33341 42.0642 5.10715 43.0161 4.96051C43.2543 4.92383 43.46 4.89213 43.607 4.88019C44.3415 4.81788 44.4635 5.85896 43.4253 5.4929C42.8468 5.2894 42.5899 5.46299 42.3491 5.62563C42.1568 5.75556 41.9748 5.8785 41.6475 5.79664C40.913 5.61232 39.932 5.67462 40.4225 6.10299C40.505 6.17502 40.5961 6.24712 40.6905 6.32188C41.1577 6.69177 41.7072 7.1269 41.7072 7.94109C41.7072 8.91985 43.1164 8.73812 43.1164 7.94109C43.1164 7.48953 43.3522 7.62881 43.8129 7.90095C44.1653 8.10915 44.6494 8.39512 45.2602 8.55379C45.9415 8.73203 46.0642 8.95275 46.1683 9.14025C46.2796 9.34056 46.3698 9.50295 47.0977 9.53513C48.5044 9.59744 51.6888 10.6385 52.9164 11.5576C53.5991 12.0697 53.6345 12.4868 53.67 12.9044C53.6981 13.2361 53.7263 13.5682 54.0791 13.9486C54.8758 14.8054 55.1198 15.7867 54.0168 15.7867C52.9138 15.7867 51.7511 16.8875 52.0573 17.4405C52.2658 17.8184 54.0351 17.5624 55.401 17.3648C56.0247 17.2745 56.5643 17.1965 56.8327 17.1965C57.1463 17.1965 57.4616 17.5084 57.8674 17.9101C58.1871 18.2265 58.5631 18.5986 59.0388 18.9177C59.6071 19.2994 60.3131 19.6057 61.2422 19.6473C63.1359 19.733 63.3663 19.0016 63.5055 18.5595C63.5643 18.3727 63.6069 18.2375 63.7518 18.2375C64.0574 18.2375 64.2449 17.9014 64.4776 17.4844C64.6164 17.2356 64.7712 16.958 64.9768 16.7058C65.5296 16.0334 67.9173 16.5838 69.324 17.6845C69.826 18.0776 70.3587 18.7428 70.903 19.4225C71.8866 20.6509 72.9081 21.9266 73.8555 21.7294C74.6718 21.5595 75.5057 21.8417 76.3164 22.1161C76.9671 22.3364 77.6029 22.5516 78.2026 22.5238C79.5496 22.4615 78.3246 21.423 77.8963 21.2387C77.4681 21.0544 76.3677 20.3197 76.4274 19.829C76.462 19.558 76.0805 19.4559 75.5876 19.3239C75.1929 19.2183 74.7268 19.0936 74.346 18.8476C73.9305 18.5806 73.788 18.0252 73.6469 17.4748C73.4971 16.8907 73.3487 16.3124 72.877 16.0905C71.9583 15.6621 71.2835 14.3147 72.3865 14.3744C73.4869 14.4367 73.6738 13.824 72.8173 13.027C72.4731 12.7067 71.7625 12.4656 71.0277 12.2163C69.9342 11.8453 68.7871 11.4562 68.7141 10.7605C68.5921 9.59485 63.02 6.84031 60.57 6.28733C60.134 6.19127 59.6097 6.03029 59.0388 5.83818C58.0143 5.49323 56.8342 5.03558 55.728 4.6066C53.9701 3.9249 52.3989 3.31557 51.9353 3.34585C51.4644 3.37779 51.2028 3.8115 50.9524 4.2267C50.7143 4.62152 50.4863 4.99962 50.0979 4.99962C49.711 4.99962 49.2526 5.38948 48.7149 5.84678C48.1451 6.33134 47.4862 6.89162 46.7292 7.14406C45.7877 7.45689 45.424 5.63249 45.1066 4.04C44.9288 3.14782 44.7655 2.32844 44.5232 1.99843C43.851 1.07939 40.176 0.34467 39.81 1.38574C39.6192 1.92614 39.1848 2.03846 38.7919 2.14007C38.426 2.2347 38.0961 2.32003 38.0323 2.73316C37.9364 3.35929 38.1802 3.34133 38.6754 3.30484C38.8105 3.29488 38.9644 3.28354 39.1353 3.28354L39.1379 3.28614Z" fill="#ECF3FE"/>
<path d="M39.1379 3.28614C39.756 3.28614 39.8946 3.65495 40.0966 4.19252C40.1549 4.34782 40.2185 4.51721 40.3006 4.69587C40.5954 5.33341 42.0642 5.10715 43.0161 4.96051C43.2543 4.92383 43.46 4.89213 43.607 4.88019C44.3415 4.81788 44.4635 5.85896 43.4253 5.4929C42.8468 5.2894 42.5899 5.46299 42.3491 5.62563C42.1568 5.75556 41.9748 5.8785 41.6475 5.79664C40.913 5.61232 39.932 5.67462 40.4225 6.10299C40.505 6.17502 40.5961 6.24712 40.6905 6.32188C41.1577 6.69177 41.7072 7.1269 41.7072 7.94109C41.7072 8.91985 43.1164 8.73812 43.1164 7.94109C43.1164 7.48953 43.3522 7.62881 43.8129 7.90095C44.1653 8.10915 44.6494 8.39512 45.2602 8.55379C45.9415 8.73203 46.0642 8.95275 46.1683 9.14025C46.2796 9.34056 46.3698 9.50295 47.0977 9.53513C48.5044 9.59744 51.6888 10.6385 52.9164 11.5576C53.5991 12.0697 53.6345 12.4868 53.67 12.9044C53.6981 13.2361 53.7263 13.5682 54.0791 13.9486C54.8758 14.8054 55.1198 15.7867 54.0168 15.7867C52.9138 15.7867 51.7511 16.8875 52.0573 17.4405C52.2658 17.8184 54.0351 17.5624 55.401 17.3648C56.0247 17.2745 56.5643 17.1965 56.8327 17.1965C57.1463 17.1965 57.4616 17.5084 57.8674 17.9101C58.1871 18.2265 58.5631 18.5986 59.0388 18.9177C59.6071 19.2994 60.3131 19.6057 61.2422 19.6473C63.1359 19.733 63.3663 19.0016 63.5055 18.5595C63.5643 18.3727 63.6069 18.2375 63.7518 18.2375C64.0574 18.2375 64.2449 17.9014 64.4776 17.4844C64.6164 17.2356 64.7712 16.958 64.9768 16.7058C65.5296 16.0334 67.9173 16.5838 69.324 17.6845C69.826 18.0776 70.3587 18.7428 70.903 19.4225C71.8866 20.6509 72.9081 21.9266 73.8555 21.7294C74.6718 21.5595 75.5057 21.8417 76.3164 22.1161C76.9671 22.3364 77.6029 22.5516 78.2026 22.5238C79.5496 22.4615 78.3246 21.423 77.8963 21.2387C77.4681 21.0544 76.3677 20.3197 76.4274 19.829C76.462 19.558 76.0805 19.4559 75.5876 19.3239C75.1929 19.2183 74.7268 19.0936 74.346 18.8476C73.9305 18.5806 73.788 18.0252 73.6469 17.4748C73.4971 16.8907 73.3487 16.3124 72.877 16.0905C71.9583 15.6621 71.2835 14.3147 72.3865 14.3744C73.4869 14.4367 73.6738 13.824 72.8173 13.027C72.4731 12.7067 71.7625 12.4656 71.0277 12.2163C69.9342 11.8453 68.7871 11.4562 68.7141 10.7605C68.5921 9.59485 63.02 6.84031 60.57 6.28733C60.134 6.19127 59.6097 6.03029 59.0388 5.83818C58.0143 5.49323 56.8342 5.03558 55.728 4.6066C53.9701 3.9249 52.3989 3.31557 51.9353 3.34585C51.4644 3.37779 51.2028 3.8115 50.9524 4.2267C50.7143 4.62152 50.4863 4.99962 50.0979 4.99962C49.711 4.99962 49.2526 5.38948 48.7149 5.84678C48.1451 6.33134 47.4862 6.89162 46.7292 7.14406C45.7877 7.45689 45.424 5.63249 45.1066 4.04C44.9288 3.14782 44.7655 2.32844 44.5232 1.99843C43.851 1.07939 40.176 0.34467 39.81 1.38574C39.6192 1.92614 39.1848 2.03846 38.7919 2.14007C38.426 2.2347 38.0961 2.32003 38.0323 2.73316C37.9364 3.35929 38.1802 3.34133 38.6754 3.30484C38.8105 3.29488 38.9644 3.28354 39.1353 3.28354L39.1379 3.28614Z" stroke="#C2CFE0"/>
</svg>
