<svg width="194" height="151" viewBox="0 0 194 151" fill="none" xmlns="http://www.w3.org/2000/svg">
<path d="M69.5144 134.724C70.402 134.602 70.28 130.894 69.9426 130.865C69.7821 130.851 69.6773 130.982 69.5194 131.179C69.3454 131.397 69.1068 131.695 68.658 131.969C67.8016 132.491 68.6658 134.841 69.5144 134.726V134.724Z" fill="#ECF3FE"/>
<path d="M69.5144 134.724C70.402 134.602 70.28 130.894 69.9426 130.865C69.7821 130.851 69.6773 130.982 69.5194 131.179C69.3454 131.397 69.1068 131.695 68.658 131.969C67.8016 132.491 68.6658 134.841 69.5144 134.726V134.724Z" stroke="#C2CFE0"/>
<path d="M55.4618 139.684C56.3805 140.297 57.4211 140.112 57.268 139.071C57.1149 138.03 55.0102 139.383 55.4618 139.684Z" fill="#ECF3FE"/>
<path d="M55.4618 139.684C56.3805 140.297 57.4211 140.112 57.268 139.071C57.1149 138.03 55.0102 139.383 55.4618 139.684Z" stroke="#C2CFE0"/>
<path d="M102.608 149.39C102.404 149.275 101.903 149.288 101.345 149.302C100.564 149.322 99.6723 149.345 99.3331 149.024C98.7517 148.473 97.5631 149.457 98.077 149.543C98.3519 149.589 98.6783 149.708 99.0419 149.84C99.6497 150.061 100.361 150.32 101.108 150.338C102.302 150.369 103.924 149.787 103.895 149.481C103.88 149.334 103.697 149.37 103.457 149.417C103.195 149.469 102.864 149.534 102.608 149.39Z" fill="#ECF3FE"/>
<path d="M102.608 149.39C102.404 149.275 101.903 149.288 101.345 149.302C100.564 149.322 99.6723 149.345 99.3331 149.024C98.7517 148.473 97.5631 149.457 98.077 149.543C98.3519 149.589 98.6783 149.708 99.0419 149.84C99.6497 150.061 100.361 150.32 101.108 150.338C102.302 150.369 103.924 149.787 103.895 149.481C103.88 149.334 103.697 149.37 103.457 149.417C103.195 149.469 102.864 149.534 102.608 149.39Z" stroke="#C2CFE0"/>
<path d="M20.8373 65.0486C20.1028 65.0486 19.55 64.4671 19.7057 64.0388C19.7952 63.7868 19.6434 63.494 19.5081 63.2331C19.412 63.0477 19.3242 62.8784 19.3372 62.7512C19.3632 62.472 18.5787 62.6758 18.0682 62.8085C18.0185 62.8214 17.9714 62.8336 17.9279 62.8446C17.6954 62.9028 17.3373 62.6343 16.9764 62.3637C16.5801 62.0665 16.1803 61.7668 15.9399 61.8945C15.6472 62.0516 15.6769 62.3689 15.7055 62.6739C15.7217 62.8475 15.7376 63.0172 15.6934 63.151C15.6335 63.3319 15.3377 63.2539 15.0522 63.1785C14.7561 63.1003 14.4709 63.0251 14.4709 63.2444C14.4709 63.6754 14.0116 63.7325 13.643 63.2756C13.2745 62.8161 12.4181 63.0913 12.4492 63.4599C12.4758 63.7747 12.19 63.5972 11.6662 63.2718C11.5767 63.2162 11.4803 63.1563 11.3773 63.0939C10.6714 62.6655 9.93692 63.5845 9.99921 64.044C10.0615 64.5035 9.75267 64.6255 9.17391 63.613C8.59256 62.6032 7.91777 63.7039 8.22402 64.2569C8.53026 64.8072 8.40827 65.4796 7.9489 65.2044C7.48952 64.9292 6.87704 65.3887 6.60194 65.817C6.32684 66.2454 5.3458 64.5606 6.05173 64.1634C6.75506 63.7662 3.81715 62.0788 2.89841 62.0788C1.97967 62.0788 2.59218 62.7538 3.20467 63.2444C3.81717 63.7325 2.77383 63.6105 2.43903 63.1821C2.10164 62.7538 1.45802 63.0913 1.09208 63.7039C0.929111 63.9767 0.716732 64.195 0.525999 64.391C0.28844 64.6352 0.0844602 64.8448 0.051351 65.0824C-0.0109367 65.5107 1.09208 65.9702 2.03938 65.573C2.98926 65.1758 4.06111 65.1135 4.55163 65.573C4.80478 65.8102 4.56022 65.974 4.33132 66.1274C4.11669 66.2712 3.91583 66.4057 4.15194 66.5829C4.64246 66.9515 4.24537 67.2578 3.08267 67.1644C1.91996 67.0735 0.510716 67.4084 0.726128 67.8082C0.833737 68.009 1.59164 67.9204 2.31871 67.8355C3.02956 67.7524 3.71094 67.6728 3.72633 67.8705C3.72905 67.9053 3.73129 67.9423 3.73361 67.9805C3.75787 68.3801 3.79039 68.9159 4.4608 68.6363C4.89377 68.4572 4.90105 68.6805 4.90902 68.9254C4.91458 69.0959 4.92047 69.2769 5.07069 69.3398C5.43923 69.493 5.34581 70.2276 4.36737 70.2899C3.38634 70.3522 2.9088 70.5469 3.32665 70.9623C3.77857 71.4143 4.64343 71.1981 5.54156 70.9735C5.68015 70.9389 5.81953 70.904 5.9583 70.8714C6.65637 70.706 7.56112 71.2168 8.45089 71.7192C8.88765 71.9658 9.32079 72.2104 9.72412 72.3719C10.9491 72.8625 13.0617 72.1876 13.3056 71.5438C13.4447 71.1807 14.0312 71.1 14.6369 71.0167C15.105 70.9523 15.5846 70.8863 15.8776 70.6871C16.5498 70.2276 17.4685 69.6773 18.665 69.615C19.3788 69.5793 19.6547 69.0944 19.866 68.723C20.0081 68.4732 20.121 68.2748 20.3182 68.2988C20.8087 68.3611 21.6029 67.3798 21.9117 66.7672C22.218 66.1545 21.5743 65.0538 20.8399 65.0538L20.8373 65.0486Z" fill="#ECF3FE"/>
<path d="M20.8373 65.0486C20.1028 65.0486 19.55 64.4671 19.7057 64.0388C19.7952 63.7868 19.6434 63.494 19.5081 63.2331C19.412 63.0477 19.3242 62.8784 19.3372 62.7512C19.3632 62.472 18.5787 62.6758 18.0682 62.8085C18.0185 62.8214 17.9714 62.8336 17.9279 62.8446C17.6954 62.9028 17.3373 62.6343 16.9764 62.3637C16.5801 62.0665 16.1803 61.7668 15.9399 61.8945C15.6472 62.0516 15.6769 62.3689 15.7055 62.6739C15.7217 62.8475 15.7376 63.0172 15.6934 63.151C15.6335 63.3319 15.3377 63.2539 15.0522 63.1785C14.7561 63.1003 14.4709 63.0251 14.4709 63.2444C14.4709 63.6754 14.0116 63.7325 13.643 63.2756C13.2745 62.8161 12.4181 63.0913 12.4492 63.4599C12.4758 63.7747 12.19 63.5972 11.6662 63.2718C11.5767 63.2162 11.4803 63.1563 11.3773 63.0939C10.6714 62.6655 9.93692 63.5845 9.99921 64.044C10.0615 64.5035 9.75267 64.6255 9.17391 63.613C8.59256 62.6032 7.91777 63.7039 8.22402 64.2569C8.53026 64.8072 8.40827 65.4796 7.9489 65.2044C7.48952 64.9292 6.87704 65.3887 6.60194 65.817C6.32684 66.2454 5.3458 64.5606 6.05173 64.1634C6.75506 63.7662 3.81715 62.0788 2.89841 62.0788C1.97967 62.0788 2.59218 62.7538 3.20467 63.2444C3.81717 63.7325 2.77383 63.6105 2.43903 63.1821C2.10164 62.7538 1.45802 63.0913 1.09208 63.7039C0.929111 63.9767 0.716732 64.195 0.525999 64.391C0.28844 64.6352 0.0844602 64.8448 0.051351 65.0824C-0.0109367 65.5107 1.09208 65.9702 2.03938 65.573C2.98926 65.1758 4.06111 65.1135 4.55163 65.573C4.80478 65.8102 4.56022 65.974 4.33132 66.1274C4.11669 66.2712 3.91583 66.4057 4.15194 66.5829C4.64246 66.9515 4.24537 67.2578 3.08267 67.1644C1.91996 67.0735 0.510716 67.4084 0.726128 67.8082C0.833737 68.009 1.59164 67.9204 2.31871 67.8355C3.02956 67.7524 3.71094 67.6728 3.72633 67.8705C3.72905 67.9053 3.73129 67.9423 3.73361 67.9805C3.75787 68.3801 3.79039 68.9159 4.4608 68.6363C4.89377 68.4572 4.90105 68.6805 4.90902 68.9254C4.91458 69.0959 4.92047 69.2769 5.07069 69.3398C5.43923 69.493 5.34581 70.2276 4.36737 70.2899C3.38634 70.3522 2.9088 70.5469 3.32665 70.9623C3.77857 71.4143 4.64343 71.1981 5.54156 70.9735C5.68015 70.9389 5.81953 70.904 5.9583 70.8714C6.65637 70.706 7.56112 71.2168 8.45089 71.7192C8.88765 71.9658 9.32079 72.2104 9.72412 72.3719C10.9491 72.8625 13.0617 72.1876 13.3056 71.5438C13.4447 71.1807 14.0312 71.1 14.6369 71.0167C15.105 70.9523 15.5846 70.8863 15.8776 70.6871C16.5498 70.2276 17.4685 69.6773 18.665 69.615C19.3788 69.5793 19.6547 69.0944 19.866 68.723C20.0081 68.4732 20.121 68.2748 20.3182 68.2988C20.8087 68.3611 21.6029 67.3798 21.9117 66.7672C22.218 66.1545 21.5743 65.0538 20.8399 65.0538L20.8373 65.0486Z" stroke="#C2CFE0"/>
<path d="M34.3999 106.853C34.9954 106.292 35.4303 106.363 35.8714 106.435C36.2011 106.488 36.5343 106.543 36.9406 106.334C37.8904 105.843 37.3091 102.261 36.9406 101.526C36.8757 101.396 36.8783 101.295 36.9042 101.207C36.9713 100.985 37.2721 100.86 37.615 100.718C37.9224 100.59 38.2635 100.448 38.5003 100.21C39.1127 99.5974 38.194 98.7096 37.3376 97.8841C36.8561 97.4186 36.2871 97.6978 35.7288 97.9717C35.3905 98.1377 35.0561 98.3017 34.7476 98.2968C34.6594 98.2968 34.5737 98.2839 34.4907 98.2527C33.6343 97.9178 32.4379 97.9178 32.4094 98.6837C32.3919 99.1129 32.6924 99.2151 32.9654 99.3079C33.1795 99.3808 33.3767 99.4478 33.3903 99.6623C33.4078 99.9372 33.0979 100.019 32.6983 100.124C32.3845 100.207 32.0154 100.305 31.7061 100.522C31.3384 100.778 30.9537 100.674 30.5653 100.569C30.2108 100.473 29.8532 100.377 29.5028 100.553C29.1494 100.73 29.3205 100.921 29.5316 101.157C29.7593 101.412 30.0335 101.718 29.7467 102.116C29.3426 102.678 29.5489 102.811 30.05 103.132C30.2311 103.249 30.4507 103.39 30.694 103.585C31.2257 104.01 30.9575 104.251 30.6373 104.539C30.4043 104.748 30.1438 104.982 30.1438 105.329C30.1438 105.81 29.761 106.001 29.3922 106.185C29.127 106.318 28.8689 106.446 28.7658 106.677C28.5218 107.23 29.7467 108.33 30.8185 108.33C31.5841 108.33 33.3592 107.84 34.3999 106.861V106.853Z" fill="#ECF3FE"/>
<path d="M34.3999 106.853C34.9954 106.292 35.4303 106.363 35.8714 106.435C36.2011 106.488 36.5343 106.543 36.9406 106.334C37.8904 105.843 37.3091 102.261 36.9406 101.526C36.8757 101.396 36.8783 101.295 36.9042 101.207C36.9713 100.985 37.2721 100.86 37.615 100.718C37.9224 100.59 38.2635 100.448 38.5003 100.21C39.1127 99.5974 38.194 98.7096 37.3376 97.8841C36.8561 97.4186 36.2871 97.6978 35.7288 97.9717C35.3905 98.1377 35.0561 98.3017 34.7476 98.2968C34.6594 98.2968 34.5737 98.2839 34.4907 98.2527C33.6343 97.9178 32.4379 97.9178 32.4094 98.6837C32.3919 99.1129 32.6924 99.2151 32.9654 99.3079C33.1795 99.3808 33.3767 99.4478 33.3903 99.6623C33.4078 99.9372 33.0979 100.019 32.6983 100.124C32.3845 100.207 32.0154 100.305 31.7061 100.522C31.3384 100.778 30.9537 100.674 30.5653 100.569C30.2108 100.473 29.8532 100.377 29.5028 100.553C29.1494 100.73 29.3205 100.921 29.5316 101.157C29.7593 101.412 30.0335 101.718 29.7467 102.116C29.3426 102.678 29.5489 102.811 30.05 103.132C30.2311 103.249 30.4507 103.39 30.694 103.585C31.2257 104.01 30.9575 104.251 30.6373 104.539C30.4043 104.748 30.1438 104.982 30.1438 105.329C30.1438 105.81 29.761 106.001 29.3922 106.185C29.127 106.318 28.8689 106.446 28.7658 106.677C28.5218 107.23 29.7467 108.33 30.8185 108.33C31.5841 108.33 33.3592 107.84 34.3999 106.861V106.853Z" stroke="#C2CFE0"/>
<path d="M47.5322 83.4542C48.0538 82.9349 48.6637 80.9433 47.8695 81.1588C47.0728 81.3743 47.3064 83.6827 47.5322 83.4542Z" fill="#ECF3FE"/>
<path d="M47.5322 83.4542C48.0538 82.9349 48.6637 80.9433 47.8695 81.1588C47.0728 81.3743 47.3064 83.6827 47.5322 83.4542Z" stroke="#C2CFE0"/>
<path d="M35.6843 90.1001C36.5122 90.0689 37.4594 88.6616 37.0624 88.2617C36.6653 87.8645 35.0693 90.1234 35.6843 90.1001Z" fill="#ECF3FE"/>
<path d="M35.6843 90.1001C36.5122 90.0689 37.4594 88.6616 37.0624 88.2617C36.6653 87.8645 35.0693 90.1234 35.6843 90.1001Z" stroke="#C2CFE0"/>
<path d="M36.5424 91.0182C35.9299 91.5089 37.2457 92.1527 38.0425 92.2436C38.4607 92.2913 38.2718 92.4742 37.9753 92.7612C37.7071 93.0209 37.3508 93.3657 37.2768 93.7727C37.1921 94.2481 37.5197 94.3485 37.8398 94.4466C38.0983 94.5258 38.352 94.6035 38.3798 94.8761C38.4117 95.1898 37.9613 95.3674 37.514 95.5437C37.0877 95.7118 36.6643 95.8787 36.6643 96.1612C36.6643 96.5993 37.2423 96.2169 37.7227 95.8991C37.8771 95.7969 38.0215 95.7014 38.1333 95.642C38.3136 95.5452 38.3148 95.7459 38.3164 96.0144C38.3188 96.43 38.3223 97.0079 38.9924 96.8959C39.6712 96.7825 39.8153 96.1715 39.9188 95.7323C39.9836 95.4578 40.0325 95.2504 40.1862 95.2733C40.3784 95.3035 40.3414 95.4906 40.2902 95.7487C40.2357 96.0238 40.1653 96.3794 40.3393 96.7116C40.5375 97.0927 40.222 97.592 39.9443 98.0313C39.7529 98.3343 39.5794 98.6088 39.6048 98.7963C39.6645 99.2559 41.8705 99.2559 42.5739 98.5211C43.2798 97.7864 43.6146 98.5835 43.1267 99.1338C42.6362 99.6842 42.8516 100.206 43.4641 100.422C43.4772 100.426 43.49 100.431 43.5027 100.435C44.083 100.637 44.2835 100.707 44.0143 101.185C43.8578 101.465 43.8693 101.883 43.8801 102.276C43.8882 102.573 43.896 102.856 43.83 103.054C43.6769 103.514 41.7797 103.454 41.7174 103.148C41.6552 102.841 40.8584 103.054 41.0738 103.482C41.1897 103.717 40.979 103.96 40.7732 104.197C40.6013 104.394 40.4329 104.588 40.4613 104.77C40.4906 104.958 40.7568 105.037 41.0334 105.119C41.3445 105.211 41.6686 105.307 41.6837 105.567C41.7148 106.055 40.8584 106.637 39.6957 106.977C38.5304 107.312 39.9396 108.233 40.4898 107.834C40.781 107.623 40.884 107.713 41.0345 107.844C41.1683 107.96 41.3398 108.109 41.7148 108.109C42.0351 108.109 42.3059 108.213 42.5727 108.315C42.9697 108.468 43.3579 108.617 43.8871 108.415C44.7747 108.078 44.7462 108.415 44.0714 108.934C43.7019 109.221 43.2298 109.183 42.7778 109.147C42.4073 109.117 42.0504 109.089 41.7745 109.241C41.162 109.576 38.6705 111.912 39.1429 112.489C39.2911 112.669 39.4656 112.513 39.7339 112.272C39.9636 112.067 40.2621 111.799 40.6715 111.629C41.2528 111.39 41.5191 111.568 41.7714 111.738C41.9044 111.827 42.0335 111.914 42.2028 111.936C42.4562 111.968 42.5864 111.694 42.709 111.436C42.8225 111.198 42.9294 110.973 43.1215 111.017C43.2955 111.058 43.464 110.998 43.6602 110.928C43.9118 110.839 44.209 110.734 44.6216 110.804C45.3561 110.926 45.8777 110.65 46.2463 110.344C46.4438 110.18 46.8159 110.367 47.1662 110.543C47.4694 110.696 47.7562 110.84 47.8995 110.741C48.2057 110.526 49.5527 110.282 50.2249 110.31C50.8971 110.342 52.6437 109.545 53.1031 109.116C53.5625 108.688 52.828 108.597 52.2155 108.688C51.603 108.781 51.725 108.075 52.366 107.462C52.5384 107.298 52.7371 107.145 52.9367 106.991C53.4825 106.571 54.0359 106.144 54.0815 105.471C54.1438 104.552 52.1221 103.908 51.9066 104.399C51.6938 104.89 51.2345 104.83 50.8971 104.279C50.7121 103.974 50.8251 103.678 50.9067 103.464C50.9728 103.291 51.0183 103.172 50.8685 103.145C50.5311 103.083 50.1029 102.317 50.1963 102.013C50.2872 101.707 49.6747 99.7465 48.6339 99.5025C47.7279 99.2878 47.4946 98.1463 47.3278 97.3303C47.303 97.209 47.2797 97.0948 47.2558 96.992C47.1557 96.56 46.9104 96.4888 46.6241 96.4057C46.3838 96.3359 46.1145 96.2577 45.8777 95.9509C45.4591 95.4093 44.805 95.5196 44.3255 95.6004C44.2074 95.6203 44.0999 95.6384 44.0091 95.6446C43.5497 95.6757 44.0091 94.7852 44.7436 94.2972C45.478 93.8065 46.3371 91.2025 46.3371 90.6833C46.3371 90.164 43.1241 90.1926 42.509 90.4989C41.8965 90.8053 41.284 90.0394 41.8057 89.8239C42.3273 89.6111 43.4304 88.5388 43.3681 88.1105C43.3434 87.9331 43.4703 87.7607 43.595 87.5914C43.7715 87.3515 43.9435 87.1179 43.6743 86.8851C43.3884 86.6379 43.2564 86.9004 43.1017 87.2078C43.0078 87.3944 42.9056 87.5975 42.7556 87.7133C42.3585 88.0196 41.4709 87.9287 40.521 87.7444C39.5711 87.5601 39.2052 88.9075 39.2363 89.489C39.2516 89.7752 38.9847 90.0023 38.7316 90.2177C38.4704 90.4399 38.224 90.6496 38.3175 90.8988C38.5018 91.3894 38.1047 91.7555 37.7985 91.4803C37.738 91.426 37.6764 91.3562 37.6116 91.2829C37.3483 90.9849 37.034 90.629 36.5424 91.0208V91.0182Z" fill="#ECF3FE"/>
<path d="M36.5424 91.0182C35.9299 91.5089 37.2457 92.1527 38.0425 92.2436C38.4607 92.2913 38.2718 92.4742 37.9753 92.7612C37.7071 93.0209 37.3508 93.3657 37.2768 93.7727C37.1921 94.2481 37.5197 94.3485 37.8398 94.4466C38.0983 94.5258 38.352 94.6035 38.3798 94.8761C38.4117 95.1898 37.9613 95.3674 37.514 95.5437C37.0877 95.7118 36.6643 95.8787 36.6643 96.1612C36.6643 96.5993 37.2423 96.2169 37.7227 95.8991C37.8771 95.7969 38.0215 95.7014 38.1333 95.642C38.3136 95.5452 38.3148 95.7459 38.3164 96.0144C38.3188 96.43 38.3223 97.0079 38.9924 96.8959C39.6712 96.7825 39.8153 96.1715 39.9188 95.7323C39.9836 95.4578 40.0325 95.2504 40.1862 95.2733C40.3784 95.3035 40.3414 95.4906 40.2902 95.7487C40.2357 96.0238 40.1653 96.3794 40.3393 96.7116C40.5375 97.0927 40.222 97.592 39.9443 98.0313C39.7529 98.3343 39.5794 98.6088 39.6048 98.7963C39.6645 99.2559 41.8705 99.2559 42.5739 98.5211C43.2798 97.7864 43.6146 98.5835 43.1267 99.1338C42.6362 99.6842 42.8516 100.206 43.4641 100.422C43.4772 100.426 43.49 100.431 43.5027 100.435C44.083 100.637 44.2835 100.707 44.0143 101.185C43.8578 101.465 43.8693 101.883 43.8801 102.276C43.8882 102.573 43.896 102.856 43.83 103.054C43.6769 103.514 41.7797 103.454 41.7174 103.148C41.6552 102.841 40.8584 103.054 41.0738 103.482C41.1897 103.717 40.979 103.96 40.7732 104.197C40.6013 104.394 40.4329 104.588 40.4613 104.77C40.4906 104.958 40.7568 105.037 41.0334 105.119C41.3445 105.211 41.6686 105.307 41.6837 105.567C41.7148 106.055 40.8584 106.637 39.6957 106.977C38.5304 107.312 39.9396 108.233 40.4898 107.834C40.781 107.623 40.884 107.713 41.0345 107.844C41.1683 107.96 41.3398 108.109 41.7148 108.109C42.0351 108.109 42.3059 108.213 42.5727 108.315C42.9697 108.468 43.3579 108.617 43.8871 108.415C44.7747 108.078 44.7462 108.415 44.0714 108.934C43.7019 109.221 43.2298 109.183 42.7778 109.147C42.4073 109.117 42.0504 109.089 41.7745 109.241C41.162 109.576 38.6705 111.912 39.1429 112.489C39.2911 112.669 39.4656 112.513 39.7339 112.272C39.9636 112.067 40.2621 111.799 40.6715 111.629C41.2528 111.39 41.5191 111.568 41.7714 111.738C41.9044 111.827 42.0335 111.914 42.2028 111.936C42.4562 111.968 42.5864 111.694 42.709 111.436C42.8225 111.198 42.9294 110.973 43.1215 111.017C43.2955 111.058 43.464 110.998 43.6602 110.928C43.9118 110.839 44.209 110.734 44.6216 110.804C45.3561 110.926 45.8777 110.65 46.2463 110.344C46.4438 110.18 46.8159 110.367 47.1662 110.543C47.4694 110.696 47.7562 110.84 47.8995 110.741C48.2057 110.526 49.5527 110.282 50.2249 110.31C50.8971 110.342 52.6437 109.545 53.1031 109.116C53.5625 108.688 52.828 108.597 52.2155 108.688C51.603 108.781 51.725 108.075 52.366 107.462C52.5384 107.298 52.7371 107.145 52.9367 106.991C53.4825 106.571 54.0359 106.144 54.0815 105.471C54.1438 104.552 52.1221 103.908 51.9066 104.399C51.6938 104.89 51.2345 104.83 50.8971 104.279C50.7121 103.974 50.8251 103.678 50.9067 103.464C50.9728 103.291 51.0183 103.172 50.8685 103.145C50.5311 103.083 50.1029 102.317 50.1963 102.013C50.2872 101.707 49.6747 99.7465 48.6339 99.5025C47.7279 99.2878 47.4946 98.1463 47.3278 97.3303C47.303 97.209 47.2797 97.0948 47.2558 96.992C47.1557 96.56 46.9104 96.4888 46.6241 96.4057C46.3838 96.3359 46.1145 96.2577 45.8777 95.9509C45.4591 95.4093 44.805 95.5196 44.3255 95.6004C44.2074 95.6203 44.0999 95.6384 44.0091 95.6446C43.5497 95.6757 44.0091 94.7852 44.7436 94.2972C45.478 93.8065 46.3371 91.2025 46.3371 90.6833C46.3371 90.164 43.1241 90.1926 42.509 90.4989C41.8965 90.8053 41.284 90.0394 41.8057 89.8239C42.3273 89.6111 43.4304 88.5388 43.3681 88.1105C43.3434 87.9331 43.4703 87.7607 43.595 87.5914C43.7715 87.3515 43.9435 87.1179 43.6743 86.8851C43.3884 86.6379 43.2564 86.9004 43.1017 87.2078C43.0078 87.3944 42.9056 87.5975 42.7556 87.7133C42.3585 88.0196 41.4709 87.9287 40.521 87.7444C39.5711 87.5601 39.2052 88.9075 39.2363 89.489C39.2516 89.7752 38.9847 90.0023 38.7316 90.2177C38.4704 90.4399 38.224 90.6496 38.3175 90.8988C38.5018 91.3894 38.1047 91.7555 37.7985 91.4803C37.738 91.426 37.6764 91.3562 37.6116 91.2829C37.3483 90.9849 37.034 90.629 36.5424 91.0208V91.0182Z" stroke="#C2CFE0"/>
<path d="M76.6163 95.5522C76.4779 95.4662 76.3591 95.6119 76.2328 95.7668C76.1342 95.8877 76.031 96.0142 75.9104 96.0403C75.7898 96.0677 75.6632 95.8474 75.5488 95.6483C75.4022 95.3934 75.2756 95.1731 75.2072 95.5522C75.1514 95.8597 74.9931 95.8279 74.7791 95.785C74.5251 95.734 74.1927 95.6673 73.8603 96.1338C73.2478 96.9933 74.2262 97.7593 74.6544 98.0345C75.0826 98.3097 74.6232 98.707 74.0731 98.585C73.5229 98.4629 73.8603 99.3795 74.6232 99.5041C75.3888 99.6262 76.2167 98.1565 76.1233 97.7878C76.0819 97.6247 76.23 97.204 76.3829 96.7697C76.5756 96.2224 76.7758 95.6536 76.6137 95.5522H76.6163Z" fill="#ECF3FE"/>
<path d="M76.6163 95.5522C76.4779 95.4662 76.3591 95.6119 76.2328 95.7668C76.1342 95.8877 76.031 96.0142 75.9104 96.0403C75.7898 96.0677 75.6632 95.8474 75.5488 95.6483C75.4022 95.3934 75.2756 95.1731 75.2072 95.5522C75.1514 95.8597 74.9931 95.8279 74.7791 95.785C74.5251 95.734 74.1927 95.6673 73.8603 96.1338C73.2478 96.9933 74.2262 97.7593 74.6544 98.0345C75.0826 98.3097 74.6232 98.707 74.0731 98.585C73.5229 98.4629 73.8603 99.3795 74.6232 99.5041C75.3888 99.6262 76.2167 98.1565 76.1233 97.7878C76.0819 97.6247 76.23 97.204 76.3829 96.7697C76.5756 96.2224 76.7758 95.6536 76.6137 95.5522H76.6163Z" stroke="#C2CFE0"/>
<path d="M88.9233 89.9182C87.7606 89.9493 87.2157 92.2395 87.5141 92.616C87.7606 92.9224 90.0859 89.8896 88.9233 89.9182Z" fill="#ECF3FE"/>
<path d="M88.9233 89.9182C87.7606 89.9493 87.2157 92.2395 87.5141 92.616C87.7606 92.9224 90.0859 89.8896 88.9233 89.9182Z" stroke="#C2CFE0"/>
<path d="M97.1574 86.6112C97.4039 86.1517 95.3901 86.3542 95.8416 86.767C96.179 87.0734 96.9135 87.0708 97.1574 86.6112Z" fill="#ECF3FE"/>
<path d="M97.1574 86.6112C97.4039 86.1517 95.3901 86.3542 95.8416 86.767C96.179 87.0734 96.9135 87.0708 97.1574 86.6112Z" stroke="#C2CFE0"/>
<path d="M95.4149 89.3075C95.9651 89.2763 97.2212 88.2325 97.5586 87.8976C97.8933 87.5626 97.3432 87.1939 96.2402 87.5003C95.1399 87.8067 94.9764 89.3309 95.4149 89.3075Z" fill="#ECF3FE"/>
<path d="M95.4149 89.3075C95.9651 89.2763 97.2212 88.2325 97.5586 87.8976C97.8933 87.5626 97.3432 87.1939 96.2402 87.5003C95.1399 87.8067 94.9764 89.3309 95.4149 89.3075Z" stroke="#C2CFE0"/>
<path d="M88.1578 6.90489C88.3519 7.05632 88.2129 7.13823 88.058 7.22955C87.8836 7.33235 87.689 7.44706 87.9268 7.68629C88.8035 8.56326 91.3158 8.24978 93.2169 8.01257C94.304 7.87693 95.1912 7.76622 95.4584 7.91733C95.8203 8.12069 94.7218 8.34674 93.5418 8.58958C92.3268 8.83962 91.0252 9.10746 91.1424 9.38666C91.3734 9.93701 95.6894 10.3965 96.0112 10.0305C96.1596 9.86047 96.3958 10.0035 96.7469 10.2161C97.1572 10.4646 97.7246 10.8082 98.4923 10.8586C99.2885 10.9094 99.5959 10.7309 99.8976 10.5556C100.135 10.4178 100.368 10.2821 100.833 10.2615C101.89 10.2148 103.452 9.71116 103.496 9.11408C103.515 8.86682 104.054 8.59597 104.659 8.29176C105.515 7.86135 106.504 7.36415 106.343 6.7725C106.176 6.15884 105.008 6.17213 103.932 6.18438C103.237 6.19229 102.58 6.19977 102.256 6.03784C101.43 5.62508 99.4993 5.07213 99.1801 5.71594C98.8583 6.35974 98.3081 6.54405 98.033 6.26628C97.9515 6.18481 97.9304 5.99867 97.9064 5.78769C97.8493 5.28605 97.7763 4.64399 96.8391 4.93454C95.9407 5.21306 96.2134 5.95253 96.4005 6.45991C96.4906 6.70447 96.5609 6.89512 96.4706 6.95422C96.1955 7.13853 94.9108 6.67904 94.8174 6.03524C94.7733 5.73138 94.4332 5.8676 94.0669 6.01429C93.6572 6.17839 93.2147 6.3556 93.1174 5.94438C92.9332 5.16299 91.2358 4.61264 90.8673 4.65677C90.6911 4.67927 90.77 4.80771 90.8734 4.97601C90.9848 5.15721 91.1246 5.38463 91.0048 5.57575C90.8571 5.81412 90.4208 5.59007 90.0312 5.39004C89.8183 5.28073 89.6194 5.17858 89.4892 5.16299C89.2992 5.13873 89.368 5.35029 89.4528 5.61056C89.5312 5.8516 89.6233 6.13442 89.5359 6.31042C89.4503 6.48415 89.2413 6.24906 88.9771 5.95192C88.6808 5.61857 88.315 5.20712 87.9761 5.20712C87.6251 5.20712 87.534 5.42744 87.4484 5.63445C87.3776 5.80545 87.3107 5.96737 87.1041 5.98851C86.7827 6.0212 87.2259 6.30032 87.6625 6.5753C87.85 6.69341 88.0364 6.81077 88.1604 6.90749L88.1578 6.90489Z" fill="#ECF3FE"/>
<path d="M88.1578 6.90489C88.3519 7.05632 88.2129 7.13823 88.058 7.22955C87.8836 7.33235 87.689 7.44706 87.9268 7.68629C88.8035 8.56326 91.3158 8.24978 93.2169 8.01257C94.304 7.87693 95.1912 7.76622 95.4584 7.91733C95.8203 8.12069 94.7218 8.34674 93.5418 8.58958C92.3268 8.83962 91.0252 9.10746 91.1424 9.38666C91.3734 9.93701 95.6894 10.3965 96.0112 10.0305C96.1596 9.86047 96.3958 10.0035 96.7469 10.2161C97.1572 10.4646 97.7246 10.8082 98.4923 10.8586C99.2885 10.9094 99.5959 10.7309 99.8976 10.5556C100.135 10.4178 100.368 10.2821 100.833 10.2615C101.89 10.2148 103.452 9.71116 103.496 9.11408C103.515 8.86682 104.054 8.59597 104.659 8.29176C105.515 7.86135 106.504 7.36415 106.343 6.7725C106.176 6.15884 105.008 6.17213 103.932 6.18438C103.237 6.19229 102.58 6.19977 102.256 6.03784C101.43 5.62508 99.4993 5.07213 99.1801 5.71594C98.8583 6.35974 98.3081 6.54405 98.033 6.26628C97.9515 6.18481 97.9304 5.99867 97.9064 5.78769C97.8493 5.28605 97.7763 4.64399 96.8391 4.93454C95.9407 5.21306 96.2134 5.95253 96.4005 6.45991C96.4906 6.70447 96.5609 6.89512 96.4706 6.95422C96.1955 7.13853 94.9108 6.67904 94.8174 6.03524C94.7733 5.73138 94.4332 5.8676 94.0669 6.01429C93.6572 6.17839 93.2147 6.3556 93.1174 5.94438C92.9332 5.16299 91.2358 4.61264 90.8673 4.65677C90.6911 4.67927 90.77 4.80771 90.8734 4.97601C90.9848 5.15721 91.1246 5.38463 91.0048 5.57575C90.8571 5.81412 90.4208 5.59007 90.0312 5.39004C89.8183 5.28073 89.6194 5.17858 89.4892 5.16299C89.2992 5.13873 89.368 5.35029 89.4528 5.61056C89.5312 5.8516 89.6233 6.13442 89.5359 6.31042C89.4503 6.48415 89.2413 6.24906 88.9771 5.95192C88.6808 5.61857 88.315 5.20712 87.9761 5.20712C87.6251 5.20712 87.534 5.42744 87.4484 5.63445C87.3776 5.80545 87.3107 5.96737 87.1041 5.98851C86.7827 6.0212 87.2259 6.30032 87.6625 6.5753C87.85 6.69341 88.0364 6.81077 88.1604 6.90749L88.1578 6.90489Z" stroke="#C2CFE0"/>
<path d="M73.5565 14.3543C73.8124 14.4183 74.0385 14.6513 74.2581 14.8776C74.5107 15.1379 74.7547 15.3894 75.0254 15.3644C75.2538 15.3436 74.2442 14.2167 73.6473 13.5727C73.4605 13.3712 73.3368 13.17 73.2295 12.9955C72.994 12.6126 72.8381 12.359 72.2693 12.516C71.4441 12.7445 73.0037 14.2167 73.5565 14.3543Z" fill="#ECF3FE"/>
<path d="M73.5565 14.3543C73.8124 14.4183 74.0385 14.6513 74.2581 14.8776C74.5107 15.1379 74.7547 15.3894 75.0254 15.3644C75.2538 15.3436 74.2442 14.2167 73.6473 13.5727C73.4605 13.3712 73.3368 13.17 73.2295 12.9955C72.994 12.6126 72.8381 12.359 72.2693 12.516C71.4441 12.7445 73.0037 14.2167 73.5565 14.3543Z" stroke="#C2CFE0"/>
<path d="M75.4396 10.6292C75.9343 10.7338 75.5722 11.089 75.1159 11.5365C74.7678 11.8779 74.3649 12.273 74.2458 12.6517C74.0459 13.2855 74.8641 13.8714 75.5902 14.3913C75.8635 14.5869 76.1236 14.7733 76.3117 14.9493C76.9994 15.5931 78.6553 15.4997 79.2522 15.1336C79.5122 14.973 79.6245 14.6385 79.7328 14.316C79.8731 13.8981 80.0066 13.5002 80.446 13.5266C80.871 13.552 80.9427 13.3462 81.0228 13.116C81.0901 12.923 81.1633 12.7129 81.4556 12.6075C82.0967 12.3765 82.1901 13.2047 81.6399 13.8485C81.0897 14.4924 82.6053 14.4456 83.4306 13.6642C84.2586 12.8827 84.4428 13.6174 84.2585 14.3522C84.167 14.7172 83.7019 14.799 83.1835 14.8901C82.6586 14.9824 82.0791 15.0843 81.7774 15.4997C81.4869 15.9032 80.8994 15.9563 80.2779 16.0124C79.628 16.0712 78.9409 16.1332 78.5177 16.603C77.6898 17.5221 79.2522 17.5688 80.3993 17.3378C81.549 17.1067 83.7058 16.9691 84.5337 17.1534C85.3616 17.3378 84.0276 17.613 82.6521 17.613C81.2765 17.613 80.8172 18.0258 80.8613 18.3944C80.8798 18.5408 80.5794 18.5058 80.2046 18.4621C79.6358 18.3958 78.8958 18.3095 78.8395 18.8072C78.7854 19.2994 79.4489 19.6126 80.042 19.8925C80.4437 20.0822 80.8132 20.2565 80.9054 20.461C81.0449 20.7667 81.5688 20.7202 82.0728 20.6754C82.4033 20.6461 82.7252 20.6175 82.9245 20.6894C83.242 20.805 82.8355 20.9921 82.4435 21.1726C82.2106 21.2798 81.9827 21.3847 81.915 21.4709C81.8257 21.5828 82.157 21.7159 82.5536 21.8754C82.9762 22.0453 83.473 22.2451 83.6149 22.4808C83.89 22.9403 85.0372 22.7093 84.993 22.068C84.9359 21.2684 86.0052 18.8539 87.3807 18.3477C88.3165 18.0039 88.2567 17.6817 88.1795 17.2664C88.1431 17.0701 88.1028 16.853 88.1619 16.603C88.2574 16.198 88.5991 16.1759 88.8616 16.1589C89.1055 16.1431 89.2811 16.1317 89.1274 15.8216C88.8055 15.1777 88.9898 14.9026 89.8619 14.077C90.3555 13.6082 90.7468 13.5961 91.185 13.5825C91.521 13.5721 91.8846 13.5608 92.343 13.3422C93.3993 12.836 93.9028 13.7109 92.7556 13.8018C91.7486 13.8848 92.2495 15.0427 93.0774 15.3647C93.5159 15.5357 93.5141 15.6935 93.5126 15.8246C93.5113 15.9402 93.5102 16.0349 93.8119 16.0994C94.4556 16.237 94.2713 17.2028 93.446 18.0751C92.6207 18.9474 93.677 19.1317 95.421 18.4879C96.5259 18.08 96.4892 18.4098 96.4419 18.835C96.4145 19.081 96.3836 19.359 96.5682 19.5445C97.0742 20.0508 98.4498 19.1759 99.1842 18.3035C99.5725 17.8424 100.063 17.6657 100.433 17.5325C100.762 17.4137 100.996 17.3296 100.975 17.1093C100.931 16.603 100.15 16.4655 99.5061 16.7406C98.865 17.0158 97.2559 16.8315 97.8061 16.3279C98.3589 15.8216 98.2655 15.4088 97.4402 15.5023C96.6123 15.5931 95.1433 15.1803 95.8337 14.9051C96.5214 14.63 95.3276 13.7109 94.684 13.7576C94.1242 13.7983 94.1906 13.248 94.2482 12.7708C94.2568 12.6993 94.2652 12.6294 94.2713 12.5634C94.2977 12.277 93.706 12.0794 93.254 11.9285C92.907 11.8127 92.6423 11.7244 92.8023 11.6443C93.1683 11.46 92.0211 11.0472 91.746 11.4133C91.4709 11.7819 90.9207 11.6885 90.9207 11.1381C90.9207 10.611 89.6569 10.7149 89.0666 10.7634C89.0405 10.7655 89.0157 10.7676 88.9924 10.7694C88.7058 10.7938 88.6431 10.4688 88.5708 10.0934C88.5042 9.74809 88.4294 9.36018 88.1645 9.1624C87.842 8.91895 87.4554 9.24443 87.1075 9.5373C86.8618 9.74415 86.6354 9.93473 86.4646 9.89712C86.1863 9.83585 86.4296 9.43939 86.6876 9.01889C86.8123 8.81573 86.9404 8.60697 87.0148 8.42768C87.2458 7.87729 85.0865 7.13998 84.8555 7.69296C84.7284 7.9993 84.5434 7.70887 84.3255 7.36691C84.152 7.09448 83.9576 6.78935 83.7551 6.72718C83.5176 6.65606 83.5014 6.90398 83.4837 7.17268C83.4673 7.42385 83.4496 7.6932 83.249 7.7371C82.8363 7.82796 82.2861 8.24335 82.9739 8.70288C83.6616 9.1624 84.352 11.4574 84.2585 11.8261C84.1677 12.1947 82.0551 10.1723 81.9643 9.20913C81.8709 8.24595 80.8172 7.4645 80.5395 8.15248C80.4329 8.419 80.2504 8.62357 80.0802 8.81433C79.811 9.11602 79.5726 9.38319 79.7141 9.80625C79.9425 10.4968 79.1639 10.7253 79.1639 10.1749C79.1639 9.62452 78.0168 8.98067 77.6015 8.93394C77.3812 8.90898 77.6973 8.81889 78.1449 8.69134C78.5356 8.58 79.0265 8.44011 79.3482 8.29008C80.036 7.96816 78.7513 7.50863 78.1543 7.87729C77.872 8.05167 77.5484 8.00938 77.2468 7.96997C76.9107 7.92605 76.6019 7.88569 76.4077 8.15248C76.1556 8.49881 75.8622 8.3713 75.4959 8.21213C75.3268 8.13862 75.1421 8.05836 74.9388 8.01489C74.6033 7.94317 74.2932 8.19589 74.0081 8.42823C73.7462 8.64164 73.5055 8.83786 73.2855 8.74961C72.8261 8.56787 72.551 9.66865 73.2855 10.8162C73.7205 11.4958 74.0918 11.2411 74.5034 10.9586C74.7868 10.7642 75.0893 10.5567 75.4448 10.6318L75.4396 10.6292Z" fill="#ECF3FE"/>
<path d="M75.4396 10.6292C75.9343 10.7338 75.5722 11.089 75.1159 11.5365C74.7678 11.8779 74.3649 12.273 74.2458 12.6517C74.0459 13.2855 74.8641 13.8714 75.5902 14.3913C75.8635 14.5869 76.1236 14.7733 76.3117 14.9493C76.9994 15.5931 78.6553 15.4997 79.2522 15.1336C79.5122 14.973 79.6245 14.6385 79.7328 14.316C79.8731 13.8981 80.0066 13.5002 80.446 13.5266C80.871 13.552 80.9427 13.3462 81.0228 13.116C81.0901 12.923 81.1633 12.7129 81.4556 12.6075C82.0967 12.3765 82.1901 13.2047 81.6399 13.8485C81.0897 14.4924 82.6053 14.4456 83.4306 13.6642C84.2586 12.8827 84.4428 13.6174 84.2585 14.3522C84.167 14.7172 83.7019 14.799 83.1835 14.8901C82.6586 14.9824 82.0791 15.0843 81.7774 15.4997C81.4869 15.9032 80.8994 15.9563 80.2779 16.0124C79.628 16.0712 78.9409 16.1332 78.5177 16.603C77.6898 17.5221 79.2522 17.5688 80.3993 17.3378C81.549 17.1067 83.7058 16.9691 84.5337 17.1534C85.3616 17.3378 84.0276 17.613 82.6521 17.613C81.2765 17.613 80.8172 18.0258 80.8613 18.3944C80.8798 18.5408 80.5794 18.5058 80.2046 18.4621C79.6358 18.3958 78.8958 18.3095 78.8395 18.8072C78.7854 19.2994 79.4489 19.6126 80.042 19.8925C80.4437 20.0822 80.8132 20.2565 80.9054 20.461C81.0449 20.7667 81.5688 20.7202 82.0728 20.6754C82.4033 20.6461 82.7252 20.6175 82.9245 20.6894C83.242 20.805 82.8355 20.9921 82.4435 21.1726C82.2106 21.2798 81.9827 21.3847 81.915 21.4709C81.8257 21.5828 82.157 21.7159 82.5536 21.8754C82.9762 22.0453 83.473 22.2451 83.6149 22.4808C83.89 22.9403 85.0372 22.7093 84.993 22.068C84.9359 21.2684 86.0052 18.8539 87.3807 18.3477C88.3165 18.0039 88.2567 17.6817 88.1795 17.2664C88.1431 17.0701 88.1028 16.853 88.1619 16.603C88.2574 16.198 88.5991 16.1759 88.8616 16.1589C89.1055 16.1431 89.2811 16.1317 89.1274 15.8216C88.8055 15.1777 88.9898 14.9026 89.8619 14.077C90.3555 13.6082 90.7468 13.5961 91.185 13.5825C91.521 13.5721 91.8846 13.5608 92.343 13.3422C93.3993 12.836 93.9028 13.7109 92.7556 13.8018C91.7486 13.8848 92.2495 15.0427 93.0774 15.3647C93.5159 15.5357 93.5141 15.6935 93.5126 15.8246C93.5113 15.9402 93.5102 16.0349 93.8119 16.0994C94.4556 16.237 94.2713 17.2028 93.446 18.0751C92.6207 18.9474 93.677 19.1317 95.421 18.4879C96.5259 18.08 96.4892 18.4098 96.4419 18.835C96.4145 19.081 96.3836 19.359 96.5682 19.5445C97.0742 20.0508 98.4498 19.1759 99.1842 18.3035C99.5725 17.8424 100.063 17.6657 100.433 17.5325C100.762 17.4137 100.996 17.3296 100.975 17.1093C100.931 16.603 100.15 16.4655 99.5061 16.7406C98.865 17.0158 97.2559 16.8315 97.8061 16.3279C98.3589 15.8216 98.2655 15.4088 97.4402 15.5023C96.6123 15.5931 95.1433 15.1803 95.8337 14.9051C96.5214 14.63 95.3276 13.7109 94.684 13.7576C94.1242 13.7983 94.1906 13.248 94.2482 12.7708C94.2568 12.6993 94.2652 12.6294 94.2713 12.5634C94.2977 12.277 93.706 12.0794 93.254 11.9285C92.907 11.8127 92.6423 11.7244 92.8023 11.6443C93.1683 11.46 92.0211 11.0472 91.746 11.4133C91.4709 11.7819 90.9207 11.6885 90.9207 11.1381C90.9207 10.611 89.6569 10.7149 89.0666 10.7634C89.0405 10.7655 89.0157 10.7676 88.9924 10.7694C88.7058 10.7938 88.6431 10.4688 88.5708 10.0934C88.5042 9.74809 88.4294 9.36018 88.1645 9.1624C87.842 8.91895 87.4554 9.24443 87.1075 9.5373C86.8618 9.74415 86.6354 9.93473 86.4646 9.89712C86.1863 9.83585 86.4296 9.43939 86.6876 9.01889C86.8123 8.81573 86.9404 8.60697 87.0148 8.42768C87.2458 7.87729 85.0865 7.13998 84.8555 7.69296C84.7284 7.9993 84.5434 7.70887 84.3255 7.36691C84.152 7.09448 83.9576 6.78935 83.7551 6.72718C83.5176 6.65606 83.5014 6.90398 83.4837 7.17268C83.4673 7.42385 83.4496 7.6932 83.249 7.7371C82.8363 7.82796 82.2861 8.24335 82.9739 8.70288C83.6616 9.1624 84.352 11.4574 84.2585 11.8261C84.1677 12.1947 82.0551 10.1723 81.9643 9.20913C81.8709 8.24595 80.8172 7.4645 80.5395 8.15248C80.4329 8.419 80.2504 8.62357 80.0802 8.81433C79.811 9.11602 79.5726 9.38319 79.7141 9.80625C79.9425 10.4968 79.1639 10.7253 79.1639 10.1749C79.1639 9.62452 78.0168 8.98067 77.6015 8.93394C77.3812 8.90898 77.6973 8.81889 78.1449 8.69134C78.5356 8.58 79.0265 8.44011 79.3482 8.29008C80.036 7.96816 78.7513 7.50863 78.1543 7.87729C77.872 8.05167 77.5484 8.00938 77.2468 7.96997C76.9107 7.92605 76.6019 7.88569 76.4077 8.15248C76.1556 8.49881 75.8622 8.3713 75.4959 8.21213C75.3268 8.13862 75.1421 8.05836 74.9388 8.01489C74.6033 7.94317 74.2932 8.19589 74.0081 8.42823C73.7462 8.64164 73.5055 8.83786 73.2855 8.74961C72.8261 8.56787 72.551 9.66865 73.2855 10.8162C73.7205 11.4958 74.0918 11.2411 74.5034 10.9586C74.7868 10.7642 75.0893 10.5567 75.4448 10.6318L75.4396 10.6292Z" stroke="#C2CFE0"/>
<path d="M80.6257 142.899C79.3697 143.174 78.8507 143.267 78.1162 142.899C77.3818 142.532 76.1906 143.234 76.3697 143.724C76.4916 144.062 76.9821 144.49 78.5133 144.89C79.3978 145.12 79.8328 145.564 80.1661 145.904C80.4097 146.153 80.599 146.347 80.8697 146.36C81.5133 146.391 81.573 145.776 81.4199 144.95C81.292 144.258 81.912 143.483 82.1726 143.157C82.2239 143.093 82.2613 143.046 82.2763 143.021C82.3671 142.87 81.8766 142.623 80.6232 142.899H80.6257Z" fill="#ECF3FE"/>
<path d="M80.6257 142.899C79.3697 143.174 78.8507 143.267 78.1162 142.899C77.3818 142.532 76.1906 143.234 76.3697 143.724C76.4916 144.062 76.9821 144.49 78.5133 144.89C79.3978 145.12 79.8328 145.564 80.1661 145.904C80.4097 146.153 80.599 146.347 80.8697 146.36C81.5133 146.391 81.573 145.776 81.4199 144.95C81.292 144.258 81.912 143.483 82.1726 143.157C82.2239 143.093 82.2613 143.046 82.2763 143.021C82.3671 142.87 81.8766 142.623 80.6232 142.899H80.6257Z" stroke="#C2CFE0"/>
<path d="M68.7762 135.944C68.4155 136.256 68.0884 136.204 67.8206 136.162C67.5895 136.125 67.4025 136.095 67.2762 136.313C67.1232 136.577 67.3231 136.903 67.5616 137.293C67.8489 137.763 68.1921 138.324 68.0418 138.976C67.7667 140.17 68.1949 141.671 68.8982 140.967C69.2679 140.598 69.5365 140.515 69.7662 140.444C69.9734 140.38 70.149 140.326 70.3385 140.08C70.555 139.796 70.5539 139.094 70.5528 138.365C70.5518 137.757 70.5508 137.13 70.6759 136.713C70.951 135.794 69.4509 135.365 68.7762 135.947V135.944Z" fill="#ECF3FE"/>
<path d="M68.7762 135.944C68.4155 136.256 68.0884 136.204 67.8206 136.162C67.5895 136.125 67.4025 136.095 67.2762 136.313C67.1232 136.577 67.3231 136.903 67.5616 137.293C67.8489 137.763 68.1921 138.324 68.0418 138.976C67.7667 140.17 68.1949 141.671 68.8982 140.967C69.2679 140.598 69.5365 140.515 69.7662 140.444C69.9734 140.38 70.149 140.326 70.3385 140.08C70.555 139.796 70.5539 139.094 70.5528 138.365C70.5518 137.757 70.5508 137.13 70.6759 136.713C70.951 135.794 69.4509 135.365 68.7762 135.947V135.944Z" stroke="#C2CFE0"/>
<path d="M160.498 6.49782C160.773 6.49782 160.988 6.45887 161.136 6.38097C161.3 6.29529 161.38 6.16286 161.38 5.97851C161.38 5.7578 161.172 5.64355 160.765 5.64355C159.963 5.64355 158.946 6.059 158.873 6.207C158.876 6.207 158.88 6.20857 158.885 6.21083C158.889 6.2127 158.895 6.21505 158.902 6.21739C159.195 6.31606 159.903 6.50042 160.498 6.50042V6.49782Z" fill="#ECF3FE"/>
<path d="M160.498 6.49782C160.773 6.49782 160.988 6.45887 161.136 6.38097C161.3 6.29529 161.38 6.16286 161.38 5.97851C161.38 5.7578 161.172 5.64355 160.765 5.64355C159.963 5.64355 158.946 6.059 158.873 6.207C158.876 6.207 158.88 6.20857 158.885 6.21083C158.889 6.2127 158.895 6.21505 158.902 6.21739C159.195 6.31606 159.903 6.50042 160.498 6.50042V6.49782Z" stroke="#C2CFE0"/>
<path d="M145.454 5.07398C146.035 5.07398 146.559 4.86626 147.011 4.45341C147.48 4.02498 148.049 3.81725 148.755 3.81725C149.051 3.81725 149.329 3.85299 149.579 3.88511C149.598 3.88762 149.618 3.89011 149.637 3.89255C149.666 3.89634 149.695 3.90013 149.724 3.90384C149.889 3.92554 150.034 3.94448 150.156 3.94448C150.395 3.94448 150.454 3.87438 150.483 3.80427C150.499 3.76532 150.496 3.73157 150.47 3.69262C150.327 3.4823 149.601 3.3291 148.742 3.3291C147.973 3.3291 147.288 3.44854 146.909 3.64848C146.422 3.90554 145.659 3.95227 144.984 3.99122L144.974 3.99182C144.422 4.02538 143.857 4.0597 143.756 4.22231C143.743 4.24309 143.73 4.27944 143.761 4.35214C143.868 4.59881 144.61 5.07138 145.459 5.07138L145.454 5.07398Z" fill="#ECF3FE"/>
<path d="M145.454 5.07398C146.035 5.07398 146.559 4.86626 147.011 4.45341C147.48 4.02498 148.049 3.81725 148.755 3.81725C149.051 3.81725 149.329 3.85299 149.579 3.88511C149.598 3.88762 149.618 3.89011 149.637 3.89255C149.666 3.89634 149.695 3.90013 149.724 3.90384C149.889 3.92554 150.034 3.94448 150.156 3.94448C150.395 3.94448 150.454 3.87438 150.483 3.80427C150.499 3.76532 150.496 3.73157 150.47 3.69262C150.327 3.4823 149.601 3.3291 148.742 3.3291C147.973 3.3291 147.288 3.44854 146.909 3.64848C146.422 3.90554 145.659 3.95227 144.984 3.99122L144.974 3.99182C144.422 4.02538 143.857 4.0597 143.756 4.22231C143.743 4.24309 143.73 4.27944 143.761 4.35214C143.868 4.59881 144.61 5.07138 145.459 5.07138L145.454 5.07398Z" stroke="#C2CFE0"/>
<path d="M173.986 4.69736C174.36 4.99337 174.926 5.14137 175.673 5.14137C177.35 5.14137 179.473 4.34943 179.766 3.97293C179.825 3.89503 179.851 3.83012 179.838 3.77559C179.813 3.66394 179.636 3.57566 179.447 3.48218C179.187 3.35236 178.896 3.20695 178.834 2.92912C178.785 2.70841 177.884 2.51367 176.909 2.51367C176.234 2.51367 175.728 2.60974 175.619 2.75775C175.601 2.78112 175.595 2.80449 175.606 2.83305C175.704 3.16021 175.224 3.45362 174.716 3.76261L174.703 3.77015C174.317 4.00716 173.882 4.27385 173.87 4.49224C173.864 4.56235 173.906 4.62726 173.992 4.69736H173.986Z" fill="#ECF3FE"/>
<path d="M173.986 4.69736C174.36 4.99337 174.926 5.14137 175.673 5.14137C177.35 5.14137 179.473 4.34943 179.766 3.97293C179.825 3.89503 179.851 3.83012 179.838 3.77559C179.813 3.66394 179.636 3.57566 179.447 3.48218C179.187 3.35236 178.896 3.20695 178.834 2.92912C178.785 2.70841 177.884 2.51367 176.909 2.51367C176.234 2.51367 175.728 2.60974 175.619 2.75775C175.601 2.78112 175.595 2.80449 175.606 2.83305C175.704 3.16021 175.224 3.45362 174.716 3.76261L174.703 3.77015C174.317 4.00716 173.882 4.27385 173.87 4.49224C173.864 4.56235 173.906 4.62726 173.992 4.69736H173.986Z" stroke="#C2CFE0"/>
<path d="M186.551 52.5583C186.159 52.3558 185.804 52.252 185.43 52.1403C184.924 51.9898 184.402 51.8366 183.79 51.4212C182.788 50.7436 181.908 50.3853 180.003 50.4243C179.943 50.4243 179.884 50.4243 179.824 50.4243C178.822 50.4243 178.028 50.2945 177.392 50.1906C176.886 50.1075 176.502 50.0504 176.248 50.0842C175.887 50.1361 175.765 49.9492 175.612 49.7259C175.456 49.5 175.243 49.1885 174.677 48.9444C174.345 48.7991 174.044 48.6381 173.777 48.4953C173.312 48.2461 172.91 48.0306 172.57 48.0306C172.445 48.0306 172.336 48.0565 172.23 48.1137C171.986 48.2409 171.869 48.5213 171.924 48.8484C171.978 49.1859 172.24 49.6091 172.791 49.6947C173.271 49.77 173.424 49.9388 173.549 50.0764C173.681 50.2244 173.79 50.3386 174.306 50.3074C174.89 50.2763 175.264 50.3671 175.482 50.5956C175.643 50.7644 175.713 51.0032 175.697 51.3303C175.666 51.9898 176.266 52.6544 176.624 52.9893C176.85 53.1996 176.925 53.4904 176.821 53.7474C176.699 54.0537 176.359 54.2432 175.931 54.2432C175.142 54.2432 174.646 54.3523 174.535 54.5522C174.493 54.6275 174.509 54.7209 174.581 54.8378C174.737 55.0844 174.714 55.2428 174.664 55.331C174.592 55.4635 174.426 55.531 174.182 55.531C173.966 55.531 173.704 55.4764 173.424 55.3726C173.138 55.2661 172.975 55.1156 172.933 54.926C172.863 54.6067 173.167 54.2614 173.398 54.0278C173.445 53.981 173.445 53.9447 173.439 53.9187C173.398 53.7318 172.923 53.4618 172.168 53.197C172.147 53.1892 172.121 53.1866 172.09 53.1866C171.685 53.1866 170.701 53.7967 169.983 54.2406C169.58 54.4899 169.232 54.7054 169.038 54.7858C168.799 54.8871 168.376 54.8482 167.836 54.7781C167.457 54.7287 167.026 54.6716 166.572 54.6716C166.196 54.6716 165.856 54.7106 165.537 54.791C164.709 54.9987 164.395 55.4634 164.166 55.8009C164.011 56.032 163.889 56.2112 163.668 56.2112C163.637 56.2112 163.606 56.2086 163.575 56.2008C163.476 56.18 163.331 56.1696 163.115 56.1696C162.97 56.1696 162.806 56.1748 162.638 56.18C162.451 56.1852 162.254 56.1904 162.059 56.1904C161.62 56.1904 161.081 56.167 160.767 55.9775C160.525 55.8347 160.421 55.6945 160.46 55.5621C160.53 55.3129 161.049 55.2921 161.208 55.2921C161.247 55.2921 161.288 55.2921 161.33 55.2947C161.649 55.3129 161.867 55.2609 161.914 55.1597C161.947 55.0844 161.896 54.9546 161.763 54.8014C161.498 54.4925 161.771 54.0953 161.989 53.7733C162.101 53.6124 162.215 53.4462 162.207 53.3554C162.202 53.3579 162.178 53.3476 162.108 53.3476C161.556 53.3476 159.819 53.9629 159.508 54.2277C159.337 54.3705 159.342 54.5756 159.344 54.7884C159.35 55.0143 159.352 55.2713 159.095 55.4011C159.022 55.4375 158.958 55.4557 158.895 55.4557C158.729 55.4557 158.631 55.3284 158.527 55.196C158.428 55.0688 158.317 54.926 158.122 54.8533C158.096 54.843 158.041 54.8326 157.927 54.8326C156.99 54.8326 154.034 55.5855 153.458 56.2423C153.095 56.6551 152.558 56.8602 152.127 57.0212C151.782 57.151 151.486 57.2652 151.486 57.421C151.486 57.7351 150.917 57.8286 150.258 57.935C149.853 57.9999 149.433 58.07 149.181 58.1894C148.828 58.3582 148.836 58.8826 148.846 59.3915C148.854 59.742 148.859 60.0743 148.758 60.3261C148.615 60.6818 147.904 60.8323 146.375 60.8323C146.176 60.8323 145.984 60.8323 145.81 60.8272C145.55 60.8246 145.327 60.822 145.174 60.8272H145.148C144.707 60.8272 144.432 60.3858 144.167 59.96C143.957 59.6225 143.757 59.3006 143.508 59.2643C143.344 59.2383 143.227 59.163 143.165 59.0384C143.009 58.7372 143.204 58.2232 143.396 57.8441C143.5 57.6313 143.689 57.6079 143.928 57.5767C144.172 57.5456 144.478 57.5066 144.86 57.2626C145.054 57.138 145.265 57.0757 145.503 57.0757C145.742 57.0757 145.939 57.1302 146.126 57.1795C146.388 57.247 146.586 57.286 146.682 57.1795C146.791 57.0601 146.495 56.7486 146.207 56.4448C145.854 56.0736 145.457 55.653 145.407 55.2454C145.345 54.7417 144.484 54.4769 143.663 54.4769C143.37 54.4769 143.092 54.5107 142.861 54.5704C142.592 54.6431 142.298 54.6794 141.995 54.6794C141.4 54.6794 140.762 54.5366 140.24 54.29C140.16 54.251 140.087 54.2329 140.033 54.2329C139.929 54.2329 139.921 54.2978 139.918 54.3185C139.895 54.4951 140.147 54.8222 140.655 54.9546C141.372 55.1389 141.333 55.6088 141.302 55.9879C141.289 56.154 141.276 56.3124 141.317 56.4396C141.486 56.9433 141.042 58.0363 140.513 58.7995C140.269 59.15 140.253 59.2876 140.282 59.3421C140.326 59.4226 140.539 59.433 140.697 59.433C140.809 59.433 140.938 59.4278 141.081 59.4226H141.162C141.361 59.4226 141.527 59.4849 141.652 59.6095C141.971 59.9315 141.969 60.5935 141.966 61.1776V61.3308C141.966 61.7826 141.766 62.0603 141.592 62.3018C141.447 62.5043 141.322 62.6782 141.322 62.9223C141.322 63.1533 141.219 63.2001 141.133 63.2001C141.032 63.2001 140.912 63.13 140.785 63.0573C140.674 62.9924 140.549 62.9197 140.469 62.9197C140.44 62.9197 140.427 62.9301 140.417 62.9404C140.344 63.0235 140.266 63.0417 140.217 63.0417C139.975 63.0417 139.776 62.6678 139.685 62.2966C139.62 62.0448 139.103 62.037 138.603 62.0292C138.27 62.024 137.925 62.0188 137.653 61.9487C137.52 61.915 137.403 61.8968 137.297 61.8968C136.91 61.8968 136.703 62.1097 136.415 62.5614C136.01 63.1845 134.769 63.361 134.525 63.3896C134.167 63.4311 133.669 63.8777 133.23 64.2697C132.989 64.4852 132.76 64.6903 132.566 64.8175C132.327 64.9759 132.189 65.1939 132.169 65.4432C132.138 65.7807 132.322 66.1519 132.698 66.5128C133.373 67.1592 133.653 67.694 133.578 68.1977C133.536 68.4625 132.976 68.5015 132.644 68.5015C131.995 68.5015 131.185 68.3535 130.972 68.0783C130.71 67.746 129.771 67.5902 129.215 67.5902C129.085 67.5902 128.976 67.598 128.899 67.6136C128.88 67.6162 128.86 67.6188 128.839 67.6188C128.579 67.6188 128.193 67.3098 127.746 66.9541C127.315 66.6089 126.825 66.2194 126.524 66.2064H126.49C125.935 66.2064 125.561 66.9074 125.359 67.2865L125.335 67.3332C125.239 67.5149 125.314 67.611 125.512 67.8316C125.649 67.9848 125.818 68.1743 125.95 68.4651C126.251 69.1271 127.453 69.1271 127.907 69.1271C128.071 69.1271 128.198 69.192 128.273 69.3141C128.468 69.6282 128.278 70.2383 128.154 70.4849C128.014 70.7679 127.463 70.9652 127.056 70.9652C126.786 70.9652 126.584 70.8874 126.472 70.742C126.347 70.581 125.989 70.5706 125.675 70.5602C125.273 70.5473 124.855 70.5369 124.834 70.2123C124.811 69.8177 124.082 69.1869 123.267 69.1869C123.184 69.1869 123.101 69.192 123.02 69.205C122.6 69.2725 122.291 69.1998 122.099 68.9869C121.902 68.7741 121.826 68.4288 121.868 67.9329C121.904 67.5175 121.717 67.2008 121.569 66.9438C121.46 66.7542 121.364 66.5933 121.377 66.4349C121.385 66.3414 121.349 66.2038 121.307 66.0585C121.211 65.7184 121.094 65.2926 121.468 65.033C121.764 64.8305 121.707 64.5579 121.645 64.2411C121.614 64.0854 121.582 63.927 121.593 63.7712C121.603 63.6362 121.512 63.4571 121.349 63.2805C121.071 62.9846 120.57 62.6834 120.075 62.6834C119.62 62.6834 119.454 62.4238 119.306 62.1953C119.184 62.0058 119.07 61.8267 118.803 61.7644C118.125 61.6034 116.825 60.513 116.729 60.0249C116.688 59.8121 116.397 59.69 116.187 59.5992C116.023 59.5291 115.925 59.4875 115.922 59.3993C115.922 59.3214 116.002 59.285 116.034 59.272C116.114 59.2357 116.213 59.2175 116.327 59.2175C116.706 59.2175 117.298 59.4278 117.767 59.9003C118.408 60.5416 119.361 60.9466 120.601 61.1049C121.344 61.1984 121.855 61.4191 122.395 61.6527C122.909 61.8734 123.441 62.1045 124.217 62.2369C124.525 62.2914 124.811 62.3407 125.086 62.3901C126.223 62.59 127.204 62.7639 129.052 63.0365C129.197 63.0573 129.353 63.0677 129.511 63.0677C131.644 63.0677 134.312 61.0998 134.992 60.4196C135.408 60.0042 135.159 59.272 134.959 58.6827C134.868 58.4153 134.787 58.1817 134.787 58.0207C134.787 57.7922 134.484 57.6624 134.19 57.5378C133.926 57.4236 133.677 57.3171 133.601 57.1302C133.459 56.7927 132.81 56.1333 131.951 56.1333C131.458 56.1333 131.185 55.8425 130.946 55.5855C130.731 55.3544 130.541 55.1571 130.243 55.1857C129.568 55.2428 129.07 54.9131 127.536 53.8876L127.165 53.6383C125.569 52.5765 123.345 51.7198 122.566 51.7198C122.473 51.7198 122.423 51.7327 122.397 51.7457C122.159 51.8574 121.959 51.9456 121.774 51.9456C121.564 51.9456 121.393 51.8366 121.237 51.6003C121.113 51.4108 120.897 51.307 120.633 51.307C120.368 51.307 120.08 51.4082 119.841 51.5874C119.732 51.6704 119.613 51.7094 119.48 51.7094C119.322 51.7094 119.158 51.6523 118.985 51.5925C118.774 51.5199 118.535 51.4368 118.253 51.4368C118.141 51.4368 118.029 51.4498 117.915 51.4757C117.783 51.5069 117.653 51.5224 117.529 51.5224C117.056 51.5224 116.742 51.294 116.641 51.0707C116.576 50.9279 116.592 50.7877 116.682 50.6865C116.807 50.5463 117.121 50.5229 117.453 50.4996C117.749 50.4788 118.084 50.4528 118.177 50.3386C118.196 50.3152 118.203 50.2893 118.198 50.2529C118.177 50.0945 118.115 50.0842 117.884 50.0738C117.648 50.0634 117.295 50.0452 116.854 49.7519C116.589 49.5753 116.35 49.487 116.143 49.487C115.751 49.487 115.566 49.8038 115.489 49.9959C115.4 50.214 115.214 50.3334 114.962 50.3334C114.692 50.3334 114.37 50.1906 114.118 49.9595C114.105 49.9466 114.09 49.9362 114.077 49.9232L114.027 49.8064C113.534 49.4974 112.597 49.4559 112.483 49.8739C112.361 50.3334 111.533 50.2425 111.564 49.783C111.596 49.3235 110.28 48.9574 110.217 48.7393C110.155 48.5265 110.768 48.5576 111.258 48.8302C111.746 49.1054 112.086 48.9237 112.634 48.4018C113.187 47.88 113.95 48.311 114.04 47.8514C114.134 47.3919 113.153 47.0856 112.969 46.8104C112.784 46.5352 112.081 46.1665 111.409 46.2911C110.737 46.4132 110.705 46.138 110.306 45.7693C109.909 45.4007 108.684 46.0134 108.684 46.8727C108.684 47.732 107.915 47.5165 108.193 47.057C108.468 46.5975 107.827 46.0471 108.44 45.8939C109.052 45.7408 108.715 44.8217 107.581 44.7308C106.446 44.64 106.021 45.5876 106.296 45.8939C106.571 46.2003 105.53 47.5165 105.068 47.5165C104.606 47.5165 105.131 46.3846 105.1 45.7719C105.068 45.1592 104.64 45.4967 103.781 46.4755C102.925 47.4542 102.284 48.3447 101.793 48.4356C101.303 48.5291 101.362 47.5477 102.159 47.1193C102.956 46.6884 102.987 45.5253 103.503 45.5253C104.02 45.5253 104.025 44.9126 103.259 44.7308C102.494 44.5465 102.372 45.4033 102.125 45.6499C101.881 45.8939 100.628 45.2215 100.656 45.4656C100.687 45.7122 99.9841 45.8031 100.288 46.26C100.594 46.7195 100.137 47.1193 99.8284 46.5663C99.5222 46.0159 98.7566 46.4443 98.3906 47.057C98.0221 47.6697 97.5316 47.6386 97.9001 47.854C98.2661 48.0669 98.2375 48.8951 97.6873 49.0483C97.1345 49.2015 97.3499 47.5477 96.9217 47.7009C96.4935 47.854 96.7686 46.9038 97.3499 46.9038C97.9313 46.9038 98.5126 46.0471 98.4529 45.8316C98.3517 45.4733 97.7184 45.5564 97.7184 46.016C97.7184 46.4755 96.7997 46.3846 96.0341 46.3509C95.2684 46.3223 95.2996 47.2387 96.156 47.7294C97.0125 48.2201 96.0029 48.5265 95.5721 48.1604C95.1439 47.7917 94.4717 47.9761 94.0123 48.189C93.553 48.4044 95.1153 48.9548 95.175 49.23C95.2347 49.5052 94.3783 48.8925 94.194 49.108C94.0123 49.3235 93.1533 48.9548 93.0936 48.433C93.0313 47.9112 91.6532 48.6459 92.4214 48.8302C93.187 49.0145 92.9093 49.5052 92.9093 50.1776C92.9093 50.85 92.0217 50.3308 92.206 49.7493C92.3876 49.1677 91.6532 49.2897 91.0433 49.6558C90.4308 50.0245 91.1367 48.9834 90.8902 48.4616C90.6462 47.9423 90.0934 48.4616 89.4497 48.5862C88.8061 48.7082 88.4713 48.7367 88.8684 49.1677C89.2655 49.5961 89.2058 50.2088 88.6841 50.1179C88.1625 50.027 87.9497 50.1179 88.0094 50.6086C88.0716 51.0967 87.3371 51.1278 87.2749 50.6995C87.2152 50.2711 86.1745 50.3931 85.8656 50.8838C85.5594 51.3719 84.7029 51.7405 84.7937 52.2935C84.8846 52.8439 85.5594 52.0157 86.1096 52.2C86.6598 52.3844 86.0784 52.6596 86.3873 52.9348C86.6909 53.2126 86.6312 53.885 86.203 53.4878C85.7748 53.0905 85.222 52.9659 85.1311 53.6098C85.0403 54.2536 84.5809 53.5189 84.2124 53.0594C83.8465 52.5999 83.4779 53.9161 83.0808 53.6098C82.6837 53.3034 83.8776 52.3558 83.5687 51.8963C83.2625 51.4368 83.0471 52.1715 82.3437 52.8751C81.6404 53.5786 80.6931 53.5501 81.0305 53.885C81.3653 54.2225 80.3246 54.4068 80.1429 54.9858C79.9587 55.5699 78.5208 55.7828 77.5995 56.3955C76.6808 57.0056 77.7838 57.0393 78.3054 56.4552C78.8271 55.8736 79.0113 56.2111 79.8367 55.6893C80.6646 55.1701 81.5496 54.7417 81.8584 54.9546C82.1621 55.1701 82.6863 55.3233 83.0834 54.7729C83.4805 54.2225 83.971 54.3419 84.3681 54.682C84.7652 55.0195 83.6959 55.2947 84.1838 55.7854C84.6743 56.2761 83.6025 56.5487 83.6025 56.1229C83.6025 55.6971 82.99 55.3259 82.7746 55.7231C82.5592 56.1229 82.1932 56.5487 81.7961 56.5824C81.3991 56.6136 80.9708 57.3483 80.9708 58.083C80.9708 58.8177 80.2649 58.083 80.2052 58.7268C80.1429 59.3707 79.1619 60.5026 78.3054 61.3282C77.449 62.1564 78.2431 62.3407 77.968 62.86C77.6929 63.3792 76.6808 62.9197 76.346 63.1352C76.0086 63.3506 76.5277 64.6357 76.0709 65.0356C75.6115 65.4328 76.0709 65.9832 76.0709 66.4453C76.0709 66.9074 74.877 66.1701 74.7862 66.6296C74.6927 67.0891 73.652 66.9671 73.3458 67.0891C73.0395 67.2112 73.9583 67.9459 74.5111 68.3743C75.0613 68.8026 73.9894 69.1401 73.8674 68.6494C73.7428 68.1588 72.9798 68.9558 72.0299 69.3842C71.0801 69.8125 71.4798 70.6693 70.7453 70.7004C70.0108 70.7316 70.2236 71.8947 69.7357 72.2633C69.2452 72.632 69.3698 71.4066 68.6015 71.3754C67.8359 71.3443 67.8982 71.8947 68.355 72.5385C68.8143 73.1824 67.6516 72.6917 67.2234 73.2447C66.7952 73.7951 65.5702 73.5199 65.2328 73.9794C64.898 74.4389 66.1516 74.4389 66.3358 74.805C66.5201 75.1736 65.2328 74.9893 64.5606 74.8361C63.8884 74.6856 64.0701 75.6955 63.4576 75.5709C62.8451 75.4488 62.0795 76.0901 62.5077 76.5211C62.936 76.9494 62.1703 77.0091 61.7421 76.7339C61.3139 76.4588 60.9479 77.1312 60.7922 77.653C60.6391 78.1722 61.6201 78.45 61.589 78.6941C61.5578 78.9407 60.7922 79.3379 61.3424 79.4625C61.8926 79.582 61.4955 80.0726 61.1296 80.2258C60.7611 80.3816 60.7611 80.7476 61.1296 81.2072C61.4981 81.6667 60.486 81.7576 60.9765 82.4637C61.4644 83.1673 61.8329 82.2794 62.0484 82.7986C62.2638 83.3205 62.8425 82.8609 63.5173 82.2482C64.1895 81.6381 64.436 82.9232 63.8858 82.8921C63.3356 82.8609 62.692 83.1958 62.814 83.7488C62.9359 84.2992 61.9575 84.2084 61.9887 83.5359C62.0172 82.8635 60.8571 83.658 61.2853 84.1486C61.7135 84.6367 61.1322 84.9119 61.1322 85.374C61.1322 85.8362 61.9601 85.7401 62.2949 85.2209C62.6323 84.7016 63.1825 84.8237 63.3979 85.3455C63.6133 85.8647 62.8788 85.4675 62.8788 86.1711C62.8788 86.8746 62.4195 86.2645 62.0198 86.8149C61.6227 87.3679 63.5822 88.3778 64.1947 88.531C64.8072 88.6842 65.3885 89.3566 66.6135 89.1748C67.8385 88.9905 70.1665 86.7267 70.4702 86.3268C70.779 85.9296 71.4512 86.3891 71.9106 86.0205C72.3699 85.6544 72.0948 84.7042 72.4322 84.5225C72.7696 84.3382 72.9513 85.5324 73.2601 85.6544C73.5378 85.7635 73.7377 85.9815 73.7506 86.5942C73.7506 86.6566 73.7532 86.7163 73.7506 86.789C73.7195 87.5548 73.9946 88.3207 74.6694 88.8711C75.3416 89.4241 74.8225 90.2497 75.4039 91.0155C75.9852 91.7814 75.8009 92.3344 76.4446 92.8848C77.0882 93.4352 77.1505 93.7415 76.8728 94.4477C76.5977 95.1538 77.4256 94.9669 77.4542 95.3953C77.4853 95.8263 77.2725 96.7116 77.4853 97.1399C77.6981 97.5683 78.129 97.1399 79.1074 97.1088C80.0858 97.0776 79.8419 96.4649 79.873 95.8834C79.9041 95.3018 80.3947 95.577 80.5167 95.211C80.6386 94.8423 81.5288 94.7514 82.2322 95.0552C82.9355 95.3641 83.3014 94.8423 83.426 94.105C83.548 93.3703 83.9451 94.2608 84.1605 94.4113C84.3759 94.5645 85.0195 93.2794 85.3232 92.4538C85.6294 91.6256 85.292 91.7814 84.5887 92.5758C83.8854 93.3729 84.2825 91.7814 84.5576 91.1376C84.8327 90.4937 84.8015 88.6245 84.895 88.1987C84.9884 87.7703 85.1701 87.1265 86.0577 86.9421C86.9453 86.7604 88.1106 85.657 87.9263 85.1975C87.742 84.738 89.1513 83.9721 89.1513 83.5126C89.1513 83.0531 87.6823 81.6433 87.1918 81.3396C86.7013 81.0332 85.632 81.2773 85.7229 80.9398C85.8137 80.6023 85.5983 79.286 85.4763 78.611C85.3543 77.936 86.2419 77.2324 86.2419 76.5886C86.2419 75.9447 86.2108 75.21 86.7921 74.9945C87.3735 74.7816 87.0075 74.2312 87.7732 74.0469C88.5388 73.8626 88.3857 72.7592 89.211 72.4217C90.0389 72.0868 90.0986 71.809 91.1704 71.2898C92.2423 70.7679 94.0461 69.5425 94.3549 68.9013C94.6586 68.2574 93.2519 67.5824 94.1395 66.91C95.0271 66.2376 94.2926 65.4691 94.9336 65.2251C95.5773 64.9784 95.8213 64.6435 96.2806 64.1529C96.74 63.6622 97.3499 64.1217 98.4529 63.94C98.8578 63.8725 99.2263 63.9062 99.5741 63.9893C100.179 64.1373 100.716 64.441 101.24 64.6747C102.066 65.0434 101.944 65.6249 101.975 66.2661C102.006 66.91 102.034 67.2761 101.609 67.0009C101.181 66.7257 100.721 67.0009 100.475 67.9199C100.231 68.8364 99.068 69.9423 98.3621 70.0021C97.6561 70.0618 97.7184 70.7965 97.1371 70.9497C96.5557 71.1028 96.0055 71.4403 96.0367 72.0816C96.0678 72.7255 95.1802 72.7852 94.5963 72.7852C94.0123 72.7852 94.1369 73.8262 93.6775 74.1014C93.2182 74.3792 93.309 74.7453 93.7398 75.2957C94.168 75.8461 93.8021 76.3367 93.9526 76.7365C94.1083 77.1338 94.7805 78.0528 94.3212 79.0627C93.8618 80.0752 93.3713 81.3318 93.771 81.2072C94.168 81.0852 95.0868 82.0353 95.6993 81.973C96.3118 81.9107 96.3741 82.8298 96.9554 82.6455C97.5368 82.4611 97.5368 83.1958 99.2211 83.1361C100.905 83.0738 104.303 81.6667 105.65 81.6667C106.413 81.6667 107.025 81.5758 107.505 81.4564L107.674 81.337C107.986 81.2461 108.204 81.1526 108.341 81.0826C108.396 81.0566 108.45 81.041 108.505 81.041C108.787 81.041 109.005 81.3967 109.236 81.7731C109.392 82.0276 109.556 82.2924 109.735 82.4378C109.966 82.6247 110.324 82.6299 110.672 82.6325C111.027 82.6377 111.365 82.6403 111.549 82.8428C111.653 82.9544 111.684 83.0531 111.648 83.1387C111.598 83.2504 111.44 83.3023 111.16 83.3023C110.978 83.3023 110.752 83.2789 110.506 83.2374C110.116 83.1699 109.883 83.2867 109.532 83.4736C109.294 83.6008 108.995 83.7592 108.549 83.9072C107.998 84.0915 107.877 84.2759 107.757 84.4524C107.713 84.5173 107.669 84.5848 107.604 84.6497L107.534 84.6938C107.42 84.751 107.238 84.8003 107.059 84.8496C106.171 85.0937 104.24 84.2369 103.14 84.4524C102.037 84.6653 99.8051 84.6653 99.2834 85.2183C98.7618 85.7687 97.4459 85.9218 98.0273 86.4125C98.6086 86.9032 98.0273 87.1472 98.4555 87.7314C98.8863 88.3129 99.0992 88.5596 99.6805 88.4349C100.264 88.3129 100.721 88.6193 100.109 89.2631C100.101 89.2761 100.093 89.2865 100.083 89.2969C99.517 89.9225 99.9245 90.3847 99.8959 91.3452C99.8648 92.3266 98.7929 92.1423 98.2141 92.1423C97.6354 92.1423 96.6829 90.3976 96.3767 89.9978C96.0678 89.6006 95.0894 90.4885 94.386 90.9169C93.6827 91.3452 94.0487 92.1734 93.5581 92.5706C93.0702 92.9705 92.764 93.6429 93.2519 94.5308C93.2727 94.5671 93.2856 94.6035 93.3038 94.6398C93.7216 95.4939 93.5685 96.3611 93.0988 96.8881C92.764 97.2645 92.9586 97.3165 93.2052 97.4644L93.4024 97.5164C93.4699 97.5735 93.5374 97.6462 93.5893 97.7422C93.7528 98.033 93.4543 98.207 93.2155 98.3446C93.0469 98.4432 92.8704 98.5419 92.8444 98.6665C92.8315 98.7262 92.8548 98.7911 92.9093 98.869C93.0313 99.0351 93.0131 99.1546 92.9768 99.2273C92.9119 99.3545 92.738 99.4298 92.5122 99.4298C92.3409 99.4298 92.1722 99.3856 92.0451 99.3077C91.8893 99.2117 91.8011 99.0715 91.8011 98.9079C91.8011 98.6587 91.4793 98.6327 91.3417 98.6327C91.0381 98.6327 90.6929 98.747 90.5735 98.8872C90.5424 98.9235 90.532 98.9572 90.5346 98.9884C90.558 99.126 90.5242 99.2896 90.4438 99.4505L90.3399 99.4895C90.1583 99.7932 89.7794 100.071 89.2084 100.071C88.3208 100.071 88.2585 99.1831 88.2299 98.7859C88.2014 98.3887 84.6484 99.1234 83.6985 100.071C82.7512 101.021 80.5452 100.653 80.4855 101.172C80.4388 101.551 80.1092 101.746 79.8938 101.642C79.8107 101.603 79.7458 101.522 79.7199 101.387C79.6264 100.897 79.2917 100.715 78.4949 100.715C77.6981 100.715 78.9828 99.9178 78.6766 99.5206C78.3729 99.1234 77.5736 100.255 76.8417 100.009C76.1072 99.7647 75.1573 100.868 74.5163 101.356C73.8726 101.847 72.9539 101.265 73.4444 100.559C73.9349 99.8555 73.4444 99.9152 72.7099 100.193C71.9754 100.468 71.0878 100.131 71.1787 99.4583C71.202 99.2896 71.1475 99.1312 71.0593 98.9806C70.7894 98.5419 70.1847 98.1862 70.2314 97.8669C70.2937 97.4385 70.875 97.7111 71.3033 98.0797C71.7315 98.4484 72.6814 98.5107 72.7722 98.0486C72.8293 97.7656 72.6191 96.4571 72.0377 96.7635C71.4564 97.0698 71.3033 96.9478 71.0878 96.6415C70.875 96.3351 71.5161 95.847 71.6718 95.3563C71.8223 94.8657 72.8345 95.0474 72.9876 94.6502C73.1408 94.253 72.3128 93.8246 72.0092 93.6688C71.7029 93.5183 71.5784 92.5369 71.9469 92.2305C72.3154 91.9242 72.4686 90.7611 72.1623 90.4522C71.8561 90.1458 70.753 90.4522 70.6622 91.2803C70.5714 92.1085 69.6838 91.7399 69.4372 91.9242C69.1933 92.1085 69.9277 92.4746 69.5281 92.8433C69.131 93.2119 68.9779 92.2929 68.3342 92.2331C67.6906 92.1708 67.6309 93.2119 67.2935 93.7337C66.9561 94.2556 67.1715 95.3563 67.2935 96.0937C67.4155 96.8284 68.3031 97.2879 68.0877 97.9006C67.989 98.1862 68.1889 98.5055 68.4043 98.8171C68.6483 99.1753 68.9104 99.5232 68.7624 99.7984C68.4873 100.32 68.9156 100.811 69.3127 101.574C69.7097 102.34 68.4562 101.912 68.425 102.4C68.3939 102.89 67.2623 102.369 66.8938 102.187C66.5279 102.003 65.3003 102.125 65.3314 102.434C65.3444 102.556 65.3236 102.722 65.2717 102.867C65.1913 103.085 65.0278 103.244 64.7501 103.077C64.2907 102.802 63.5874 102.955 62.6686 103.14C61.7499 103.324 61.4748 104.212 61.8096 104.578C62.147 104.947 60.922 105.128 60.8311 104.64C60.7403 104.147 59.8216 104.487 59.8813 105.128C59.9436 105.772 58.8717 106.016 58.934 106.811C58.9963 107.608 57.9529 108.342 57.2808 108.74C57.1769 108.802 57.0679 108.867 56.9563 108.929C56.5151 109.184 56.0428 109.428 55.5756 109.521C55.4199 109.555 55.2616 109.573 55.1085 109.565C54.374 109.534 53.7303 110.116 53.8549 111.344C53.9769 112.566 52.9673 112.691 51.7112 112.782C50.455 112.875 50.8859 113.854 50.3642 114.251C49.8426 114.651 48.0077 114.038 47.7611 113.366C47.5145 112.694 45.8639 113.366 46.5673 114.16C47.2706 114.958 47.2395 116.061 46.8424 116.365C46.4453 116.671 45.5862 115.874 45.036 116.271C44.4858 116.671 44.4547 115.903 43.7825 115.661C43.1103 115.414 42.8326 115.965 41.7633 115.874C40.6915 115.78 40.079 116.393 40.4786 116.853C40.8757 117.312 40.4163 117.741 40.7226 118.14C41.0288 118.538 42.4381 118.475 43.4788 119.028C44.5195 119.579 44.7635 119.119 45.2852 119.519C45.8068 119.916 45.9288 119.672 45.9574 120.438C45.9885 121.204 46.5699 121.939 47.582 122.214C48.5916 122.489 47.826 123.161 48.1322 123.836C48.4385 124.511 47.6729 125.49 47.826 126.318C47.9791 127.144 47.3355 129.808 46.8449 130.054C46.8138 130.07 46.7619 130.07 46.723 130.078C46.1001 130.2 44.3171 129.543 43.1414 129.686C41.8853 129.839 37.8755 129.501 36.3131 129.626C34.7508 129.748 34.6599 128.982 33.8035 128.982C32.947 128.982 33.3129 130.021 32.088 130.052C30.863 130.083 30.741 130.849 31.6286 131.555C32.1347 131.957 32.0724 132.804 32.0023 133.577C31.9478 134.161 31.8881 134.707 32.0594 134.982C32.4565 135.626 31.5689 139.024 30.7747 139.943C29.978 140.862 30.7462 141.106 31.5715 141.75C32.3994 142.394 31.8466 144.72 31.8466 145.271C31.8466 145.821 32.5811 145.668 33.4375 145.668C33.9488 145.668 34.525 145.442 35.0908 145.341C35.4723 145.273 35.846 145.26 36.1938 145.421C37.0502 145.818 37.5459 147.952 38.7034 147.81C39.1939 147.747 38.95 147.381 39.1939 147.135C39.4405 146.891 39.8973 147.075 40.3878 147.075C40.8783 147.075 41.1223 146.371 42.285 146.34C43.4503 146.309 44.1848 146.216 44.9192 146.247C45.6537 146.278 46.2351 146.031 46.4193 145.512C46.601 144.99 47.2161 144.533 48.0414 144.409C48.8667 144.287 48.7473 143.427 48.807 142.939C48.8693 142.451 50.2474 141.714 50.3383 141.345C50.4317 140.976 49.5415 139.569 50.3694 138.313C51.1973 137.059 52.0849 136.996 52.0849 136.29C52.0849 135.644 52.9414 135.405 53.9847 135.278C55.0254 135.156 55.3628 134.452 56.2504 134.084C56.9953 133.775 57.26 133.224 57.1095 132.352C57.0809 132.183 57.042 132.009 56.9849 131.82C56.6163 130.625 57.6882 129.919 58.6978 129.766C59.7074 129.613 61.9108 130.226 62.4947 130.592C63.0761 130.96 63.8728 130.867 64.8824 129.797C65.3911 129.255 65.809 129.057 66.1801 128.951C66.5408 128.847 66.8601 128.829 67.1793 128.663C67.8229 128.328 67.5452 127.744 68.6171 127.437C69.689 127.131 71.0956 128.019 71.5265 128.663C71.9547 129.307 72.0767 129.369 72.1701 129.888C72.2635 130.407 72.6606 131.451 74.1296 132.399C75.5985 133.349 76.1825 134.421 76.9455 134.818C77.7111 135.218 78.4767 135.127 78.9361 135.678C79.3955 136.228 80.008 136.534 80.7425 136.872C81.4769 137.209 81.5081 138.004 82.2114 138.097C82.9147 138.188 82.4553 138.801 82.8862 139.323C83.3144 139.842 83.4364 140.945 82.9796 141.558C82.5202 142.171 82.7642 143.212 83.0704 143.212C83.3767 143.212 84.0203 142.108 84.1112 141.496C84.202 140.883 84.8145 140.914 85.305 140.27C85.7955 139.626 84.5705 139.473 84.3577 138.645C84.1423 137.819 85.2765 137.085 86.3457 137.757C87.4176 138.432 87.8458 138.892 87.9081 137.851C87.9704 136.81 84.6017 135.431 83.8049 134.943C83.0107 134.455 83.5298 133.655 82.2737 133.718C81.0175 133.78 79.52 132.22 79.0607 130.41C78.6013 128.606 76.6418 128.512 76.1513 127.44C75.6608 126.368 76.6107 126.246 76.1825 125.358C75.9437 124.865 76.4705 124.428 77.0934 124.179C77.5865 123.982 78.1445 123.901 78.4144 124.01C78.6532 124.106 78.7337 124.358 78.7752 124.628C78.8401 125.046 78.8141 125.511 79.1489 125.511C79.6991 125.511 80.7113 125.451 80.7399 126.186C80.7684 126.921 82.0868 128.543 82.5747 129.096C83.0653 129.647 84.1683 129.527 84.228 129.984C84.2902 130.444 85.087 130.872 86.0057 130.932C86.2549 130.95 86.5559 131.093 86.8778 131.295C87.2178 131.511 87.5811 131.791 87.9419 132.082C88.4869 132.523 89.0163 132.967 89.4056 133.17C89.4446 133.19 89.4783 133.209 89.5146 133.227C90.3192 133.655 90.6332 133.962 90.0778 134.517C89.4965 135.099 89.3745 137.059 90.0155 137.578C90.628 138.074 90.8045 139.058 91.3962 139.341C91.4248 139.354 91.4533 139.377 91.4845 139.388C92.1566 139.6 92.6783 140.4 92.5875 141.163C92.4966 141.929 93.5685 142.207 94.0564 141.654C94.5469 141.104 95.9251 141.96 95.9251 142.329C95.9251 142.698 94.5158 141.932 93.7191 142.513C92.9249 143.095 94.3341 143.645 94.1499 144.258C93.9656 144.871 94.5158 145.727 95.2217 145.699C95.9277 145.668 96.7218 146.831 97.1501 146.618C97.5783 146.405 96.6284 144.782 96.7815 144.536C96.9346 144.289 97.7911 144.964 98.2193 144.473C98.6476 143.985 97.9131 143.617 97.2694 143.648C96.6258 143.679 97.2383 142.791 98.0039 143.251C98.7695 143.71 99.1355 143.129 99.504 143.066C99.8699 143.004 99.9634 141.688 98.8318 141.384C97.7003 141.078 97.8508 142.212 97.1163 141.444C96.3819 140.68 97.7911 140.984 97.7911 140.343C97.7911 139.702 96.6595 138.783 96.1067 138.017C95.5565 137.251 96.8724 136.885 97.1786 137.435C97.4849 137.986 98.3102 137.895 98.8318 137.679C99.3535 137.466 98.279 136.485 99.2289 136.116C100.179 135.748 100.179 136.392 100.485 136.516C100.791 136.638 101.066 135.75 102.045 135.75C102.556 135.75 103.008 136.09 103.444 136.415C103.846 136.716 104.238 137.007 104.648 137.007C105.507 137.007 105.842 136.088 106.576 135.813C107.311 135.537 108.964 135.903 109.364 135.537C109.761 135.171 108.32 134.712 107.801 134.281C107.498 134.032 107.394 133.564 107.29 133.206C107.217 132.949 107.145 132.744 107.004 132.718C106.667 132.658 106.148 131.249 106.576 131.155C107.004 131.064 107.557 129.592 108.229 129.379C108.497 129.294 108.611 129.133 108.66 128.935C108.73 128.632 108.64 128.237 108.66 127.848C108.691 127.204 109.057 126.225 109.701 126.163C110.345 126.103 110.864 126.103 110.773 125.031C110.773 124.994 110.773 124.966 110.768 124.932C110.698 123.974 110.895 124.029 111.751 123.377C112.639 122.705 112.732 121.448 113.527 121.292C114.323 121.139 114.658 120.77 115.823 120.955C116.986 121.139 115.242 121.874 116.036 122.302C116.833 122.733 119.283 122.18 119.405 122.793C119.527 123.405 116.586 124.018 116.649 124.325C116.711 124.628 118.211 124.937 118.73 125.272C119.252 125.61 118.577 126.56 118.824 126.866C119.068 127.173 119.864 126.926 120.508 126.466C121.149 126.007 121.671 126.16 122.496 125.61C123.324 125.059 125.037 125.547 125.252 125.212C125.465 124.875 124.762 124.537 123.168 124.662C121.577 124.784 121.484 123.283 121.484 122.977C121.484 122.671 123.137 121.417 124.084 121.326C125.034 121.232 125.8 120.957 126.719 120.532C127.09 120.36 127.793 120.101 128.457 119.976C129.036 119.869 129.579 119.807 129.955 119.807C130.331 119.807 130.521 119.862 130.58 119.979C130.596 120.01 130.609 120.064 130.58 120.134C130.388 120.609 128.25 121.479 127.967 121.578C127.938 121.588 127.925 121.599 127.925 121.604C127.912 121.671 128.143 121.874 128.294 122.009C128.556 122.237 128.826 122.473 128.808 122.681C128.792 122.871 128.559 122.98 128.286 123.107C127.925 123.276 127.515 123.47 127.58 123.857C127.627 124.138 127.58 124.358 127.448 124.517C127.209 124.797 126.724 124.831 126.376 124.831C125.937 124.831 125.74 125.002 125.732 125.096C125.727 125.153 125.802 125.173 125.836 125.179C125.984 125.205 126.065 125.345 126.171 125.519C126.353 125.823 126.628 126.282 127.466 126.498C128.592 126.786 129.9 127.731 131.359 129.304C131.489 129.447 131.65 129.574 131.844 129.693C132.202 129.481 132.454 129.366 132.61 129.343C133.256 129.249 134.481 129.621 135.14 130.091C135.314 130.213 135.636 130.272 136.158 130.272C136.422 130.272 136.7 130.259 136.973 130.244C137.224 130.231 137.461 130.218 137.668 130.218C138.073 130.218 138.283 130.267 138.369 130.381C138.66 130.768 139.189 131.181 139.599 131.181C139.835 131.181 140.051 131.378 140.261 131.568C140.427 131.718 140.601 131.877 140.736 131.877C140.775 131.877 140.809 131.864 140.842 131.84C141.099 131.648 141.823 131.55 142.996 131.55C143.204 131.55 143.31 131.63 143.406 131.703C143.495 131.77 143.57 131.827 143.731 131.827C143.98 131.827 144.076 132.227 144.169 132.614C144.206 132.765 144.291 133.12 144.349 133.12C144.372 133.113 144.395 133.11 144.419 133.11C144.587 133.11 144.855 133.279 145.195 133.492C145.568 133.725 145.994 133.99 146.311 134.037C146.69 134.091 147.058 134.463 147.354 134.761C147.541 134.951 147.735 135.145 147.829 135.145C147.868 135.135 147.899 135.13 147.933 135.13C148.042 135.13 148.156 135.182 148.27 135.234C148.371 135.278 148.473 135.327 148.553 135.327C148.605 135.327 148.667 135.312 148.716 135.187C148.805 134.969 149.036 134.894 149.28 134.816C149.583 134.717 149.897 134.616 150.038 134.247C148.815 132.749 147.634 131.241 147.671 130.615C147.681 130.415 147.707 130.228 147.733 130.049C147.834 129.309 147.912 128.722 146.9 127.855C146.549 127.557 146.373 127.263 146.36 126.962C146.337 126.453 146.767 126.009 147.268 125.49C147.494 125.259 147.725 125.018 147.933 124.753C148.462 124.08 149.365 123.652 150.237 123.237C150.707 123.013 151.151 122.803 151.532 122.559C151.314 122.411 151.125 122.302 150.959 122.229C150.375 121.97 150.087 121.728 150.102 121.508C150.113 121.362 150.25 121.253 150.51 121.178C150.692 121.126 150.793 121.059 150.816 120.978C150.871 120.794 150.596 120.461 150.198 120.01C149.949 119.727 149.76 119.446 149.591 119.202C149.347 118.844 149.155 118.564 148.963 118.564C148.877 118.564 148.784 118.558 148.68 118.553C148.563 118.548 148.436 118.54 148.301 118.54C147.995 118.54 147.746 118.577 147.515 118.652C147.325 118.714 147.185 118.693 147.094 118.59C146.926 118.395 146.988 117.948 147.055 117.478C147.102 117.151 146.806 117.047 146.386 116.933C146.155 116.871 145.958 116.819 145.875 116.694C145.807 116.593 145.802 116.427 145.862 116.201C145.958 115.832 146.212 115.381 146.36 115.305C146.825 115.072 147.055 114.877 147.055 114.726C147.055 114.667 146.923 114.591 146.806 114.527C146.547 114.379 146.152 114.153 146.422 113.68C146.591 113.384 146.832 113.221 147.045 113.073C147.307 112.894 147.515 112.753 147.515 112.429C147.515 111.891 147.873 111.453 148.309 111.453C148.478 111.453 148.652 111.515 148.82 111.634C149.069 111.814 149.262 112.089 149.446 112.356C149.687 112.707 149.918 113.039 150.222 113.039C150.281 113.039 150.344 113.026 150.406 113.003C150.577 112.938 150.686 112.852 150.736 112.74C150.824 112.543 150.723 112.283 150.634 112.058C150.598 111.967 150.564 111.881 150.546 111.803L150.533 111.749C150.474 111.512 150.398 111.216 150.549 110.97C150.655 110.796 150.852 110.679 151.151 110.614C151.543 110.526 151.639 110.287 151.73 110.056C151.818 109.833 151.911 109.602 152.267 109.602C152.742 109.602 153.57 109.108 154.065 108.812C154.226 108.716 154.354 108.641 154.439 108.597L154.551 108.54C154.883 108.371 155.438 108.085 155.822 108.085C155.916 108.085 155.996 108.101 156.064 108.135C156.134 108.168 156.204 108.213 156.277 108.257C156.44 108.355 156.609 108.459 156.752 108.459C156.835 108.459 156.959 108.431 157.068 108.171C157.185 107.898 157.455 107.743 157.81 107.743C158.166 107.743 158.605 107.919 158.67 108.181C158.708 108.332 159.279 108.433 159.739 108.514C160.24 108.602 160.759 108.693 161.029 108.875C161.094 108.919 161.169 108.968 161.249 109.02C162.069 109.557 162.804 110.069 162.804 110.404C162.804 110.624 163.032 110.905 163.141 110.905C163.185 110.905 163.214 110.817 163.214 110.679C163.214 110.354 163.331 110.191 163.557 110.191C163.798 110.191 164.161 110.396 164.517 110.619C164.779 110.783 165.103 110.874 165.43 110.874C165.872 110.874 166.248 110.708 166.341 110.469C166.492 110.092 167.372 109.661 167.992 109.661C168.197 109.661 168.358 109.708 168.472 109.796C168.521 109.835 168.568 109.874 168.612 109.911C168.802 110.069 168.939 110.183 169.087 110.183C169.219 110.183 169.373 110.09 169.57 109.892C169.814 109.648 170.224 109.5 170.665 109.5C171.195 109.5 171.605 109.7 171.708 110.012C171.843 110.417 172.261 110.606 173.019 110.606C173.336 110.606 173.515 110.845 173.658 111.037C173.754 111.164 173.837 111.276 173.925 111.276C173.946 111.276 173.969 111.271 173.995 111.258C174.13 111.19 174.2 110.98 174.265 110.775C174.358 110.484 174.452 110.175 174.776 110.24C174.971 110.279 175.147 110.393 175.331 110.513C175.599 110.684 175.9 110.882 176.323 110.882C177.127 110.882 177.538 110.658 177.538 110.219C177.538 109.542 177.413 108.82 177.057 108.82C176.824 108.82 176.598 108.714 176.359 108.599C176.258 108.55 176.154 108.503 176.05 108.464L175.588 108.363C175.261 108.363 174.942 108.075 174.807 107.776L172.651 106.159L171.516 105.731C170.382 105.302 171.895 104.391 171.895 104.391L171.392 103.301C170.888 102.21 170.382 101.992 170.382 101.992L169.248 101.489C168.114 100.985 169.248 101.489 169.375 100.1C169.502 98.7106 169.375 100.1 170.006 99.3415C170.637 98.5834 170.006 99.3415 170.133 98.9624C170.26 98.5834 169.881 98.3316 169.251 97.3217C168.62 96.3117 169.251 97.3217 168.999 95.8081C168.747 94.2945 168.999 95.8081 169.502 94.6736C170.006 93.539 169.502 94.6736 170.512 94.6891C171.522 94.7047 171.143 93.6662 171.522 91.8982C171.9 90.1328 171.018 91.1402 171.018 91.1402L171.117 89.1385C171.117 89.1385 171.397 87.3549 171.649 86.345C171.9 85.3351 171.649 85.5869 171.27 83.2218C170.891 80.8541 171.27 81.9289 171.773 80.9216C172.277 79.9117 172.656 79.6598 173.463 78.0191C173.463 78.0191 174.927 74.361 175.682 73.3511C176.44 72.3412 175.682 73.3511 176.024 71.9622L176.393 69.0596V67.6707L178.204 65.9676C178.204 65.9676 180.979 63.7608 181.122 63.5064C181.262 63.2546 182.998 62.2447 184.259 61.4866C185.521 60.7285 185.648 60.3521 186.024 60.3521C186.401 60.3521 186.403 58.2076 187.158 56.694C187.916 55.1805 186.548 52.5531 186.548 52.5531L186.551 52.5583ZM92.9768 52.7452C93.0468 52.7842 93.1117 52.8257 93.1766 52.8699C93.1818 52.8725 93.187 52.8777 93.1948 52.8828C93.1247 52.8361 93.0546 52.7894 92.9768 52.7478V52.7452Z" fill="#ECF3FE"/>
<path d="M165.663 4.27834C167.635 4.27834 169.908 3.76423 170.012 3.02941C170.038 2.83986 170.012 2.70224 169.934 2.60877C169.789 2.43999 169.449 2.41922 169.138 2.41922C168.997 2.41922 168.846 2.42393 168.689 2.42887L168.665 2.4296C168.624 2.43076 168.582 2.43205 168.539 2.43335C168.39 2.43788 168.236 2.44259 168.079 2.44259C167.63 2.44259 167.043 2.41403 166.504 2.18553C165.829 1.89991 165.25 1.73633 164.915 1.73633C164.788 1.73633 164.703 1.76229 164.687 1.80643C164.677 1.8324 164.653 1.97521 165.11 2.37248C165.188 2.43999 165.19 2.50491 165.183 2.54905C165.141 2.74379 164.726 2.87621 164.054 3.07614L164.049 3.07766C163.569 3.22033 162.917 3.4143 162.876 3.58507C162.876 3.58629 162.875 3.58769 162.875 3.58928C162.874 3.60124 162.873 3.62401 162.909 3.66296C163.301 4.05504 164.306 4.28094 165.663 4.28094V4.27834Z" fill="#ECF3FE"/>
<path d="M165.663 4.27834C167.635 4.27834 169.908 3.76423 170.012 3.02941C170.038 2.83986 170.012 2.70224 169.934 2.60877C169.789 2.43999 169.449 2.41922 169.138 2.41922C168.997 2.41922 168.846 2.42393 168.689 2.42887L168.665 2.4296C168.624 2.43076 168.582 2.43205 168.539 2.43335C168.39 2.43788 168.236 2.44259 168.079 2.44259C167.63 2.44259 167.043 2.41403 166.504 2.18553C165.829 1.89991 165.25 1.73633 164.915 1.73633C164.788 1.73633 164.703 1.76229 164.687 1.80643C164.677 1.8324 164.653 1.97521 165.11 2.37248C165.188 2.43999 165.19 2.50491 165.183 2.54905C165.141 2.74379 164.726 2.87621 164.054 3.07614L164.049 3.07766C163.569 3.22033 162.917 3.4143 162.876 3.58507C162.876 3.58629 162.875 3.58769 162.875 3.58928C162.874 3.60124 162.873 3.62401 162.909 3.66296C163.301 4.05504 164.306 4.28094 165.663 4.28094V4.27834Z" stroke="#C2CFE0"/>
<path d="M151.725 51.3105C150.946 51.3105 150.131 51.7727 149.908 52.3414C149.765 52.7023 149.877 53.0658 150.23 53.393C150.609 53.7435 150.99 53.9123 151.398 53.9123C152.052 53.9123 152.662 53.4553 153.149 53.0892L153.157 53.0835C153.491 52.8341 153.779 52.6189 154.027 52.5803C154.081 52.5725 154.208 52.5465 154.211 52.4868C154.224 52.2687 153.318 51.6819 152.181 51.3703C152.039 51.3313 151.886 51.3105 151.725 51.3105Z" fill="#ECF3FE"/>
<path d="M151.725 51.3105C150.946 51.3105 150.131 51.7727 149.908 52.3414C149.765 52.7023 149.877 53.0658 150.23 53.393C150.609 53.7435 150.99 53.9123 151.398 53.9123C152.052 53.9123 152.662 53.4553 153.149 53.0892L153.157 53.0835C153.491 52.8341 153.779 52.6189 154.027 52.5803C154.081 52.5725 154.208 52.5465 154.211 52.4868C154.224 52.2687 153.318 51.6819 152.181 51.3703C152.039 51.3313 151.886 51.3105 151.725 51.3105Z" stroke="#C2CFE0"/>
<path d="M151.734 4.57115L151.713 4.57408C151.05 4.66703 150.232 4.78158 150.055 5.03853C149.847 5.33454 149.362 5.44359 148.892 5.54745C148.529 5.62795 148.155 5.71104 148.077 5.87202C148.052 5.92395 148.059 5.98887 148.101 6.06936C148.282 6.43547 149.271 6.63281 150.107 6.63281C150.473 6.63281 150.802 6.59646 151.039 6.53154C151.264 6.46923 151.392 6.37835 151.392 6.28747C151.392 5.90318 151.874 5.89279 152.297 5.885L152.312 5.88469C152.663 5.87704 153.022 5.86921 153.045 5.6643C153.076 5.38907 153.348 4.47508 155.559 4.3141C156.618 4.2388 156.774 3.99732 156.792 3.89605C156.834 3.67015 156.408 3.32741 155.655 2.97947C155.326 2.82628 154.957 2.75098 154.56 2.75098C153.642 2.75098 152.819 3.17162 152.699 3.54812C152.658 3.68054 152.707 3.79738 152.85 3.89865C152.851 3.89945 152.852 3.90028 152.853 3.90114C152.906 3.93979 153.052 4.04701 153.019 4.17908C152.967 4.3894 152.518 4.4621 151.731 4.57115H151.734Z" fill="#ECF3FE"/>
<path d="M151.734 4.57115L151.713 4.57408C151.05 4.66703 150.232 4.78158 150.055 5.03853C149.847 5.33454 149.362 5.44359 148.892 5.54745C148.529 5.62795 148.155 5.71104 148.077 5.87202C148.052 5.92395 148.059 5.98887 148.101 6.06936C148.282 6.43547 149.271 6.63281 150.107 6.63281C150.473 6.63281 150.802 6.59646 151.039 6.53154C151.264 6.46923 151.392 6.37835 151.392 6.28747C151.392 5.90318 151.874 5.89279 152.297 5.885L152.312 5.88469C152.663 5.87704 153.022 5.86921 153.045 5.6643C153.076 5.38907 153.348 4.47508 155.559 4.3141C156.618 4.2388 156.774 3.99732 156.792 3.89605C156.834 3.67015 156.408 3.32741 155.655 2.97947C155.326 2.82628 154.957 2.75098 154.56 2.75098C153.642 2.75098 152.819 3.17162 152.699 3.54812C152.658 3.68054 152.707 3.79738 152.85 3.89865C152.851 3.89945 152.852 3.90028 152.853 3.90114C152.906 3.93979 153.052 4.04701 153.019 4.17908C152.967 4.3894 152.518 4.4621 151.731 4.57115H151.734Z" stroke="#C2CFE0"/>
<path d="M169.04 1.80269C169.795 1.80269 170.022 1.55512 170.221 1.33755L170.223 1.33531L170.224 1.33428C170.405 1.13472 170.577 0.945935 171.067 1.00814C171.334 1.0419 171.609 1.06008 171.861 1.06008C172.414 1.06008 172.787 0.971793 172.857 0.82379C172.888 0.761473 172.86 0.675787 172.777 0.571926C172.611 0.364202 171.972 0.234375 171.111 0.234375C170.088 0.234375 169.286 0.408343 169.206 0.566732C169.206 0.567377 169.205 0.568022 169.205 0.568675C169.203 0.575918 169.2 0.584245 169.216 0.60568C169.273 0.683576 169.263 0.745893 169.245 0.787438C169.136 1.01593 168.412 1.06008 167.319 1.10162C166.964 1.1146 166.564 1.13018 166.432 1.16134C166.608 1.44436 167.555 1.80269 169.037 1.80269H169.04Z" fill="#ECF3FE"/>
<path d="M169.04 1.80269C169.795 1.80269 170.022 1.55512 170.221 1.33755L170.223 1.33531L170.224 1.33428C170.405 1.13472 170.577 0.945935 171.067 1.00814C171.334 1.0419 171.609 1.06008 171.861 1.06008C172.414 1.06008 172.787 0.971793 172.857 0.82379C172.888 0.761473 172.86 0.675787 172.777 0.571926C172.611 0.364202 171.972 0.234375 171.111 0.234375C170.088 0.234375 169.286 0.408343 169.206 0.566732C169.206 0.567377 169.205 0.568022 169.205 0.568675C169.203 0.575918 169.2 0.584245 169.216 0.60568C169.273 0.683576 169.263 0.745893 169.245 0.787438C169.136 1.01593 168.412 1.06008 167.319 1.10162C166.964 1.1146 166.564 1.13018 166.432 1.16134C166.608 1.44436 167.555 1.80269 169.037 1.80269H169.04Z" stroke="#C2CFE0"/>
<path d="M169.411 5.149C169.471 5.31258 169.469 5.43722 169.401 5.53329C169.245 5.75919 168.765 5.79814 167.815 5.79814C167.008 5.79814 166.533 6.09674 166.432 6.37717C166.37 6.55373 166.44 6.7329 166.637 6.89648C166.886 7.1042 167.501 7.22883 168.285 7.22883C169.398 7.22883 170.74 6.97178 171.065 6.54335C171.357 6.15305 171.867 6.11783 172.317 6.08678L172.323 6.08636L172.327 6.08611C172.769 6.05506 173.149 6.0284 173.258 5.70466C173.265 5.68129 173.273 5.64235 173.234 5.59301C172.993 5.25806 171.514 5.00879 170.348 5.00879C169.614 5.00879 169.419 5.11005 169.409 5.14641L169.411 5.149Z" fill="#ECF3FE"/>
<path d="M169.411 5.149C169.471 5.31258 169.469 5.43722 169.401 5.53329C169.245 5.75919 168.765 5.79814 167.815 5.79814C167.008 5.79814 166.533 6.09674 166.432 6.37717C166.37 6.55373 166.44 6.7329 166.637 6.89648C166.886 7.1042 167.501 7.22883 168.285 7.22883C169.398 7.22883 170.74 6.97178 171.065 6.54335C171.357 6.15305 171.867 6.11783 172.317 6.08678L172.323 6.08636L172.327 6.08611C172.769 6.05506 173.149 6.0284 173.258 5.70466C173.265 5.68129 173.273 5.64235 173.234 5.59301C172.993 5.25806 171.514 5.00879 170.348 5.00879C169.614 5.00879 169.419 5.11005 169.409 5.14641L169.411 5.149Z" stroke="#C2CFE0"/>
<path d="M193.125 21.8986C192.811 21.652 192.338 21.5273 191.726 21.5273C189.945 21.5273 187.519 22.5762 186.847 23.124C186.293 23.5744 185.61 23.6067 184.953 23.6378L184.947 23.638L184.939 23.6384C184.402 23.6642 183.896 23.6886 183.47 23.9262C182.868 24.2663 181.742 24.6298 180.698 24.6298C180.112 24.6298 179.639 24.5155 179.294 24.2897C179.123 24.178 178.939 24.1235 178.734 24.1235C178.291 24.1235 177.832 24.3772 177.391 24.621L177.389 24.622L177.389 24.6224C176.979 24.8481 176.598 25.0581 176.266 25.0348C175.895 25.0045 175.51 25.1798 175.096 25.3681C175.084 25.3738 175.071 25.3795 175.059 25.3853L175.055 25.3869C174.61 25.5915 174.149 25.8032 173.694 25.7695C172.86 25.7124 171.184 26.4367 171.072 26.8807C171.005 27.1467 170.65 27.2457 170.271 27.3516L170.265 27.3532L170.258 27.3551C169.876 27.461 169.481 27.5704 169.481 27.8438C169.481 28.3034 168.879 28.7551 168.264 28.7551C167.999 28.7551 167.766 28.6694 167.587 28.5085C167.496 28.4254 167.4 28.3839 167.301 28.3839C167.13 28.3839 166.966 28.5214 166.883 28.7343C166.774 29.0147 166.798 29.4457 167.195 29.8143C167.356 29.9649 167.423 30.1025 167.395 30.2375C167.343 30.4999 166.955 30.6451 166.577 30.7866L166.567 30.7905C166.328 30.8788 166.03 30.9904 166.004 31.0891C166.004 31.09 166.004 31.0911 166.003 31.0924C166.002 31.1025 166 31.1253 166.035 31.1644C166.11 31.25 166.144 31.3383 166.136 31.4292C166.123 31.6149 165.946 31.7647 165.761 31.9219L165.757 31.925C165.487 32.1535 165.318 32.3197 165.43 32.5248C165.498 32.6468 165.508 32.7636 165.459 32.8701C165.298 33.2153 164.535 33.3659 163.795 33.5113L163.606 33.5502C163.079 33.6567 162.713 34.1188 162.739 34.4615C162.757 34.7107 162.975 34.8587 163.351 34.8795C163.691 34.8977 163.785 34.9236 163.805 35.0041C163.826 35.0898 163.741 35.1391 163.569 35.2326C163.284 35.3909 162.809 35.6557 162.868 36.1049C162.889 36.2555 162.858 36.3801 162.778 36.4787C162.589 36.7114 162.171 36.7407 161.765 36.7692L161.76 36.7695C161.462 36.7903 161.153 36.8136 161.06 36.9227C161.036 36.9486 161.028 36.9824 161.034 37.0239C161.062 37.3199 160.995 37.5613 160.831 37.7431C160.59 38.0079 160.141 38.1429 159.492 38.1429C159.188 38.1429 159.16 38.1948 159.16 38.1974C159.14 38.2491 159.368 38.4501 159.506 38.5726C159.514 38.5793 159.521 38.5858 159.528 38.592L159.537 38.5993C159.838 38.8623 160.178 39.1583 160.234 39.4695C160.302 39.8379 160.009 39.9211 159.726 40.0015L159.726 40.0018L159.72 40.0034C159.384 40.0989 159.04 40.1968 159.012 40.7131C158.978 41.2635 158.41 41.2998 157.86 41.331L157.856 41.3312C157.232 41.3701 156.588 41.4102 156.437 42.0709C156.362 42.4058 156.391 42.6525 156.526 42.8264C156.787 43.1634 157.411 43.1794 158.018 43.195L158.02 43.1951C158.168 43.1977 158.316 43.2028 158.454 43.2106C158.664 43.2236 158.791 43.2755 158.854 43.3742C158.942 43.5143 158.867 43.7012 158.786 43.9011L158.786 43.9012L158.784 43.9069C158.665 44.2063 158.542 44.518 158.859 44.7554C159.23 45.0332 159.583 45.124 159.687 44.9605C159.772 44.8255 159.72 44.5373 159.549 44.1686C159.479 44.018 159.471 43.8986 159.523 43.8155C159.572 43.7377 159.666 43.6987 159.798 43.6987C160.265 43.6987 161.27 44.2283 161.472 44.7683C161.555 44.9916 161.501 45.1941 161.311 45.3577C161.156 45.4927 161.101 45.6173 161.145 45.7419C161.316 46.2404 162.918 46.6506 163.904 46.7025C164.192 46.7181 164.659 46.783 165.196 46.8609L165.2 46.8614C166.095 46.9885 167.207 47.1464 168.038 47.1464C168.794 47.1464 169.188 47.0192 169.214 46.7674C169.242 46.4773 168.788 46.1617 168.211 45.7605L168.191 45.7471C167.665 45.3836 167.011 44.9293 166.419 44.3114C165.575 43.4287 164.789 42.0424 164.927 40.9364C164.991 40.4145 165.251 40.0095 165.697 39.7318C166.406 39.288 166.447 38.9687 166.492 38.6313L166.492 38.631L166.492 38.6255C166.539 38.2764 166.592 37.8805 167.348 37.3459C168.053 36.8473 168.206 36.3667 168.327 35.9834L168.329 35.9777L168.33 35.9734C168.457 35.573 168.557 35.2557 169.219 35.191C169.761 35.1366 169.738 34.9089 169.707 34.5906L169.707 34.5887C169.676 34.2746 169.64 33.8852 170.317 33.7839C170.883 33.6982 171.192 33.3581 171.353 33.0881C171.604 32.6624 171.648 32.1275 171.547 31.8601C171.516 31.7797 171.521 31.7122 171.558 31.6602C171.638 31.5408 171.856 31.533 172.155 31.5252C172.585 31.5122 173.175 31.4941 173.52 31.115C173.836 30.7699 174.339 30.6816 174.827 30.5959L174.828 30.5958L174.833 30.5949C175.438 30.4888 176.007 30.3892 176.263 29.8455C176.787 28.7291 184.176 26.2991 187.825 25.4554C190.929 24.7388 193.244 23.5757 193.454 22.6307C193.511 22.3685 193.402 22.1245 193.125 21.9064V21.8986Z" fill="#ECF3FE"/>
<path d="M193.125 21.8986C192.811 21.652 192.338 21.5273 191.726 21.5273C189.945 21.5273 187.519 22.5762 186.847 23.124C186.293 23.5744 185.61 23.6067 184.953 23.6378L184.947 23.638L184.939 23.6384C184.402 23.6642 183.896 23.6886 183.47 23.9262C182.868 24.2663 181.742 24.6298 180.698 24.6298C180.112 24.6298 179.639 24.5155 179.294 24.2897C179.123 24.178 178.939 24.1235 178.734 24.1235C178.291 24.1235 177.832 24.3772 177.391 24.621L177.389 24.622L177.389 24.6224C176.979 24.8481 176.598 25.0581 176.266 25.0348C175.895 25.0045 175.51 25.1798 175.096 25.3681C175.084 25.3738 175.071 25.3795 175.059 25.3853L175.055 25.3869C174.61 25.5915 174.149 25.8032 173.694 25.7695C172.86 25.7124 171.184 26.4367 171.072 26.8807C171.005 27.1467 170.65 27.2457 170.271 27.3516L170.265 27.3532L170.258 27.3551C169.876 27.461 169.481 27.5704 169.481 27.8438C169.481 28.3034 168.879 28.7551 168.264 28.7551C167.999 28.7551 167.766 28.6694 167.587 28.5085C167.496 28.4254 167.4 28.3839 167.301 28.3839C167.13 28.3839 166.966 28.5214 166.883 28.7343C166.774 29.0147 166.798 29.4457 167.195 29.8143C167.356 29.9649 167.423 30.1025 167.395 30.2375C167.343 30.4999 166.955 30.6451 166.577 30.7866L166.567 30.7905C166.328 30.8788 166.03 30.9904 166.004 31.0891C166.004 31.09 166.004 31.0911 166.003 31.0924C166.002 31.1025 166 31.1253 166.035 31.1644C166.11 31.25 166.144 31.3383 166.136 31.4292C166.123 31.6149 165.946 31.7647 165.761 31.9219L165.757 31.925C165.487 32.1535 165.318 32.3197 165.43 32.5248C165.498 32.6468 165.508 32.7636 165.459 32.8701C165.298 33.2153 164.535 33.3659 163.795 33.5113L163.606 33.5502C163.079 33.6567 162.713 34.1188 162.739 34.4615C162.757 34.7107 162.975 34.8587 163.351 34.8795C163.691 34.8977 163.785 34.9236 163.805 35.0041C163.826 35.0898 163.741 35.1391 163.569 35.2326C163.284 35.3909 162.809 35.6557 162.868 36.1049C162.889 36.2555 162.858 36.3801 162.778 36.4787C162.589 36.7114 162.171 36.7407 161.765 36.7692L161.76 36.7695C161.462 36.7903 161.153 36.8136 161.06 36.9227C161.036 36.9486 161.028 36.9824 161.034 37.0239C161.062 37.3199 160.995 37.5613 160.831 37.7431C160.59 38.0079 160.141 38.1429 159.492 38.1429C159.188 38.1429 159.16 38.1948 159.16 38.1974C159.14 38.2491 159.368 38.4501 159.506 38.5726C159.514 38.5793 159.521 38.5858 159.528 38.592L159.537 38.5993C159.838 38.8623 160.178 39.1583 160.234 39.4695C160.302 39.8379 160.009 39.9211 159.726 40.0015L159.726 40.0018L159.72 40.0034C159.384 40.0989 159.04 40.1968 159.012 40.7131C158.978 41.2635 158.41 41.2998 157.86 41.331L157.856 41.3312C157.232 41.3701 156.588 41.4102 156.437 42.0709C156.362 42.4058 156.391 42.6525 156.526 42.8264C156.787 43.1634 157.411 43.1794 158.018 43.195L158.02 43.1951C158.168 43.1977 158.316 43.2028 158.454 43.2106C158.664 43.2236 158.791 43.2755 158.854 43.3742C158.942 43.5143 158.867 43.7012 158.786 43.9011L158.786 43.9012L158.784 43.9069C158.665 44.2063 158.542 44.518 158.859 44.7554C159.23 45.0332 159.583 45.124 159.687 44.9605C159.772 44.8255 159.72 44.5373 159.549 44.1686C159.479 44.018 159.471 43.8986 159.523 43.8155C159.572 43.7377 159.666 43.6987 159.798 43.6987C160.265 43.6987 161.27 44.2283 161.472 44.7683C161.555 44.9916 161.501 45.1941 161.311 45.3577C161.156 45.4927 161.101 45.6173 161.145 45.7419C161.316 46.2404 162.918 46.6506 163.904 46.7025C164.192 46.7181 164.659 46.783 165.196 46.8609L165.2 46.8614C166.095 46.9885 167.207 47.1464 168.038 47.1464C168.794 47.1464 169.188 47.0192 169.214 46.7674C169.242 46.4773 168.788 46.1617 168.211 45.7605L168.191 45.7471C167.665 45.3836 167.011 44.9293 166.419 44.3114C165.575 43.4287 164.789 42.0424 164.927 40.9364C164.991 40.4145 165.251 40.0095 165.697 39.7318C166.406 39.288 166.447 38.9687 166.492 38.6313L166.492 38.631L166.492 38.6255C166.539 38.2764 166.592 37.8805 167.348 37.3459C168.053 36.8473 168.206 36.3667 168.327 35.9834L168.329 35.9777L168.33 35.9734C168.457 35.573 168.557 35.2557 169.219 35.191C169.761 35.1366 169.738 34.9089 169.707 34.5906L169.707 34.5887C169.676 34.2746 169.64 33.8852 170.317 33.7839C170.883 33.6982 171.192 33.3581 171.353 33.0881C171.604 32.6624 171.648 32.1275 171.547 31.8601C171.516 31.7797 171.521 31.7122 171.558 31.6602C171.638 31.5408 171.856 31.533 172.155 31.5252C172.585 31.5122 173.175 31.4941 173.52 31.115C173.836 30.7699 174.339 30.6816 174.827 30.5959L174.828 30.5958L174.833 30.5949C175.438 30.4888 176.007 30.3892 176.263 29.8455C176.787 28.7291 184.176 26.2991 187.825 25.4554C190.929 24.7388 193.244 23.5757 193.454 22.6307C193.511 22.3685 193.402 22.1245 193.125 21.9064V21.8986Z" stroke="#C2CFE0"/>
<path d="M182.191 3.82754C182.7 3.82754 183.278 3.76003 183.787 3.69771C183.899 3.68409 184.008 3.67158 184.114 3.65946C184.169 3.6531 184.224 3.64684 184.278 3.64059C185.588 3.50297 186.073 3.03819 186.089 2.67987C186.105 2.37088 185.79 2.10084 185.31 2.00477C185.183 1.9788 185.064 1.96582 184.952 1.96582C184.489 1.96582 184.22 2.18252 183.983 2.37341L183.976 2.37867C183.769 2.54745 183.569 2.70843 183.299 2.67727C183.263 2.67468 183.221 2.67208 183.175 2.67208C182.531 2.67208 181.031 2.98626 180.875 3.3342C180.862 3.36536 180.852 3.4121 180.912 3.47701C181.122 3.7107 181.54 3.82235 182.194 3.82235L182.191 3.82754Z" fill="#ECF3FE"/>
<path d="M182.191 3.82754C182.7 3.82754 183.278 3.76003 183.787 3.69771C183.899 3.68409 184.008 3.67158 184.114 3.65946C184.169 3.6531 184.224 3.64684 184.278 3.64059C185.588 3.50297 186.073 3.03819 186.089 2.67987C186.105 2.37088 185.79 2.10084 185.31 2.00477C185.183 1.9788 185.064 1.96582 184.952 1.96582C184.489 1.96582 184.22 2.18252 183.983 2.37341L183.976 2.37867C183.769 2.54745 183.569 2.70843 183.299 2.67727C183.263 2.67468 183.221 2.67208 183.175 2.67208C182.531 2.67208 181.031 2.98626 180.875 3.3342C180.862 3.36536 180.852 3.4121 180.912 3.47701C181.122 3.7107 181.54 3.82235 182.194 3.82235L182.191 3.82754Z" stroke="#C2CFE0"/>
</svg>
