<svg width="98" height="158" viewBox="0 0 98 158" fill="none" xmlns="http://www.w3.org/2000/svg">
<path d="M96.8431 38.7082C96.4745 37.1453 95.971 37.4672 95.0523 37.5139C94.1335 37.5581 92.3895 37.3296 90.0926 34.8476C87.7958 32.3683 85.5456 32.5526 84.03 32.9654C82.5143 33.3808 80.9519 32.2307 79.9423 32.0022C78.9328 31.7738 77.9673 33.0589 77.2328 33.3341C76.4983 33.6093 77.5988 32.2307 77.6455 31.3584C77.6922 30.4861 74.8892 29.2451 72.7767 28.4169C70.6641 27.5887 69.7453 28.0041 69.7453 29.336C69.7453 30.6678 68.9174 28.9232 68.2764 30.3459C67.6327 31.7712 66.4389 30.8521 67.2201 30.3926C68.0013 29.9331 68.7357 28.8764 69.0108 28.0041C69.2859 27.1318 65.9795 26.4412 64.8324 26.9007C63.6852 27.3603 64.4197 29.014 63.501 28.5078C62.5822 28.0015 63.3167 26.7631 64.0512 26.8073C64.7857 26.854 65.6136 25.3378 66.1171 24.2345C66.6232 23.1311 65.245 22.9468 64.4171 22.0277C63.5996 21.119 63.7683 18.4683 62.93 18.0504C62.9196 18.0452 62.9118 18.0348 62.9015 18.0322C62.0268 17.6661 60.6954 15.5528 59.364 15.2751C58.7827 15.1556 58.1935 14.9142 57.6226 14.6909C56.8829 14.4001 56.1718 14.1405 55.5515 14.221C54.4485 14.3586 53.3014 14.8649 52.8887 14.2677C52.4735 13.6706 51.8765 13.7641 51.3263 14.221C51.264 14.2729 51.194 14.2885 51.1213 14.2781C50.5503 14.221 49.7017 12.5646 49.2137 12.5646C48.6635 12.5646 48.0199 12.1051 48.1574 11.3237C48.295 10.5422 46.8728 10.4514 46.0916 9.57904C45.9073 9.36875 45.6374 9.21816 45.3311 9.10133C44.3423 8.72748 42.9227 8.76124 42.3284 8.79759C41.5472 8.84432 42.8344 7.92527 42.8786 7.09709C42.9253 6.26891 40.6751 6.1313 39.8005 5.94957C38.9285 5.76524 39.1569 4.8462 40.0756 4.80206C40.9944 4.75533 39.5695 4.11147 38.3316 4.2958C37.091 4.48013 35.3469 5.16811 34.3374 5.7185C33.3278 6.26889 31.5811 4.11147 30.434 4.571C29.2869 5.03052 27.6778 5.03053 27.7245 4.11148C27.7712 3.19244 27.2651 2.41099 26.118 2.50445C24.9709 2.59531 25.2459 1.35433 24.3739 1.35433C23.5019 1.35433 24.3739 2.41097 23.777 2.68617C23.1801 2.96136 21.1142 3.46762 20.9741 4.2932C20.8365 5.11879 22.0771 6.49736 21.6618 7.32554C21.2492 8.15112 19.871 7.46315 19.4584 6.59083C19.0431 5.71852 20.6522 4.38408 20.3771 3.88042C20.1851 3.52994 19.9411 2.87829 20.1046 2.44472C20.1773 2.25001 20.3252 2.09684 20.6081 2.03972C21.5268 1.85539 21.9862 1.25828 21.1116 0.752026C20.2396 0.245771 19.7335 1.71781 18.7706 1.8554C17.8052 1.993 17.6235 2.59011 16.9799 2.91203C16.3362 3.23136 15.1424 2.95878 15.0982 3.50917C15.0489 4.11148 14.6856 3.50916 14.1328 3.37156C13.58 3.23137 12.1577 4.47235 12.2045 5.16293C12.2512 5.85092 12.4796 6.49477 11.47 7.13862C10.4604 7.78247 9.86348 8.97672 9.40411 9.52711C9.26396 9.69586 9.11344 9.70884 8.95253 9.63355C8.89284 9.9347 8.80459 10.1787 8.66703 10.2826C8.41269 10.4669 7.80279 11.09 7.27075 11.6378C7.53028 11.8844 7.76907 12.1077 7.93517 12.2843C8.57881 12.9722 8.16355 13.5252 8.34781 13.8939C8.53208 14.2599 8.71375 14.8129 8.34781 15.0414C7.97928 15.2699 8.30111 17.7985 8.71376 18.2581C9.12642 18.7176 8.71376 19.1304 8.25439 20.0494C7.79501 20.9685 7.38236 21.3813 6.55445 21.428C5.72655 21.4747 5.77326 22.7624 5.49816 22.7624C5.28015 22.7624 5.11923 23.2271 5.08549 23.627C5.07771 23.7282 5.07511 23.8269 5.08549 23.9099C5.13221 24.3227 4.44186 24.5979 3.66326 24.6447C2.88207 24.6914 2.9755 25.5637 2.9755 26.1608C2.9755 26.758 2.33186 26.7579 2.05676 27.4018C1.78165 28.0457 2.1476 28.1833 1.50655 28.5052C0.862913 28.8271 0.681235 29.3775 1.04718 29.9305C1.41571 30.4809 1.00047 30.9871 0.909631 31.3065C0.818795 31.6284 1.45983 31.766 2.10347 32.3631C2.74711 32.9602 2.83795 32.1346 3.11306 32.5916C3.38816 33.0511 2.92878 33.8793 2.1943 33.8793C2.13721 33.8793 2.08271 33.8948 2.02562 33.9078C1.34305 34.048 0.650087 34.9956 0.312695 35.7174C-0.0558406 36.4988 0.956337 38.015 1.09389 38.5654C1.23144 39.1158 0.543686 38.6121 0.450255 39.1158C0.359418 39.622 1.96592 40.3567 2.70039 40.9071C3.43487 41.4575 4.07851 43.0204 4.76627 43.7551C5.45403 44.4899 5.50074 45.1337 6.23522 46.9251C6.9697 48.7164 8.44125 51.7488 9.45083 53.0339C10.4604 54.3216 10.9198 55.3315 10.6914 55.7002C10.4604 56.0662 10.7381 57.0787 11.4726 57.585C12.2071 58.0886 12.804 58.9168 14.7323 59.8826C16.6606 60.8458 20.198 62.6839 20.7041 63.5562C21.2102 64.4285 22.8634 65.2567 23.1853 65.4384C23.2735 65.4904 23.2995 65.6331 23.3021 65.8253C23.3072 66.3315 23.123 67.1883 23.3228 67.6893C23.5979 68.3773 23.7355 71.7316 23.4604 73.0167C23.1853 74.3044 22.9076 75.3584 22.6325 76.1399C22.3573 76.9213 23.2761 76.9681 22.9076 77.3341C22.5416 77.7002 22.6792 78.6218 22.6792 80.0913C22.6792 81.5607 21.8071 84.0427 21.7604 84.8241C21.7163 85.6056 21.1168 86.1092 21.2102 86.9841C21.3011 87.8564 20.7976 88.3627 20.2915 88.7755C19.7854 89.1883 21.1168 90.5227 21.0727 91.2548C21.026 91.9895 20.0605 92.3115 20.2915 93.5057C20.5796 94.9985 20.2915 97.548 20.2915 98.0542C20.2915 98.5605 19.6946 98.5138 19.8321 99.4795C19.9697 100.445 19.2352 100.674 19.0976 102.052C18.9601 103.431 17.9038 105.407 17.4911 106.463C17.0785 107.52 17.0785 108.117 16.5257 108.117C15.9729 108.117 15.8379 108.714 16.2506 109.633C16.6632 110.552 15.9755 111.334 16.5257 112.25C17.0759 113.169 16.8916 113.491 16.6165 114.363C16.3414 115.236 15.9729 115.283 15.9729 116.108C15.9729 116.934 15.3292 117.624 15.6978 118.543C16.0663 119.462 15.9729 119.784 15.5135 119.784C15.0541 119.784 14.8231 120.519 14.6415 122.035C14.4572 123.551 14.5039 123.505 15.6069 123.414C16.7099 123.323 15.8353 119.693 16.5257 119.693C17.216 119.693 16.6165 119.096 17.3069 118.912C17.9946 118.728 17.3977 119.553 17.8571 119.693C18.3164 119.831 18.6383 120.2 17.9946 120.612C17.351 121.028 18.1322 121.853 17.8104 122.357C17.4885 122.863 17.0292 123.414 17.3043 124.011C17.5794 124.608 16.9825 124.561 16.9357 125.343C16.889 126.124 17.3484 126.171 17.0266 126.353C16.7047 126.537 17.4392 127.134 16.9799 127.225C16.5205 127.316 16.7956 127.913 17.0707 128.466C17.3458 129.016 16.4738 128.694 16.0144 129.063C15.555 129.429 16.4738 129.935 16.1987 130.442C15.9236 130.948 15.1891 130.166 14.8673 129.891C14.5454 129.616 15.3734 129.063 15.786 128.513C16.1987 127.962 15.3734 126.721 14.683 126.996C13.9926 127.272 15.3708 128.053 15.3708 128.65C15.3708 129.247 14.2236 128.513 14.2677 129.156C14.3145 129.8 13.4866 129.569 13.0739 130.029C12.6612 130.488 13.6241 130.901 13.1647 131.041C12.7054 131.179 11.9242 131.823 11.8774 132.282C11.8333 132.742 12.3835 132.833 12.3835 132.373C12.3835 131.914 13.118 131.776 13.3464 132.373C13.5774 132.97 13.8992 132.373 14.5402 132.511C15.1839 132.648 15.0905 133.614 14.7245 133.567C14.3586 133.523 13.99 134.165 14.0809 134.853C14.1717 135.543 15.459 134.852 16.0092 135.037C16.5594 135.221 16.3777 136.184 16.0559 135.862C15.7341 135.54 14.9996 134.99 14.6778 135.54C14.356 136.091 13.8499 135.816 13.4372 135.631C13.022 135.447 11.553 136.413 12.0591 136.779C12.5652 137.145 12.5185 137.742 12.8403 137.698C13.1621 137.651 13.6656 137.42 13.8499 137.054C14.0342 136.685 14.6778 136.319 14.7219 137.145C14.7686 137.973 13.8499 137.56 13.6656 138.017C13.4814 138.477 13.1154 138.845 12.5626 139.258C12.0124 139.671 12.5626 140.362 13.022 140.131C13.4814 139.899 12.8844 140.681 13.5281 140.774C14.1224 140.86 14.3093 140.406 14.1717 139.946C14.0342 139.487 14.4935 138.477 15.0437 138.983C15.5939 139.489 14.7686 139.996 14.7686 140.452C14.7686 140.909 14.4468 141.509 14.4468 142.013C14.4468 142.516 13.8499 142.244 13.8966 142.794C13.9433 143.345 12.6093 142.976 13.2063 143.345C13.8032 143.711 12.8403 144.217 13.1595 144.586C13.4814 144.952 13.7565 144.079 14.2625 144.264C14.7686 144.448 14.6752 144.586 15.3188 144.31C15.9625 144.035 16.3284 144.817 15.7315 144.998C15.1346 145.183 14.4909 145.871 14.7686 145.964C15.0437 146.055 15.8249 145.505 16.0092 146.102C16.1935 146.699 16.6528 146.517 16.6996 145.873C16.7463 145.232 17.8467 145.782 18.031 146.333C18.2152 146.883 16.8838 147.205 16.1935 147.068C15.5057 146.93 15.1372 147.711 15.5965 148.308C16.0559 148.906 16.6061 148.309 17.1122 147.802C17.6183 147.296 20.0968 147.434 20.2811 147.987C20.4654 148.537 19.134 148.077 18.9964 148.399C18.8589 148.721 17.8493 148.996 17.7091 148.63C17.5716 148.262 16.6061 148.768 16.562 149.365C16.5153 149.962 15.7808 149.962 16.6087 150.193C17.4366 150.422 17.2057 149.321 18.4929 149.412C19.7802 149.503 20.468 148.218 20.8365 148.952C21.2024 149.687 19.7802 150.284 19.2741 149.825C18.768 149.365 18.1711 150.147 18.2178 150.837C18.2645 151.525 16.7489 150.653 16.0144 150.562C15.2799 150.471 15.6017 151.253 16.2428 151.941C16.8864 152.631 17.2524 151.85 18.0336 152.353C18.8147 152.86 18.8147 153.41 19.365 152.904C19.9178 152.397 19.3649 152.444 18.999 152.216C18.6305 151.985 18.9523 151.203 19.8243 151.619C20.6964 152.031 21.7085 151.253 21.4308 150.149C21.1557 149.046 22.212 148.54 23.2683 148.174C24.3246 147.807 23.7744 148.861 22.9932 149.183C22.212 149.505 22.0745 149.736 22.6714 150.378C23.2683 151.022 24.0495 149.962 24.5556 150.469C25.0617 150.975 23.6369 150.881 23.4085 151.388C23.1801 151.891 24.2805 152.488 23.4993 152.857C22.7181 153.226 23.0866 151.341 22.6273 151.157C22.1679 150.972 21.7552 151.388 22.2146 152.444C22.674 153.498 21.6644 152.582 21.205 152.076C20.7457 151.569 20.102 152.307 20.6548 152.857C21.205 153.407 19.5985 152.81 19.5985 153.685C19.5985 154.56 20.2863 153.823 21.1142 154.007C21.9421 154.191 21.5736 155.386 22.1705 155.845C22.7674 156.305 22.2613 154.376 22.905 154.238C23.5486 154.101 22.9517 155.708 24.3765 156.167C25.8013 156.627 24.4674 155.892 25.111 155.432C25.7546 154.973 26.58 156.811 27.2703 156.993C27.9581 157.177 27.4987 156.167 26.9952 155.614C26.4891 155.064 27.5013 155.386 28.189 155.614C28.8794 155.845 29.4296 155.936 29.5672 155.43C29.6191 155.24 29.7462 155.245 29.9097 155.297C30.1874 155.386 30.5638 155.609 30.8518 155.292C31.3112 154.786 32.6893 155.064 33.4238 154.604C34.1583 154.142 33.1928 154.007 32.0457 153.96C30.8986 153.914 28.6484 151.8 27.9581 151.25C27.2703 150.697 27.7738 150.147 26.9485 150.284C26.1206 150.422 26.6734 149.64 27.1301 149.412C27.5532 149.199 26.9667 148.415 26.4061 148.288C26.3568 148.277 26.3074 148.262 26.2581 148.262C25.6612 148.262 24.3298 148.399 24.5582 147.48C24.5971 147.319 24.6854 147.223 24.7996 147.174C25.3316 146.938 26.4969 147.698 26.7616 147.436C27.0834 147.114 25.6145 145.92 25.6586 145.507C25.7053 145.092 25.4276 144.404 25.4276 143.944C25.4276 143.485 25.1966 142.475 25.8403 142.013C26.4839 141.553 26.5306 141.094 26.9433 141.187C27.3559 141.278 28.1838 140.819 28.228 139.715C28.2747 138.614 28.7782 138.199 29.6969 137.418C30.6961 136.569 32.3597 135.764 32.1313 135.398C31.9004 135.032 32.4999 133.837 32.4999 133.375C32.4999 132.913 30.9375 133.007 30.434 132.825C29.9279 132.641 28.093 131.355 29.0118 129.655C29.9305 127.954 31.8588 127.77 32.409 127.726C32.9592 127.679 32.4558 126.9 32.9151 126.623C33.3745 126.347 33.4653 125.888 33.4653 125.2C33.4653 124.418 33.4653 123.177 34.2906 123.087C35.1186 122.993 35.3469 122.534 34.8409 122.399C34.3348 122.261 34.1064 121.664 34.9317 121.57C35.757 121.48 35.4819 122.261 36.0788 122.261C36.6757 122.261 37.6853 121.249 36.9067 120.654C36.1255 120.057 35.8971 120.929 35.4845 121.023C35.0692 121.114 34.75 120.47 34.3374 120.47C33.9247 120.47 34.1998 119.322 34.0155 118.909C33.8313 118.497 33.5562 117.484 33.9221 116.978C34.2906 116.472 35.8504 117.759 37.2286 117.853C38.6067 117.946 39.6162 117.165 39.6162 116.656C39.6162 116.147 38.9726 115.233 39.8005 114.683C40.6258 114.132 39.9381 113.948 39.7097 113.213C39.4787 112.479 40.0782 112.019 40.4441 112.385C40.8127 112.751 43.5222 112.523 45.7723 112.063C48.0225 111.604 49.5849 110.776 49.7224 110.134C49.86 109.49 51.2848 107.974 51.6066 107.424C51.9284 106.873 51.6533 106.183 50.7346 106.045C49.8159 105.908 49.86 104.851 50.3661 104.254C50.8722 103.657 50.091 103.104 49.2189 103.013C48.3469 102.919 46.9688 102.325 47.75 101.588C48.1263 101.232 48.3106 101.305 48.4922 101.466C48.6869 101.64 48.8815 101.91 49.3124 101.863C50.1403 101.772 50.9656 102.094 51.9752 102.553C52.9847 103.013 52.6188 102.413 53.5817 102.553C54.5471 102.691 55.6475 102.782 56.7038 102.138C57.4279 101.697 57.7913 100.933 58.3571 100.201C58.6192 99.8638 58.9177 99.5315 59.3225 99.2433C60.6072 98.3242 60.288 97.7739 60.8849 96.6705C61.4818 95.5671 60.9783 95.1076 61.9879 94.1418C62.9975 93.176 61.8036 92.5348 63.0909 91.9376C64.3782 91.3405 64.1939 92.488 63.1376 93.8199C62.0813 95.1543 61.8971 95.5204 63.2752 94.5105C64.6533 93.4979 65.1594 92.0752 65.938 90.4656C66.7192 88.8586 67.3161 88.3523 68.0039 88.2615C68.6916 88.1706 68.6916 86.4701 68.6008 85.2759C68.51 84.0816 68.1414 82.9782 68.6475 82.1968C69.1536 81.4153 68.6475 80.6806 69.2911 80.6806C69.9348 80.6806 70.8977 79.7148 71.9072 78.7049C72.9194 77.695 73.5604 77.6041 74.6167 77.5107C75.673 77.4198 75.0761 77.0512 75.7639 76.8668C76.4516 76.6825 76.911 76.0412 77.3704 75.6258C77.8298 75.2131 79.7114 75.6726 80.8144 75.6726C81.9174 75.6726 82.6518 75.766 82.6518 75.0755C82.6518 74.3849 83.158 73.8345 83.799 73.8345C84.44 73.8345 84.7177 73.6527 84.7177 72.7337C84.7177 71.8146 84.9928 71.2643 85.543 70.8489C86.0958 70.4361 86.1867 69.517 86.3709 68.9199C86.5552 68.3228 87.1521 68.6889 87.1521 67.8165C87.1521 66.9442 87.474 65.9785 87.474 65.2905C87.474 64.6025 88.2084 64.6933 88.5302 64.1871C88.8521 63.6808 88.2551 63.0396 88.7586 61.6143C89.2647 60.189 88.7586 58.8571 88.7586 57.572C88.7586 56.2869 88.7586 54.9525 89.218 54.5397C89.6774 54.1269 89.4464 53.8958 89.0804 53.7115C88.7119 53.5272 89.1272 53.0209 89.4464 53.1144C89.7682 53.2052 90.1342 53.8958 90.7337 53.5272C91.3306 53.1585 91.8808 51.5982 92.3869 50.3105C92.893 49.0228 93.7183 49.0695 94.362 48.7943C95.0056 48.5191 96.3837 46.9562 97.2557 44.7053C98.1277 42.4545 97.209 40.2503 96.8431 38.6874V38.7082Z" fill="#ECF3FE"/>
<path d="M45.4508 144.374C44.4413 144.19 42.0174 146.238 43.0632 146.763C44.1662 147.316 46.4603 144.556 45.4508 144.374Z" fill="#ECF3FE"/>
<path d="M45.4508 144.374C44.4413 144.19 42.0174 146.238 43.0632 146.763C44.1662 147.316 46.4603 144.556 45.4508 144.374Z" stroke="#C2CFE0"/>
<path d="M45.8227 146.948C46.5571 147.316 49.5779 146.052 49.2197 145.387C48.4853 144.008 45.0856 146.582 45.8227 146.948Z" fill="#ECF3FE"/>
<path d="M45.8227 146.948C46.5571 147.316 49.5779 146.052 49.2197 145.387C48.4853 144.008 45.0856 146.582 45.8227 146.948Z" stroke="#C2CFE0"/>
</svg>
